<svg width="25" height="25" viewBox="0 0 25 25" fill="none" xmlns="http://www.w3.org/2000/svg">
<path d="M12.3359 0.334961C15.5963 0.334961 16.0031 0.346961 17.2823 0.406961C18.5603 0.466961 19.4303 0.667361 20.1959 0.964961C20.9879 1.26976 21.6551 1.68256 22.3223 2.34856C22.9325 2.94844 23.4047 3.67407 23.7059 4.47496C24.0023 5.23936 24.2039 6.11056 24.2639 7.38856C24.3203 8.66776 24.3359 9.07456 24.3359 12.335C24.3359 15.5954 24.3239 16.0022 24.2639 17.2814C24.2039 18.5594 24.0023 19.4294 23.7059 20.195C23.4056 20.9963 22.9333 21.7221 22.3223 22.3214C21.7223 22.9313 20.9967 23.4035 20.1959 23.705C19.4315 24.0014 18.5603 24.203 17.2823 24.263C16.0031 24.3194 15.5963 24.335 12.3359 24.335C9.07554 24.335 8.66874 24.323 7.38954 24.263C6.11154 24.203 5.24154 24.0014 4.47594 23.705C3.67473 23.4043 2.94897 22.9321 2.34954 22.3214C1.73923 21.7216 1.26706 20.9959 0.965938 20.195C0.668338 19.4306 0.467937 18.5594 0.407937 17.2814C0.351537 16.0022 0.335938 15.5954 0.335938 12.335C0.335938 9.07456 0.347937 8.66776 0.407937 7.38856C0.467937 6.10936 0.668338 5.24056 0.965938 4.47496C1.26622 3.67358 1.7385 2.94775 2.34954 2.34856C2.94914 1.73804 3.67485 1.26584 4.47594 0.964961C5.24154 0.667361 6.11034 0.466961 7.38954 0.406961C8.66874 0.350561 9.07554 0.334961 12.3359 0.334961ZM12.3359 6.33496C10.7446 6.33496 9.21852 6.9671 8.0933 8.09232C6.96808 9.21754 6.33594 10.7437 6.33594 12.335C6.33594 13.9263 6.96808 15.4524 8.0933 16.5776C9.21852 17.7028 10.7446 18.335 12.3359 18.335C13.9272 18.335 15.4534 17.7028 16.5786 16.5776C17.7038 15.4524 18.3359 13.9263 18.3359 12.335C18.3359 10.7437 17.7038 9.21754 16.5786 8.09232C15.4534 6.9671 13.9272 6.33496 12.3359 6.33496ZM20.1359 6.03496C20.1359 5.63714 19.9779 5.25561 19.6966 4.9743C19.4153 4.693 19.0338 4.53496 18.6359 4.53496C18.2381 4.53496 17.8566 4.693 17.5753 4.9743C17.294 5.25561 17.1359 5.63714 17.1359 6.03496C17.1359 6.43279 17.294 6.81432 17.5753 7.09562C17.8566 7.37693 18.2381 7.53496 18.6359 7.53496C19.0338 7.53496 19.4153 7.37693 19.6966 7.09562C19.9779 6.81432 20.1359 6.43279 20.1359 6.03496ZM12.3359 8.73496C13.2907 8.73496 14.2064 9.11425 14.8815 9.78938C15.5567 10.4645 15.9359 11.3802 15.9359 12.335C15.9359 13.2897 15.5567 14.2054 14.8815 14.8805C14.2064 15.5557 13.2907 15.935 12.3359 15.935C11.3812 15.935 10.4655 15.5557 9.79035 14.8805C9.11522 14.2054 8.73594 13.2897 8.73594 12.335C8.73594 11.3802 9.11522 10.4645 9.79035 9.78938C10.4655 9.11425 11.3812 8.73496 12.3359 8.73496Z" fill="#111111"/>
</svg>
