<svg width="24" height="18" viewBox="0 0 24 18" fill="none" xmlns="http://www.w3.org/2000/svg">
<path fill-rule="evenodd" clip-rule="evenodd" d="M22.806 1.76818C23.5252 2.5016 23.76 4.16708 23.76 4.16708C23.76 4.16708 24 6.12336 24 8.07889V9.9128C24 11.8691 23.76 13.8246 23.76 13.8246C23.76 13.8246 23.5252 15.4901 22.806 16.2235C21.9837 17.0911 21.0719 17.1808 20.5565 17.2314C20.4998 17.237 20.4479 17.2421 20.4015 17.2477C17.043 17.4924 12 17.5 12 17.5C12 17.5 5.76 17.4426 3.84 17.2568C3.74903 17.2397 3.63876 17.2264 3.51388 17.2113C2.9057 17.1378 1.95113 17.0225 1.19325 16.2235C0.474 15.4901 0.24 13.8246 0.24 13.8246C0.24 13.8246 0 11.8691 0 9.9128V8.07889C0 6.12336 0.24 4.16708 0.24 4.16708C0.24 4.16708 0.474 2.5016 1.19325 1.76818C2.0174 0.899349 2.93006 0.810675 3.44548 0.760597C3.50136 0.755167 3.55258 0.750191 3.5985 0.744724C6.957 0.5 11.9948 0.5 11.9948 0.5H12.0052C12.0052 0.5 17.043 0.5 20.4015 0.744724C20.4474 0.750199 20.4987 0.755182 20.5546 0.760621C21.0696 0.810704 21.9827 0.89949 22.806 1.76818ZM9.52125 5.34387L9.522 12.135L16.0057 8.75112L9.52125 5.34387Z" fill="#1A1A40"/>
</svg>
