<svg width="24" height="22" viewBox="0 0 24 22" fill="none" xmlns="http://www.w3.org/2000/svg">
<path d="M23.9879 5.35527C23.8835 7.72196 22.2494 10.9572 19.0969 15.0624C15.8344 19.3551 13.07 21.5 10.8107 21.5C9.4137 21.5 8.22975 20.195 7.26312 17.5765C6.61541 15.174 5.97193 12.7716 5.32563 10.3763C4.60595 7.7563 3.83547 6.44703 3.01137 6.44703C2.83215 6.44703 2.20702 6.82908 1.12891 7.59461L0 6.11936C1.18253 5.06766 2.34813 4.01166 3.49821 2.95852C5.07304 1.57628 6.25698 0.850823 7.04722 0.774986C8.90992 0.591832 10.0586 1.88393 10.4918 4.64698C10.9532 7.63038 11.2778 9.48482 11.457 10.2117C11.9961 12.6843 12.5859 13.9177 13.2322 13.9177C13.7332 13.9177 14.4867 13.1193 15.4915 11.521C16.4962 9.91981 17.031 8.70355 17.1044 7.86505C17.2483 6.48281 16.7107 5.79598 15.4915 5.79598C14.9171 5.79598 14.3245 5.91904 13.7163 6.1766C14.9016 2.28601 17.1594 0.394369 20.4954 0.504548C22.9663 0.574662 24.1333 2.19443 23.9879 5.35527" fill="#1A1A40"/>
</svg>
