<svg width="26" height="25" viewBox="0 0 26 25" fill="none" xmlns="http://www.w3.org/2000/svg">
<path d="M25.2804 15.0493V24.335H19.897V15.671C19.897 13.4939 19.118 12.009 17.17 12.009C15.6826 12.009 14.7967 13.0107 14.4079 13.9784C14.2657 14.3245 14.2292 14.8064 14.2292 15.2909V24.335H8.84323C8.84323 24.335 8.91621 9.66214 8.84323 8.14075H14.2292V10.4361L14.1939 10.4889H14.2292V10.4361C14.9439 9.33496 16.2212 7.76072 19.0815 7.76072C22.6239 7.76072 25.2804 10.0762 25.2804 15.0493ZM3.21064 0.334961C1.36961 0.334961 0.164062 1.54301 0.164062 3.13236C0.164062 4.68647 1.33437 5.93102 3.14017 5.93102H3.17541C5.05419 5.93102 6.22073 4.68647 6.22073 3.13236C6.18801 1.54301 5.05419 0.334961 3.21064 0.334961ZM0.483695 24.335H5.86712V8.14075H0.483695V24.335Z" fill="#111111"/>
</svg>
