<svg width="24" height="21" viewBox="0 0 24 21" fill="none" xmlns="http://www.w3.org/2000/svg">
<path d="M24 2.70111C23.1182 3.1027 22.1687 3.37428 21.1727 3.49562C22.1898 2.87157 22.9702 1.88205 23.3379 0.703301C22.3856 1.28112 21.3333 1.70149 20.2092 1.92684C19.3133 0.945986 18.0328 0.333496 16.6156 0.333496C13.8982 0.333496 11.6936 2.59422 11.6936 5.3822C11.6936 5.77801 11.7359 6.16226 11.8204 6.53206C7.72812 6.32116 4.10072 4.31323 1.67072 1.25512C1.2467 2.0034 1.0044 2.87157 1.0044 3.79608C1.0044 5.54688 1.87357 7.09255 3.19493 7.99828C2.38915 7.97373 1.62846 7.74404 0.96355 7.36846V7.43057C0.96355 9.87764 2.66103 11.9188 4.91495 12.381C4.5022 12.4995 4.06691 12.5587 3.61754 12.5587C3.30058 12.5587 2.99067 12.5284 2.69061 12.4692C3.31749 14.4742 5.13471 15.9346 7.29002 15.9736C5.60521 17.3286 3.48089 18.1361 1.17485 18.1361C0.777602 18.1361 0.384575 18.113 0 18.0668C2.17926 19.4969 4.76845 20.3333 7.54781 20.3333C16.6057 20.3333 21.5573 12.6411 21.5573 5.96869C21.5573 5.74912 21.5531 5.52954 21.5446 5.31431C22.5068 4.60214 23.3421 3.71374 24 2.70111" fill="black"/>
</svg>
