<svg width="24" height="17" viewBox="0 0 24 17" fill="none" xmlns="http://www.w3.org/2000/svg">
<path fill-rule="evenodd" clip-rule="evenodd" d="M22.806 1.26817C23.5252 2.00158 23.76 3.66704 23.76 3.66704C23.76 3.66704 24 5.6233 24 7.5788V9.4127C24 11.369 23.76 13.3245 23.76 13.3245C23.76 13.3245 23.5252 14.9899 22.806 15.7233C21.9837 16.5909 21.0719 16.6806 20.5565 16.7312C20.4998 16.7368 20.4479 16.7419 20.4015 16.7475C17.043 16.9923 12 16.9998 12 16.9998C12 16.9998 5.76 16.9424 3.84 16.7566C3.74903 16.7395 3.63876 16.7262 3.51388 16.7111C2.9057 16.6376 1.95113 16.5223 1.19325 15.7233C0.474 14.9899 0.24 13.3245 0.24 13.3245C0.24 13.3245 0 11.369 0 9.4127V7.5788C0 5.6233 0.24 3.66704 0.24 3.66704C0.24 3.66704 0.474 2.00158 1.19325 1.26817C2.0174 0.399344 2.93006 0.310671 3.44548 0.260594C3.50136 0.255164 3.55258 0.250188 3.5985 0.244721C6.957 0 11.9948 0 11.9948 0H12.0052C12.0052 0 17.043 0 20.4015 0.244721C20.4474 0.250197 20.4987 0.255179 20.5546 0.260618C21.0696 0.3107 21.9827 0.399485 22.806 1.26817ZM9.52031 4.8433L9.52106 11.6343L16.0048 8.25051L9.52031 4.8433Z" fill="black"/>
</svg>
