<svg width="207" height="221" viewBox="0 0 207 221" fill="none" xmlns="http://www.w3.org/2000/svg">
<g opacity="0.2" clip-path="url(#clip0_194_385)">
<path d="M180.189 97.6457L68.4543 1.52588e-05L-52.0009 137.835L59.7335 235.481L180.189 97.6457Z" fill="#F6F7F8"/>
<path d="M180.189 97.6457L68.4543 1.52588e-05L61.2782 8.21155L173.013 105.857L180.189 97.6457Z" fill="#637888"/>
<path d="M138.682 104.303L67.4187 42.0248L64.8557 44.9575L136.119 107.235L138.682 104.303Z" fill="#60C3AB"/>
<path d="M122.792 122.485L51.5283 60.2072L48.9654 63.1399L120.229 125.418L122.792 122.485Z" fill="#BDC2C6"/>
<path d="M106.647 140.961L35.3831 78.6829L32.8201 81.6157L104.084 143.894L106.647 140.961Z" fill="#BDC2C6"/>
<path d="M56.1513 128.901L19.4932 96.8653L16.9302 99.7981L53.5884 131.834L56.1513 128.901Z" fill="#BDC2C6"/>
<path d="M40.2614 147.084L3.60327 115.048L1.04032 117.98L37.6985 150.016L40.2614 147.084Z" fill="#BDC2C6"/>
<path d="M24.3715 165.266L-12.2866 133.23L-14.8496 136.163L21.8086 168.199L24.3715 165.266Z" fill="#BDC2C6"/>
<path d="M100.443 241.574L88.0519 229.711L74.1359 240.308L75.8673 196.304L102.468 197.827L100.443 241.574Z" fill="#E14A4A"/>
<path d="M33.8702 183.396L46.9932 193.83L38.6491 209.297L81.731 201.43L76.952 175.529L33.8702 183.396Z" fill="#F16D6E"/>
<path d="M111.348 161.622L119.153 162.754L118.022 170.558L124.912 174.511L120.117 181.182L124.957 187.481L118.072 191.808L119.982 199.684L111.775 200.789L110.351 208.337L102.766 206.363L97.6768 212.778L91.8116 207.652L84.8891 211.43L81.3675 204.215L73.4172 205.026L73.1559 197.039L65.5335 194.515L68.6435 187.405L62.4849 182.023L68.4537 176.378L65.1881 168.869L72.4777 166.446L72.7658 158.422L80.5336 159.003L83.8997 151.601L90.7902 155.553L97.052 150.163L101.892 156.462L109.182 154.04L111.348 161.622Z" fill="#53C2EF"/>
<path d="M81.6177 195.641C89.3921 202.435 101.202 201.64 107.996 193.866C114.79 186.092 113.996 174.282 106.221 167.488C98.4469 160.693 86.6368 161.488 79.8427 169.262C73.0486 177.037 73.8433 188.847 81.6177 195.641Z" fill="#FEC656"/>
</g>
<defs>
<clipPath id="clip0_194_385">
<rect width="183.052" height="183.052" fill="white" transform="translate(68.4551) rotate(41.1505)"/>
</clipPath>
</defs>
</svg>
