<svg width="100" height="133" viewBox="0 0 100 133" fill="none" xmlns="http://www.w3.org/2000/svg">
<g opacity="0.3" clip-path="url(#clip0_194_410)">
<path d="M83.9266 104.574L14.9449 45.5779L23.9363 30.6596L99.1291 91.2047L83.9266 104.574Z" fill="#FF9D49"/>
<path d="M97.2681 93.3803L23.9364 30.6592L37.2799 19.463L106.259 78.4621L97.2681 93.3803Z" fill="#FFCC75"/>
<path d="M116.567 132.493L96.9828 115.743L107.834 98.65L127.734 119.437L116.567 132.493Z" fill="#BD1515"/>
<path d="M83.9281 104.574L96.9861 115.742L119.319 89.6302L106.261 78.462L83.9281 104.574Z" fill="#082947"/>
<path d="M7.47267 27.8826L0.000590417 10.1878L18.6405 14.8253L17.4086 25.0762L7.47267 27.8826Z" fill="#082947"/>
<path d="M37.2799 19.4632L18.6408 14.8254L7.47291 27.8826L14.945 45.5777L37.2799 19.4632Z" fill="#F2EBD9"/>
</g>
<defs>
<clipPath id="clip0_194_410">
<rect width="131" height="131" fill="white" transform="translate(130.604) rotate(85.5396)"/>
</clipPath>
</defs>
</svg>
