<svg width="328" height="131" viewBox="0 0 328 131" fill="none" xmlns="http://www.w3.org/2000/svg">
<path d="M24.2487 60.7507C22.505 65.5942 21.4395 70.5345 21.052 75.5718C20.7614 80.609 21.391 85.5978 22.9409 90.5381C23.619 93.4442 24.5877 95.7206 25.847 97.3674C27.2032 99.0142 28.6078 100.273 30.0608 101.145C31.6108 102.017 33.1607 102.598 34.7106 102.889C36.2605 103.18 37.6651 103.422 38.9244 103.615C40.1837 103.809 41.1524 104.1 41.8305 104.487C42.6054 104.875 42.896 105.553 42.7023 106.522C43.2835 106.618 43.8647 106.667 44.446 106.667C45.124 106.667 45.8021 106.667 46.4802 106.667C47.352 106.667 48.2239 106.667 49.0957 106.667C49.9675 106.667 50.8393 106.618 51.7112 106.522C53.9392 100.516 56.0703 94.5582 58.1046 88.6491C60.2357 82.7401 62.2699 76.7342 64.2073 70.6314C58.0077 70.7283 51.7596 71.0189 45.4631 71.5032C45.0756 71.5032 44.7366 71.2126 44.446 70.6314C44.2522 69.9533 44.1069 69.2268 44.01 68.4519C43.9132 67.58 43.9132 66.7566 44.01 65.9817C44.1069 65.2067 44.3007 64.6739 44.5913 64.3833C44.3975 64.3833 44.1069 64.4318 43.7194 64.5286C43.4288 64.5286 43.1382 64.5286 42.8476 64.5286C42.4601 64.5286 42.2664 64.4318 42.2664 64.238C41.9758 62.5913 41.7821 61.4288 41.6852 60.7507C41.5883 60.0726 42.3633 59.6367 44.01 59.443C45.6568 59.1524 48.5145 59.0071 52.583 59.0071C56.6515 58.9102 62.6574 58.7165 70.6007 58.4259C73.7005 58.4259 76.7519 57.99 79.7549 57.1181C82.7578 56.1494 85.7608 55.2776 88.7638 54.5026C88.9575 54.4058 89.1028 54.5026 89.1997 54.7933C89.3934 54.987 89.5387 55.2776 89.6356 55.6651C89.7324 56.0526 89.7809 56.4885 89.7809 56.9728C89.7809 57.4572 89.7809 57.8446 89.7809 58.1353H90.6527C91.1371 58.1353 91.573 58.1837 91.9604 58.2806C92.3479 58.2806 92.4932 58.3774 92.3964 58.5712C92.687 59.7336 92.7838 60.8476 92.687 61.9132C92.5901 62.8819 91.9604 63.3662 90.798 63.3662C90.7011 63.3662 90.6043 63.3662 90.5074 63.3662C90.4105 63.2693 90.2652 63.2209 90.0715 63.2209C91.3308 66.3207 91.6698 68.2581 91.0886 69.0331C90.5074 69.808 89.2965 70.1955 87.456 70.1955H80.772C76.9941 80.3668 73.1678 90.5865 69.293 100.855C65.4182 111.123 61.3013 121.1 56.9421 130.787C56.6515 130.884 56.2156 130.933 55.6344 130.933C54.5688 130.933 53.6486 130.69 52.8736 130.206C52.0987 129.722 52.1471 128.85 53.0189 127.591C52.3408 127.3 51.9049 127.009 51.7112 126.719C51.6143 126.525 51.6627 126.041 51.8565 125.266C52.0502 124.588 52.4377 123.474 53.0189 121.924C53.697 120.374 54.472 118.146 55.3438 115.24C55.15 115.337 54.9079 115.385 54.6173 115.385C54.4235 115.385 54.2298 115.434 54.036 115.53C53.358 117.177 52.7283 118.776 52.1471 120.325C51.5659 121.972 50.9362 123.619 50.2581 125.266C50.1613 126.719 49.58 127.445 48.5145 127.445C48.0301 127.445 47.4489 127.3 46.7708 127.009C46.1896 126.816 45.4147 126.477 44.446 125.992C44.2522 125.895 44.2522 125.556 44.446 124.975C44.6397 124.491 44.8819 123.813 45.1725 122.941C45.56 122.166 45.9474 121.246 46.3349 120.18C46.8193 119.211 47.2552 118.194 47.6427 117.129C45.9959 117.129 44.3007 117.08 42.557 116.983C40.8134 116.887 39.1666 116.79 37.6167 116.693C38.9728 118.146 39.2634 119.26 38.4885 120.035C37.7135 120.907 36.3089 121.343 34.2747 121.343C32.2404 121.343 29.8187 120.907 27.0095 120.035C24.2002 119.26 21.3426 117.952 18.4365 116.112C15.6273 114.271 13.0118 111.898 10.5901 108.992C8.16834 106.086 6.32782 102.598 5.06852 98.5298C2.16243 91.0709 0.854696 83.5151 1.1453 75.8624C1.43591 68.1128 2.93739 60.6054 5.64974 53.3402C8.45895 46.075 12.2853 39.2457 17.1288 32.8523C22.0691 26.3621 27.6875 20.7436 33.9841 15.997C40.2806 11.1536 47.0614 7.32721 54.3266 4.518C61.6887 1.70878 69.1477 0.304177 76.7035 0.304177H79.0284C79.7065 0.304177 81.1595 0.401045 83.3875 0.594781C85.6155 0.69165 87.7466 0.982257 89.7809 1.4666C91.8151 1.95096 93.365 2.67748 94.4306 3.64617C95.4962 4.518 95.254 5.68043 93.7041 7.13347C92.8323 7.42408 92.0089 7.56939 91.2339 7.56939C89.7809 7.56939 88.3278 7.32722 86.8748 6.84287C85.4218 6.35852 83.9687 6.11634 82.5157 6.11634H81.9345C81.8376 6.69756 81.547 7.13347 81.0626 7.42408C82.3219 7.42408 84.0171 7.56938 86.1483 7.85999C88.2794 8.05373 90.4105 8.44121 92.5417 9.02243C94.6728 9.60365 96.5133 10.427 98.0632 11.4926C99.71 12.4613 100.63 13.769 100.824 15.4158C100.533 15.9002 100.097 16.2392 99.5163 16.4329C98.935 16.6267 98.3538 16.7235 97.7726 16.7235C97.2883 16.7235 96.7555 16.6267 96.1743 16.4329C94.14 14.7862 91.912 13.7206 89.4903 13.2362C87.1654 12.655 84.7437 12.3644 82.2251 12.3644C71.9569 12.3644 62.8512 14.5924 54.9079 19.0484C46.9646 23.5044 39.6994 29.5588 33.1122 37.2114C36.2121 33.6273 39.5541 30.3821 43.1382 27.4761C46.7224 24.4731 50.5487 21.9061 54.6173 19.7749C58.6858 17.5469 62.948 15.8517 67.404 14.6893C71.86 13.43 76.5098 12.8003 81.3532 12.8003H83.9687C85.3249 12.8003 86.6326 12.9456 87.8919 13.2362C89.2481 13.43 89.7809 14.0596 89.4903 15.1252C89.1997 16.2876 88.8122 17.0626 88.3278 17.4501C87.9404 17.7407 87.5044 17.886 87.0201 17.886C86.5357 17.886 86.0514 17.8376 85.5671 17.7407C85.0827 17.6438 84.4531 17.5954 83.6781 17.5954C83.1938 17.5954 82.7094 17.5954 82.2251 17.5954C81.7407 17.4985 81.2564 17.4501 80.772 17.4501C74.863 17.4501 69.0024 18.6125 63.1902 20.9374C57.4749 23.2622 52.0987 26.4105 47.0614 30.3821C42.0242 34.3538 37.5198 38.9551 33.5481 44.186C29.5765 49.417 26.4767 54.9386 24.2487 60.7507ZM64.062 9.89425C60.8653 10.7661 57.6202 12.0254 54.3266 13.6722C51.0331 15.2221 47.788 17.0626 44.5913 19.1937C41.4914 21.228 38.4885 23.5528 35.5824 26.1683C32.7732 28.7838 30.2061 31.593 27.8813 34.596H28.7531C33.4028 29.0744 38.6822 24.1341 44.5913 19.7749C50.5972 15.4158 57.0874 12.1223 64.062 9.89425ZM71.3272 73.1016C72.6834 73.5859 73.4099 73.9734 73.5068 74.264C73.6037 74.4578 73.4584 75.2327 73.0709 76.5889C73.1678 76.2014 73.3131 75.6686 73.5068 74.9905C73.7974 74.3125 74.0396 73.6344 74.2333 72.9563C74.5239 72.2782 74.7661 71.697 74.9598 71.2126C75.2505 70.6314 75.3958 70.3408 75.3958 70.3408C74.8145 70.3408 74.2333 70.3408 73.6521 70.3408C73.0709 70.3408 72.4897 70.3892 71.9085 70.4861L71.3272 73.1016ZM55.7797 110.881C56.0703 110.881 56.4093 110.784 56.7968 110.59C57.378 108.75 57.9108 106.909 58.3952 105.069C58.9764 103.325 59.5092 101.484 59.9935 99.547C59.3154 101.484 58.6373 103.373 57.9593 105.214C57.2812 107.054 56.5546 108.943 55.7797 110.881ZM19.0177 48.6905C16.9835 52.759 15.3367 57.0697 14.0774 61.6226C12.9149 66.1754 12.2853 70.7767 12.1884 75.4265C12.1884 80.0762 12.7212 84.6775 13.7868 89.2304C14.8523 93.7832 16.596 98.0939 19.0177 102.162C20.1802 103.906 21.6816 105.408 23.5222 106.667C25.4595 108.023 27.5907 109.089 29.9155 109.864C32.2404 110.735 34.7106 111.365 37.3261 111.753C39.9415 112.237 42.5086 112.479 45.0272 112.479C45.8021 112.479 46.5287 112.431 47.2067 112.334C47.9817 112.334 48.7567 112.285 49.5316 112.188C49.7254 111.607 49.8707 111.268 49.9675 111.171C47.6427 111.171 45.2694 111.123 42.8476 111.026C40.4259 110.929 38.0526 110.639 35.7277 110.154C33.4997 109.767 31.2717 109.137 29.0437 108.265C26.9126 107.49 24.8783 106.328 22.9409 104.778C21.6816 103.906 20.0833 101.92 18.1459 98.8204C16.3054 95.7206 14.8523 91.749 13.7868 86.9055C12.8181 82.062 12.5759 76.3952 13.0603 69.9049C13.5446 63.4146 15.5304 56.3432 19.0177 48.6905ZM153.887 9.16773C158.343 9.16773 162.654 10.2817 166.819 12.5097H167.691C169.629 12.5097 171.614 13.3816 173.649 15.1252C175.78 16.772 177.572 19.1937 179.025 22.3904C180.575 25.5871 181.592 29.4619 182.076 34.0148C182.658 38.5676 182.415 43.7017 181.35 49.417C180.769 53.6793 179.606 58.2321 177.862 63.0756C176.119 67.9191 173.939 72.7141 171.324 77.4607C168.708 82.2073 165.657 86.7602 162.17 91.1193C158.682 95.4784 154.856 99.3048 150.691 102.598C146.525 105.892 142.069 108.507 137.323 110.445C132.673 112.479 127.781 113.496 122.647 113.496C118.772 113.496 115.043 112.915 111.458 111.753C107.874 110.59 104.629 108.846 101.723 106.522C98.817 104.294 96.3952 101.581 94.4579 98.3845C92.6173 95.1878 91.4549 91.5552 90.9706 87.4867C90.3893 82.5464 90.7284 77.0732 91.9877 71.0673C93.3439 64.9646 95.5234 58.8618 98.5264 52.759C101.626 46.6562 105.501 40.7472 110.151 35.0319C114.8 29.3166 120.177 24.3278 126.279 20.0655C130.154 17.2563 134.417 14.7377 139.066 12.5097C143.813 10.2817 148.753 9.16773 153.887 9.16773ZM159.118 27.912C158.343 27.912 157.52 27.8151 156.648 27.6214C155.776 27.4276 154.856 27.3308 153.887 27.3308C153.015 27.3308 152.144 27.4761 151.272 27.7667C147.881 28.5416 144.394 30.0431 140.81 32.2711C137.323 34.4991 133.932 37.163 130.639 40.2628C127.442 43.3627 124.439 46.85 121.63 50.7247C118.917 54.5026 116.593 58.4743 114.655 62.6397C112.815 66.7082 111.458 70.8252 110.587 74.9905C109.812 79.0591 109.763 82.9823 110.441 86.7602C111.604 89.2788 113.154 91.1677 115.091 92.4271C117.028 93.5895 119.16 94.1707 121.484 94.1707C125.262 94.1707 129.379 92.8145 133.835 90.1022C138.388 87.293 142.602 83.4666 146.477 78.6231C150.448 73.7797 153.839 68.1128 156.648 61.6226C159.554 55.0354 161.249 47.9155 161.734 40.2628C161.927 39.1973 161.927 38.1317 161.734 37.0661C161.54 35.9037 161.298 34.7897 161.007 33.7241C160.813 32.5617 160.668 31.4477 160.571 30.3821C160.474 29.3166 160.717 28.3479 161.298 27.4761C160.62 27.7667 159.893 27.912 159.118 27.912ZM153.015 19.4843C153.79 19.5812 154.759 19.7749 155.922 20.0655C157.181 20.3562 158.295 20.7436 159.264 21.228C160.329 21.7123 161.201 22.342 161.879 23.1169C162.557 23.8919 162.799 24.909 162.606 26.1683C162.799 26.0715 163.09 26.023 163.477 26.023C164.446 26.023 165.269 26.4589 165.948 27.3308C166.722 28.1057 167.255 28.8807 167.546 29.6556C167.74 28.1057 168.079 27.137 168.563 26.7495C168.563 25.5871 168.854 24.6669 169.435 23.9888C168.563 23.2138 167.74 22.4388 166.965 21.6639C166.19 20.8889 165.366 20.2109 164.494 19.6296C163.623 18.9516 162.606 18.3703 161.443 17.886C160.378 17.4016 159.021 17.0142 157.375 16.7235C151.659 17.3048 146.186 18.9031 140.955 21.5186C135.724 24.0372 130.832 27.2823 126.279 31.254C121.823 35.1288 117.803 39.5847 114.219 44.622C110.732 49.5623 107.874 54.7448 105.646 60.1695C107.196 56.4885 109.569 52.3715 112.766 47.8187C115.963 43.1689 119.692 38.8098 123.955 34.7413C128.314 30.5759 132.963 27.0402 137.904 24.1341C142.941 21.228 147.978 19.6781 153.015 19.4843ZM186.947 111.462C186.657 111.849 186.221 112.043 185.64 112.043C185.058 112.043 184.429 111.898 183.751 111.607C183.169 111.413 182.637 111.123 182.152 110.735C181.668 110.348 181.281 109.912 180.99 109.428C180.796 109.04 180.845 108.653 181.135 108.265L182.879 105.65C182.201 104.972 181.765 104.439 181.571 104.051C181.474 103.761 181.862 102.889 182.734 101.436C183.702 99.9829 185.301 97.5611 187.529 94.1707C189.853 90.7803 193.05 85.6946 197.119 78.9138H195.666C193.147 82.5948 190.628 86.3243 188.11 90.1022C185.591 93.7832 183.073 97.4643 180.554 101.145C180.748 101.339 180.409 101.872 179.537 102.744C178.762 103.615 178.278 104.245 178.084 104.633C178.084 104.826 177.793 104.778 177.212 104.487C176.728 104.294 176.146 104.003 175.468 103.615C174.79 103.228 174.112 102.792 173.434 102.308C172.853 101.823 172.465 101.436 172.272 101.145C173.047 99.5954 174.015 97.9002 175.178 96.0597C176.437 94.2191 177.745 92.3786 179.101 90.5381C180.457 88.6007 181.813 86.6633 183.169 84.7259C184.526 82.7885 185.737 80.948 186.802 79.2044C186.511 79.3012 186.076 79.3497 185.494 79.3497C184.623 79.3497 183.848 79.1559 183.169 78.7685C182.491 78.381 182.007 77.9451 181.716 77.4607C181.523 76.8795 181.62 76.3467 182.007 75.8624C182.395 75.2812 183.169 74.7968 184.332 74.4093C183.848 74.1187 183.605 73.6344 183.605 72.9563C182.927 72.1813 182.83 71.3095 183.315 70.3408H182.298C181.813 70.3408 181.474 70.0986 181.281 69.6143C181.087 69.1299 180.99 68.5972 180.99 68.0159C180.99 67.3379 181.087 66.7566 181.281 66.2723C181.571 65.7879 181.91 65.5458 182.298 65.5458L195.956 65.4005C202.931 54.8417 209.712 44.1376 216.299 33.2882C222.983 22.342 229.522 11.4442 235.915 0.594781C236.109 0.594781 236.593 0.788521 237.368 1.176C238.24 1.46661 239.063 1.90252 239.838 2.48374C240.613 2.96808 241.194 3.50087 241.582 4.08208C242.066 4.6633 242.066 5.09921 241.582 5.38982C242.066 5.7773 242.308 6.26165 242.308 6.84287C242.308 7.32722 242.211 7.86 242.018 8.44121C241.824 8.92556 241.533 9.45834 241.146 10.0396C240.855 10.6208 240.613 11.202 240.419 11.7832C241.194 11.8801 242.115 12.0738 243.18 12.3644C244.343 12.655 244.827 13.0425 244.633 13.5269L250.736 3.50087C250.93 3.21026 251.414 3.06496 252.189 3.06496C252.77 3.06496 253.448 3.21026 254.223 3.50087C254.998 3.69461 255.579 4.08208 255.967 4.6633C256.451 5.14765 256.645 5.7773 256.548 6.55226C256.548 7.32721 256.015 8.29591 254.95 9.45834C255.24 9.65208 255.386 10.0396 255.386 10.6208C255.386 11.1051 255.24 12.0254 254.95 13.3816C254.756 14.7377 254.369 16.6751 253.787 19.1937C253.303 21.6155 252.673 24.8606 251.898 28.9291C251.22 32.9976 250.397 37.9864 249.428 43.8954C248.556 49.8045 247.588 56.9244 246.522 65.2552C246.716 65.2552 247.055 65.2552 247.539 65.2552C248.024 65.1583 248.508 65.1099 248.992 65.1099C249.477 65.1099 249.913 65.1583 250.3 65.2552C250.784 65.2552 251.027 65.352 251.027 65.5458C252.48 68.6456 251.753 70.1955 248.847 70.1955C248.653 70.1955 248.411 70.1955 248.12 70.1955C247.927 70.0986 247.733 70.0502 247.539 70.0502C247.152 70.5345 246.571 70.8736 245.796 71.0673C245.796 71.2611 245.747 71.4064 245.65 71.5032C245.65 71.6001 245.65 71.7454 245.65 71.9392C246.328 71.9392 246.861 72.1329 247.249 72.5204H247.685C248.556 72.5204 249.234 72.811 249.719 73.3922C250.3 73.8765 250.591 74.4093 250.591 74.9905C250.591 75.5718 250.203 76.153 249.428 76.7342C248.653 77.2185 247.394 77.4607 245.65 77.4607H245.069C244.488 82.4979 244.004 87.293 243.616 91.8458C243.229 96.3018 242.793 101.291 242.308 106.812C242.308 107.297 242.308 107.587 242.308 107.684C242.308 107.781 242.163 108.023 241.872 108.411C240.613 108.895 239.693 109.137 239.112 109.137C237.465 109.137 236.932 107.878 237.513 105.359C236.835 105.165 236.351 104.972 236.06 104.778C235.866 104.681 235.77 103.858 235.77 102.308C235.77 100.855 235.866 98.2392 236.06 94.4613C236.351 90.6834 236.641 85.065 236.932 77.606H236.206C235.721 81.9651 235.334 86.2758 235.043 90.5381C234.752 94.7035 234.462 98.9657 234.171 103.325C234.268 103.422 234.317 103.664 234.317 104.051C234.317 104.439 234.268 104.826 234.171 105.214C234.171 105.698 234.123 106.086 234.026 106.376C233.929 106.667 233.881 106.812 233.881 106.812C233.106 106.812 232.428 106.861 231.846 106.957C231.265 107.054 230.732 107.103 230.248 107.103C229.57 107.103 229.086 106.812 228.795 106.231C228.601 105.65 228.553 104.342 228.65 102.308C228.747 100.273 228.989 97.319 229.376 93.4442C229.764 89.5694 230.2 84.3384 230.684 77.7513L210.051 78.4778C206.273 83.9994 202.447 89.521 198.572 95.0425C194.794 100.467 190.919 105.94 186.947 111.462ZM234.898 41.28C232.282 45.3485 229.667 49.3686 227.051 53.3402C224.436 57.3119 221.772 61.2835 219.06 65.2552H231.992C232.476 61.1866 232.912 57.215 233.299 53.3402C233.784 49.3686 234.317 45.3485 234.898 41.28ZM248.702 19.6296C248.217 20.3077 247.781 20.9858 247.394 21.6639C247.103 22.2451 246.716 22.8748 246.232 23.5528C247.2 23.6497 247.636 23.9888 247.539 24.57C247.442 25.0543 247.297 26.3136 247.103 28.3479C247.297 27.2823 247.491 26.1199 247.685 24.8606C247.878 23.6013 248.072 22.4389 248.266 21.3733L248.702 19.6296ZM208.162 59.7336C207.581 60.7023 206.999 61.671 206.418 62.6397C205.837 63.5115 205.207 64.4318 204.529 65.4005H205.11L208.162 59.7336ZM237.949 17.0142C238.337 17.2079 238.53 17.3048 238.53 17.3048C238.53 16.9173 238.53 16.5782 238.53 16.2876C238.627 15.997 238.724 15.658 238.821 15.2705L237.949 17.0142ZM237.223 71.2126H236.787C236.787 71.5032 236.738 71.697 236.641 71.7939H237.223V71.2126ZM231.265 71.5032C230.781 71.5032 230.248 71.5517 229.667 71.6485C229.086 71.6485 228.553 71.6485 228.068 71.6485H231.265V71.5032ZM237.513 63.8021C237.513 63.9959 237.465 64.238 237.368 64.5286C237.368 64.8192 237.368 65.0614 237.368 65.2552H237.513V63.8021ZM254.059 114.223C252.024 114.707 249.99 115.191 247.956 115.676C245.922 116.16 243.887 116.644 241.853 117.129C241.756 117.226 241.611 117.274 241.417 117.274C240.933 117.274 240.545 116.935 240.255 116.257C240.061 115.579 239.916 114.998 239.819 114.513C239.625 114.32 239.867 114.174 240.545 114.077C241.223 113.981 241.708 113.835 241.998 113.641C242.095 112.77 242.483 112.285 243.161 112.188C243.936 112.092 244.565 111.898 245.05 111.607C244.856 110.735 245.534 110.057 247.084 109.573C248.731 109.185 251.879 108.217 256.529 106.667C261.179 92.7177 265.877 78.8653 270.623 65.1099C275.467 51.2575 280.407 37.3568 285.444 23.4075C284.96 23.5044 284.573 23.6013 284.282 23.6982C284.088 23.795 283.894 23.8435 283.701 23.8435C283.313 23.8435 283.023 23.6497 282.829 23.2622C282.732 22.8748 282.635 22.0029 282.538 20.6468C282.538 20.2593 283.071 20.0655 284.137 20.0655C285.299 19.9687 286.219 19.8234 286.897 19.6296V19.339C286.316 19.339 285.735 19.4359 285.154 19.6296C284.669 19.7265 284.185 19.7749 283.701 19.7749C283.216 19.7749 282.877 19.6296 282.684 19.339C282.49 18.9515 282.441 18.1766 282.538 17.0142C281.957 17.3048 281.424 17.4501 280.94 17.4501C280.359 17.4501 279.923 17.3048 279.632 17.0142C279.342 16.6267 279.245 16.2392 279.342 15.8517C279.535 15.4642 279.874 15.0768 280.359 14.6893C280.94 14.3018 281.763 14.0596 282.829 13.9628C282.538 13.8659 282.151 13.8175 281.666 13.8175C281.182 13.8175 280.698 13.8659 280.213 13.9628C279.826 13.9628 279.438 13.9628 279.051 13.9628C278.082 13.9628 277.307 13.769 276.726 13.3816C276.242 12.9941 276.145 12.0738 276.435 10.6208C276.435 10.427 276.581 10.3302 276.871 10.3302H277.598C277.598 9.65208 277.743 9.31303 278.034 9.31303C278.421 9.31303 278.76 9.2646 279.051 9.16773C279.051 8.39277 279.196 8.0053 279.487 8.0053C285.008 7.13347 290.433 6.26164 295.761 5.38982C301.089 4.42113 306.513 3.50087 312.035 2.62904C312.229 2.62904 312.374 2.82278 312.471 3.21026C312.568 3.59774 312.616 4.03365 312.616 4.518C312.616 4.90548 312.616 5.34139 312.616 5.82574C312.616 6.21321 312.519 6.40695 312.326 6.40695C309.71 6.8913 307.095 7.32721 304.479 7.71469C301.864 8.10217 299.2 8.48965 296.487 8.87713C297.844 9.16773 299.2 9.31303 300.556 9.31303C303.075 9.31303 305.545 9.07086 307.967 8.58651C310.388 8.0053 312.568 7.56939 314.505 7.27878C314.699 8.24747 314.844 8.97399 314.941 9.45834C315.038 9.84582 314.99 10.1364 314.796 10.3302C314.602 10.5239 314.263 10.6692 313.779 10.7661C313.294 10.8629 312.568 11.0083 311.599 11.202V12.0738C311.696 12.1707 311.744 12.2676 311.744 12.3644C311.744 12.3644 311.793 12.4129 311.89 12.5097C312.277 12.4129 312.713 12.3644 313.197 12.3644C313.972 12.3644 314.36 12.7035 314.36 13.3816C314.36 14.0596 314.602 15.4643 315.086 17.5954C315.086 17.886 314.699 18.1766 313.924 18.4672C313.149 18.7578 312.132 19.0484 310.873 19.339C309.71 19.6296 308.451 19.9202 307.095 20.2108C305.739 20.5015 304.479 20.7436 303.317 20.9374C299.248 34.6928 294.695 48.2546 289.658 61.6226C284.718 74.8937 279.971 88.3101 275.418 101.872C282.684 100.322 290.336 99.0142 298.376 97.9486C306.513 96.7862 314.311 96.205 321.77 96.205C322.933 96.205 323.417 97.0768 323.223 98.8204C323.03 99.4985 322.545 99.8376 321.77 99.8376C315.668 99.8376 309.516 100.225 303.317 101C297.117 101.775 291.014 102.695 285.008 103.761C291.983 103.47 298.909 102.986 305.787 102.308C312.762 101.727 319.736 101.242 326.711 100.855C327.486 102.017 327.776 102.841 327.583 103.325C327.486 103.809 327.05 104.1 326.275 104.197C325.597 104.39 324.676 104.487 323.514 104.487C322.352 104.487 321.044 104.536 319.591 104.633C319.591 105.02 319.542 105.311 319.446 105.504C319.639 105.601 319.833 105.747 320.027 105.94H322.642C323.514 105.94 324.289 106.086 324.967 106.376C325.742 106.764 325.936 107.636 325.548 108.992C326.904 110.542 326.372 111.51 323.95 111.898C321.625 112.285 317.605 112.721 311.89 113.206C306.271 113.787 299.103 114.659 290.385 115.821C281.763 117.08 271.883 119.308 260.743 122.505C260.258 122.602 259.774 122.747 259.29 122.941C258.805 123.135 258.369 123.232 257.982 123.232C257.401 123.232 257.013 123.086 256.819 122.796C256.529 123.764 255.948 124.249 255.076 124.249C254.204 124.249 253.526 123.958 253.042 123.377C252.945 123.377 253.09 122.941 253.477 122.069C253.865 121.197 254.059 120.665 254.059 120.471C253.574 119.986 253.381 119.454 253.477 118.872C253.671 118.388 253.865 117.904 254.059 117.419C253.09 117.904 252.218 118.243 251.443 118.437C250.668 118.63 249.99 118.727 249.409 118.727C247.956 118.727 247.472 118.194 247.956 117.129C248.537 116.16 250.571 115.24 254.059 114.368V114.223ZM289.658 22.8263C287.14 29.7041 284.669 36.5818 282.248 43.4595C279.826 50.2404 277.404 57.1181 274.982 64.0927C278.082 57.3119 280.988 50.4826 283.701 43.6048C286.413 36.6302 288.883 29.6072 291.111 22.5357C290.917 22.6326 290.675 22.681 290.385 22.681C290.094 22.681 289.852 22.7295 289.658 22.8263ZM293.872 38.5192C289.803 49.2717 285.88 59.9758 282.102 70.6314C278.324 81.2871 274.595 92.0396 270.914 102.889H271.205C274.886 92.0396 278.663 81.3355 282.538 70.7767C286.51 60.1211 290.288 49.3686 293.872 38.5192ZM258.127 119.599C265.102 117.371 272.222 115.579 279.487 114.223C286.752 112.963 294.017 111.849 301.283 110.881C302.348 110.687 303.414 110.542 304.479 110.445C305.642 110.348 306.804 110.251 307.967 110.154C299.442 110.639 291.014 111.656 282.684 113.206C274.45 114.755 266.313 116.741 258.272 119.163C258.176 119.26 258.127 119.405 258.127 119.599ZM284.427 51.7419C285.299 49.6107 286.219 47.528 287.188 45.4938C288.157 43.3627 289.029 41.2315 289.803 39.1004C288.932 41.2315 288.011 43.3627 287.043 45.4938C286.074 47.528 285.202 49.6107 284.427 51.7419ZM301.283 106.812C302.154 106.812 302.978 106.764 303.753 106.667C304.625 106.667 305.448 106.618 306.223 106.522C304.867 106.522 303.511 106.522 302.154 106.522C300.895 106.522 299.636 106.57 298.376 106.667C298.861 106.667 299.345 106.667 299.829 106.667C300.314 106.764 300.798 106.812 301.283 106.812ZM297.941 17.7407C297.65 17.8376 297.359 17.886 297.069 17.886C296.778 17.886 296.536 17.9344 296.342 18.0313C296.245 18.1282 296.197 18.2735 296.197 18.4672C296.391 18.3703 296.633 18.3219 296.923 18.3219C297.214 18.3219 297.505 18.2735 297.795 18.1766L297.941 17.7407ZM301.428 12.9456C302.203 13.0425 302.929 13.1394 303.607 13.2362C304.285 13.2362 305.012 13.2362 305.787 13.2362L302.3 12.8003L301.428 12.9456ZM290.966 19.0484C291.16 19.0484 291.402 19.0484 291.692 19.0484C291.983 18.9516 292.225 18.9031 292.419 18.9031C292.419 18.8062 292.419 18.7578 292.419 18.7578C292.516 18.6609 292.564 18.5641 292.564 18.4672C292.371 18.4672 292.225 18.5156 292.128 18.6125H291.111C291.111 18.8062 291.063 18.9516 290.966 19.0484Z" fill="url(#paint0_linear_200_589)" fill-opacity="0.1"/>
<defs>
<linearGradient id="paint0_linear_200_589" x1="159.5" y1="-23" x2="162.132" y2="116.132" gradientUnits="userSpaceOnUse">
<stop stop-color="#FF9344"/>
<stop offset="1" stop-color="#FF54D9"/>
</linearGradient>
</defs>
</svg>
