<svg width="143" height="191" viewBox="0 0 143 191" fill="none" xmlns="http://www.w3.org/2000/svg">
<g opacity="0.3" clip-path="url(#clip0_194_346)">
<path d="M-28.8959 114.609L124.494 112.747L124.387 103.871L47.5838 95.9264L-29.0037 105.733L-28.8959 114.609Z" fill="#42C8C6"/>
<path d="M-29.0045 105.734L124.386 103.872L124.044 75.7651L114.473 75.8813L112.281 78.1276L110.035 75.9353L102.681 76.0244L100.49 78.2706L98.2433 76.0783L90.8903 76.1678L88.6984 78.414L86.4522 76.2217L79.0984 76.3108L76.9065 78.5569L74.6607 76.3646L20.0376 77.028L17.8457 79.2742L15.6 77.0817L8.24609 77.1709L6.05417 79.4171L3.80818 77.225L-3.54503 77.3143L-5.73732 79.5605L-7.98294 77.368L-15.3365 77.4573L-17.5288 79.7034L-19.7746 77.5111L-29.3458 77.6277L-29.0045 105.734Z" fill="#81E3E2"/>
<path d="M48.4073 163.766L57.3845 172.528L48.7301 190.374L48.4073 163.766Z" fill="#4D4D4D"/>
<path d="M39.6456 172.743L46.1901 163.792L52.9499 172.581L48.7303 190.374L39.6456 172.743Z" fill="#737373"/>
<path d="M52.6249 145.973L66.037 154.681L57.3829 172.528L52.9481 172.582L52.6249 145.973Z" fill="#FEA680"/>
<path d="M30.559 155.112L48.0701 136.14L57.1675 154.789L52.9482 172.582L39.6439 172.744L30.559 155.112Z" fill="#FFC1A6"/>
<path d="M49.8872 42.0573L64.7777 50.7475L66.0393 154.681L57.1698 154.789L49.8872 42.0573Z" fill="#DFC136"/>
<path d="M46.9667 45.0497L64.6341 38.9214L64.4188 21.1824C64.3596 16.304 60.3197 12.3611 55.4416 12.4206L46.5721 12.5282L46.9667 45.0497Z" fill="#FE5F1A"/>
<path d="M30.5597 155.112L48.2989 154.897L53.5128 145.962L52.2508 42.029L29.2979 51.1785L30.5597 155.112Z" fill="#FFE777"/>
<path d="M55.7966 41.9887L46.9274 42.0964L48.2968 154.896L57.1661 154.788L55.7966 41.9887Z" fill="#FEDC3D"/>
<path d="M37.7023 12.6359L46.5718 12.5282C51.4501 12.469 55.4899 16.4119 55.549 21.29L55.8361 44.9422L29.1558 39.3521L28.9404 21.6131C28.8812 16.7348 32.8241 12.6949 37.7023 12.6359Z" fill="#FE834D"/>
<path d="M64.6312 38.9224L55.762 39.03L55.9055 50.8558L64.7748 50.7481L64.6312 38.9224Z" fill="#ABECEC"/>
<path d="M55.7649 39.0309L29.1561 39.3539L29.2997 51.1797L55.9085 50.8567L55.7649 39.0309Z" fill="#D5F6F5"/>
<path d="M-7.98112 77.3672L-7.87337 86.2426C-7.85849 87.4681 -6.8531 88.4494 -5.62738 88.4347C-4.40165 88.42 -3.42039 87.4143 -3.43527 86.1887L-3.54302 77.3133L-7.98112 77.3672Z" fill="#02ACAB"/>
<path d="M3.80819 77.2242L3.91594 86.0997C3.93082 87.3252 4.93621 88.3065 6.16193 88.2918C7.38765 88.2771 8.36892 87.2713 8.35404 86.0458L8.24629 77.1703L3.80819 77.2242Z" fill="#02ACAB"/>
<path d="M15.5993 77.0812L15.7071 85.9566C15.722 87.1822 16.7273 88.1634 17.9531 88.1487C19.1788 88.134 20.1601 87.1283 20.1452 85.9027L20.0374 77.0273L15.5993 77.0812Z" fill="#02ACAB"/>
<path d="M110.036 75.9342L110.144 84.8096C110.158 86.0352 111.164 87.0164 112.39 87.0017C113.615 86.9869 114.597 85.9813 114.582 84.7558L114.474 75.8803L110.036 75.9342Z" fill="#02ACAB"/>
<path d="M98.2448 76.0775L98.3526 84.9529C98.3675 86.1785 99.3729 87.1597 100.599 87.145C101.824 87.1302 102.806 86.1246 102.791 84.8991L102.683 76.0236L98.2448 76.0775Z" fill="#02ACAB"/>
<path d="M86.4519 76.221L86.5596 85.0965C86.5745 86.322 87.5799 87.3033 88.8056 87.2886C90.0311 87.2737 91.0126 86.2681 90.9977 85.0426L90.89 76.1671L86.4519 76.221Z" fill="#02ACAB"/>
<path d="M74.6626 76.3635L74.7703 85.239C74.7852 86.4645 75.7906 87.4458 77.0163 87.4311C78.2418 87.4162 79.2233 86.4106 79.2084 85.1851L79.1007 76.3096L74.6626 76.3635Z" fill="#02ACAB"/>
</g>
<defs>
<clipPath id="clip0_194_346">
<rect width="134.625" height="134.625" fill="white" transform="translate(-47.6122 96.3428) rotate(-45.6956)"/>
</clipPath>
</defs>
</svg>
