<svg width="152" height="232" viewBox="0 0 152 232" fill="none" xmlns="http://www.w3.org/2000/svg">
<g opacity="0.2" clip-path="url(#clip0_194_369)">
<path d="M64.532 146.786L52.6103 164.064L60.1847 161.933L65.1635 171.275L70.1315 153.963L64.532 146.786Z" fill="#E14A4A"/>
<path d="M58.1046 139.624L39.9655 134.671L46.3453 139.351L41.603 142.421L64.1974 146.627L58.1046 139.624Z" fill="#E14A4A"/>
<path d="M153.702 143.765C118.424 151.554 85.6793 135.954 69.5033 103.649C78.5771 84.6036 87.6509 65.5585 96.884 46.1793C124.95 59.5512 153.017 72.9232 181.083 86.2952C171.85 105.674 162.776 124.72 153.702 143.765Z" fill="#3A5569"/>
<path d="M64.8238 31.7247L127.377 100.065L213.127 99.9228L153.167 37.328L64.8238 31.7247Z" fill="#637888"/>
<path d="M198.831 131.649C198.163 131.33 197.813 130.344 198.132 129.675L211.822 100.941C212.777 98.9361 210.597 97.4875 210.422 96.9945L140.988 67.1925C140.32 66.8742 139.969 65.8876 140.288 65.2191C140.606 64.5507 141.593 64.2009 142.261 64.5193L212.03 94.4805C213.542 95.6107 216.246 98.5389 214.495 102.214L200.805 130.949C200.486 131.617 199.5 131.967 198.831 131.649Z" fill="#3A5569"/>
<path d="M132.367 205.754C132.367 205.754 120.257 213.103 104.075 206.623C104.075 206.623 67.6035 134.311 26.1721 114.572C26.1721 114.572 30.6767 107.698 41.2898 108.655L100.696 159.507L132.367 205.754Z" fill="#C2C6C6"/>
<path d="M141.374 200.616C130.456 209.764 116.883 209.856 111.411 200.69C105.78 191.857 109.968 177.044 120.885 167.897C131.803 158.749 145.376 158.657 150.848 167.823C156.479 176.656 152.292 191.469 141.374 200.616Z" fill="#E5EAE9"/>
<path d="M133.949 175.76C140.95 178.276 137.558 191.418 125.799 191.145L105.722 171.331C105.722 171.331 127.282 173.404 133.949 175.76Z" fill="#888C8C"/>
<path d="M124.617 207.392C124.617 207.392 105.46 201.134 117.557 184.349C120.295 180.324 126.152 174.915 133.948 175.76L107.268 156.899L104.047 187.752L111.412 200.69C111.078 200.531 114.863 208.074 124.617 207.392Z" fill="#BABABA"/>
<path d="M120.886 167.897C128.541 161.295 137.612 159.467 144.453 162.317C88.9733 135.064 50.7311 82.816 50.7311 82.816C50.7311 82.816 43.333 76.8315 34.595 87.4272C24.5521 99.0412 29.674 107.221 29.674 107.221C71.1527 129.443 102.313 183.646 110.553 199.051C106.068 189.535 110.621 176.535 120.886 167.897Z" fill="#E0E0DF"/>
<path d="M99.3643 133.045C99.3643 133.045 67.7468 133.15 72.3406 157.067L61.157 143.539C61.157 143.539 63.739 122.631 87.9253 123.495L99.3643 133.045Z" fill="#F16D6E"/>
</g>
<defs>
<clipPath id="clip0_194_369">
<rect width="173.951" height="173.951" fill="white" transform="translate(74.8203) rotate(25.4751)"/>
</clipPath>
</defs>
</svg>
