<svg width="1920" height="600" viewBox="0 0 1920 600" fill="none" xmlns="http://www.w3.org/2000/svg">
<g clip-path="url(#clip0_767_2439)">
<rect width="1920" height="600" fill="url(#paint0_radial_767_2439)"/>
<g clip-path="url(#clip1_767_2439)">
<path d="M1877.24 86.6931C1873.65 84.4483 1869.32 83.7199 1865.2 84.6684C1861.07 85.6168 1857.5 88.1643 1855.25 91.7505L1852.43 96.2577L1820.88 76.5076C1817.29 74.2627 1812.96 73.5344 1808.84 74.4828C1804.72 75.4312 1801.14 77.9788 1798.89 81.5649L1753.75 153.68C1751.5 157.267 1750.78 161.598 1751.73 165.721C1752.67 169.844 1755.22 173.421 1758.81 175.666L1875.99 249.024C1879.58 251.269 1883.91 251.997 1888.04 251.049C1892.16 250.1 1895.74 247.553 1897.98 243.966L1943.12 171.851C1945.37 168.265 1946.1 163.934 1945.15 159.811C1944.2 155.687 1941.65 152.11 1938.07 149.865L1906.52 130.115L1909.34 125.608C1911.58 122.022 1912.31 117.691 1911.36 113.567C1910.41 109.444 1907.87 105.867 1904.28 103.622L1877.24 86.6931ZM1871.59 95.7076L1898.64 112.636C1899.83 113.385 1900.68 114.577 1901 115.951C1901.31 117.326 1901.07 118.769 1900.32 119.965L1897.5 124.472L1861.44 101.901L1864.27 97.3933C1865.01 96.198 1866.21 95.3488 1867.58 95.0326C1868.95 94.7165 1870.4 94.9593 1871.59 95.7076V95.7076ZM1849.58 168.676L1919.15 190.105L1888.97 238.324C1888.22 239.519 1887.03 240.368 1885.65 240.684C1884.28 241 1882.83 240.758 1881.64 240.009L1764.45 166.652C1763.25 165.904 1762.41 164.711 1762.09 163.337C1761.77 161.962 1762.02 160.519 1762.76 159.323L1792.95 111.096L1842.62 164.32C1844.52 166.354 1846.92 167.856 1849.58 168.676V168.676ZM1815.24 85.522L1932.42 158.879C1933.62 159.628 1934.47 160.82 1934.78 162.195C1935.1 163.569 1934.86 165.013 1934.11 166.208L1924.99 180.775L1852.71 158.518C1851.83 158.244 1851.02 157.742 1850.39 157.062L1798.79 101.775L1807.91 87.2078C1808.66 86.0124 1809.85 85.1632 1811.22 84.8471C1812.6 84.531 1814.04 84.7737 1815.24 85.522V85.522Z" fill="white" fill-opacity="0.15"/>
</g>
<g clip-path="url(#clip2_767_2439)">
<path d="M49.8759 4.02508L-14.2315 76.28L86.8622 73.9899L114.879 34.8156L73.3784 42.7791C72.8292 43.5209 72.1212 44.1306 71.3063 44.5637C69.8532 45.3318 68.1546 45.4913 66.584 45.007C65.0134 44.5227 63.6995 43.4343 62.9314 41.9813C62.1632 40.5282 62.0038 38.8296 62.4881 37.259C62.9724 35.6884 64.0607 34.3745 65.5138 33.6064L66.1648 37.0308L73.5445 35.6281C73.5488 35.634 73.5531 35.6399 73.5574 35.6458L84.438 33.5587L146.442 21.7743L148.641 25.9333C148.169 26.825 147.921 27.8187 147.92 28.8278C147.919 29.8369 148.165 30.831 148.635 31.7237C149.119 32.6358 149.822 33.4126 150.682 33.9837C151.542 34.5548 152.531 34.9021 153.559 34.994C156.048 45.7373 167.349 67.1233 171.805 75.5526C179.165 76.2157 179.234 76.3459 182.762 69.7601C178.307 61.3319 167.002 39.9532 159.525 31.8443C160.028 30.9424 160.298 29.9289 160.309 28.8962C160.321 27.8635 160.075 26.8441 159.592 25.9309C159.12 25.0378 158.437 24.2737 157.602 23.7052C156.767 23.1366 155.805 22.7809 154.801 22.6689L150.2 13.9646L126.582 18.4531L145.686 -8.25917L49.8759 4.02508ZM32.0303 83.289L41.7899 112.626C51.3722 109.06 64.8476 108.602 77.9601 109.552C85.4176 110.092 92.7009 111.162 98.9375 112.639C102.75 113.542 106.086 114.578 108.969 115.808C109.576 112.732 110.599 109.392 112 105.734C114.292 99.7486 117.508 93.1276 121.262 86.6606C127.862 75.2902 135.829 64.4129 144.172 58.5028L125.425 33.9168L123.285 35.0481L90.5053 80.8813L34.1703 82.1577L32.0303 83.289Z" fill="white" fill-opacity="0.15"/>
</g>
<g opacity="0.25" clip-path="url(#clip3_767_2439)">
<path d="M76.1101 536.111H87.3879V547.389H76.1101V536.111Z" fill="white"/>
<path d="M98.6646 536.111H109.942V547.389H98.6646V536.111Z" fill="white"/>
<path d="M121.22 536.111H132.498V547.389H121.22V536.111Z" fill="white"/>
<path d="M76.1101 564.305H87.3879V575.583H76.1101V564.305Z" fill="white"/>
<path d="M98.6646 564.305H109.942V575.583H98.6646V564.305Z" fill="white"/>
<path d="M121.22 564.305H132.498V575.583H121.22V564.305Z" fill="white"/>
<path d="M76.1101 592.5H87.3879V603.778H76.1101V592.5Z" fill="white"/>
<path d="M98.6646 592.5H109.942V603.778H98.6646V592.5Z" fill="white"/>
<path d="M121.22 592.5H132.498V603.778H121.22V592.5Z" fill="white"/>
<path d="M160.696 592.5H171.973V603.778H160.696V592.5Z" fill="white"/>
<path d="M183.25 592.5H194.528V603.778H183.25V592.5Z" fill="white"/>
<path d="M143.777 665.806H126.86V648.889H81.7489V665.806H64.8322V519.871C64.8322 519.782 64.8497 519.694 64.8837 519.612C64.9177 519.53 64.9676 519.455 65.0304 519.393C65.0932 519.33 65.1678 519.28 65.2499 519.246C65.332 519.212 65.42 519.194 65.5089 519.194H143.1C143.189 519.194 143.277 519.212 143.359 519.246C143.441 519.28 143.516 519.33 143.578 519.393C143.641 519.455 143.691 519.53 143.725 519.612C143.759 519.694 143.777 519.782 143.777 519.871V537.464L155.054 518.236C154.657 515.356 153.224 512.721 151.024 510.821C148.823 508.922 146.007 507.889 143.1 507.917H65.5089C62.3384 507.917 59.2977 509.176 57.0558 511.418C54.8139 513.66 53.5544 516.701 53.5544 519.871V677.083H155.054V577.726C150.966 577.479 147.042 576.027 143.777 573.553V665.806Z" fill="white"/>
<path d="M205.807 577.839V665.806H160.696V677.083H217.084V577.839H205.807Z" fill="white"/>
<path d="M182.402 497.428L150.147 553.028C149.397 554.129 148.966 555.417 148.903 556.748C148.839 558.079 149.146 559.402 149.788 560.57C150.43 561.738 151.383 562.705 152.542 563.364C153.7 564.024 155.018 564.349 156.35 564.306H220.915C222.247 564.349 223.566 564.024 224.724 563.364C225.882 562.705 226.835 561.738 227.478 560.57C228.12 559.402 228.426 558.079 228.363 556.748C228.299 555.417 227.869 554.129 227.118 553.028L194.864 497.428C194.228 496.34 193.318 495.438 192.225 494.811C191.131 494.184 189.893 493.854 188.633 493.854C187.372 493.854 186.134 494.184 185.041 494.811C183.948 495.438 183.038 496.34 182.402 497.428V497.428Z" fill="white"/>
</g>
</g>
<defs>
<radialGradient id="paint0_radial_767_2439" cx="0" cy="0" r="1" gradientUnits="userSpaceOnUse" gradientTransform="translate(960 300) rotate(90) scale(537 1718.4)">
<stop stop-color="#FF9344"/>
<stop offset="1" stop-color="#FF54D9"/>
</radialGradient>
<clipPath id="clip0_767_2439">
<rect width="1920" height="600" fill="white"/>
</clipPath>
<clipPath id="clip1_767_2439">
<rect width="170.159" height="170.159" fill="white" transform="translate(1824.29 41) rotate(32.0459)"/>
</clipPath>
<clipPath id="clip2_767_2439">
<rect width="198.307" height="198.307" fill="white" transform="translate(-54 19.6797) rotate(-27.8628)"/>
</clipPath>
<clipPath id="clip3_767_2439">
<rect width="203" height="203" fill="white" transform="translate(31 491)"/>
</clipPath>
</defs>
</svg>
