<svg width="31" height="14" viewBox="0 0 31 14" fill="none" xmlns="http://www.w3.org/2000/svg">
<path d="M0.873134 6.42084C0.875232 6.2704 0.859669 6.12025 0.826766 5.97344C0.80006 5.84495 0.728548 5.73013 0.625 5.64949L1.43958 5.52417V7.93032C1.43885 7.93551 1.43934 7.9408 1.441 7.94577C1.44266 7.95074 1.44546 7.95525 1.44916 7.95896C1.45287 7.96267 1.45738 7.96546 1.46235 7.96712C1.46732 7.96879 1.47261 7.96927 1.4778 7.96854C1.49347 7.96854 1.52919 7.93658 1.58558 7.87204C1.65283 7.79683 1.72573 7.72687 1.80364 7.66276C1.90258 7.58114 2.01041 7.51094 2.12508 7.45347C2.25703 7.38735 2.40298 7.35403 2.55054 7.35635C2.75717 7.34948 2.96075 7.40756 3.13266 7.5224C3.28948 7.6324 3.41826 7.7777 3.50862 7.94661C3.60551 8.12578 3.6752 8.31838 3.7154 8.51807C3.75751 8.71982 3.77851 8.92541 3.77806 9.13151C3.77957 9.37907 3.74753 9.62568 3.68281 9.86463C3.62493 10.0845 3.52631 10.2915 3.39207 10.4749C3.26021 10.6513 3.08842 10.7939 2.89079 10.891C2.66458 10.9993 2.41589 11.0523 2.16518 11.0458C2.05272 11.0465 1.94034 11.04 1.8287 11.0264C1.72719 11.0138 1.62631 10.9994 1.52731 10.9837C1.4283 10.9681 1.32366 10.9543 1.214 10.9418C1.09085 10.928 0.966981 10.9215 0.843057 10.9223C0.851829 10.5982 0.858304 10.2755 0.862482 9.95424C0.866659 9.633 0.868748 9.31051 0.868748 8.98677L0.873134 6.42084ZM3.11699 8.76996C3.08703 8.60825 3.03561 8.45125 2.9641 8.30314C2.89979 8.1699 2.80515 8.05359 2.68777 7.96353C2.57 7.87501 2.42589 7.82866 2.2786 7.83194C2.15534 7.82632 2.03275 7.85288 1.92288 7.90903C1.81301 7.96517 1.71965 8.04895 1.652 8.15213C1.50663 8.36643 1.43394 8.65884 1.43394 9.02937V9.62402C1.43361 9.77052 1.44114 9.91694 1.4565 10.0626C1.46862 10.1889 1.50365 10.3118 1.55989 10.4254C1.61339 10.5278 1.69432 10.6133 1.79361 10.6723C1.92302 10.7407 2.06853 10.7727 2.21469 10.7651C2.38545 10.7722 2.55372 10.7222 2.69278 10.6228C2.81793 10.5273 2.91776 10.4025 2.98353 10.2594C3.0542 10.1064 3.10191 9.94382 3.12514 9.77691C3.14973 9.61093 3.1625 9.44342 3.16336 9.27563C3.16395 9.10599 3.14843 8.93667 3.11699 8.76996Z" fill="#231F20"/>
<path d="M4.72004 7.02055C4.72004 6.84635 4.71377 6.66819 4.70124 6.48606C4.69286 6.31828 4.64174 6.15543 4.55273 6.01297H5.58036C5.49116 6.15516 5.43982 6.3178 5.43123 6.48543C5.4187 6.66714 5.4118 6.84447 5.4118 7.01867V8.21673C5.51608 8.19575 5.61409 8.15093 5.69816 8.08577C5.80648 8.00667 5.90869 7.91953 6.00394 7.8251C6.10796 7.72234 6.21135 7.61143 6.31348 7.49112C6.41562 7.37082 6.51399 7.25427 6.61112 7.14148C6.81998 6.89585 6.9852 6.69367 7.10676 6.53493C7.22832 6.37619 7.28952 6.25087 7.29035 6.15897V6.07438C7.29111 6.05323 7.28857 6.03209 7.28283 6.01172H8.22963C8.05167 6.17088 7.88458 6.31708 7.72835 6.45034C7.55741 6.59914 7.39566 6.75817 7.24398 6.92656L6.06096 8.21673L7.32858 10.0414C7.43008 10.1905 7.54204 10.3407 7.66443 10.4919C7.78683 10.6431 7.90651 10.7856 8.02348 10.9193H7.22143C7.16003 10.923 7.09964 10.9023 7.0535 10.8616C7.00708 10.8165 6.96627 10.7661 6.93194 10.7112L5.55718 8.61775C5.54004 8.58938 5.52077 8.56236 5.49953 8.53692C5.47697 8.50872 5.45817 8.49431 5.44313 8.49431C5.43984 8.49405 5.43653 8.49445 5.43339 8.49548C5.43025 8.49651 5.42735 8.49815 5.42484 8.5003C5.42234 8.50245 5.42028 8.50508 5.4188 8.50803C5.41732 8.51098 5.41643 8.5142 5.41619 8.51749C5.41315 8.53276 5.41168 8.5483 5.4118 8.56386V9.91043C5.4118 10.0852 5.4187 10.2638 5.43123 10.4462C5.43971 10.614 5.49106 10.7769 5.58036 10.9193H4.55273C4.642 10.7769 4.69314 10.614 4.70124 10.4462C4.71377 10.2645 4.72004 10.0865 4.72004 9.91231V7.02055Z" fill="#231F20"/>
<path d="M10.3426 10.9706C10.3134 10.8568 10.2925 10.741 10.28 10.6241C10.2725 10.537 10.2537 10.4938 10.2236 10.4938C10.2079 10.4938 10.1979 10.4938 10.1929 10.5013C10.1876 10.506 10.1825 10.511 10.1778 10.5163C10.1265 10.5884 10.0763 10.6567 10.0281 10.7206C9.97894 10.7851 9.92068 10.8421 9.85514 10.8898C9.78284 10.9414 9.70233 10.9804 9.61703 11.0051C9.50714 11.0357 9.39335 11.0501 9.27929 11.0477C9.03605 11.0549 8.79767 10.9786 8.60381 10.8315C8.41959 10.6878 8.32748 10.4748 8.32748 10.1924C8.32254 10.0342 8.37259 9.87919 8.46909 9.75376C8.56817 9.62866 8.68714 9.5207 8.82124 9.43419C8.96438 9.34001 9.11556 9.25865 9.27302 9.19107C9.43406 9.12214 9.57755 9.05635 9.70538 8.99495C9.81253 8.94294 9.90213 8.8997 9.97356 8.86336C10.0372 8.83268 10.0944 8.79015 10.1421 8.73804C10.184 8.68918 10.2129 8.63057 10.2261 8.5676C10.2434 8.47043 10.2512 8.37179 10.2493 8.2731C10.2549 8.10257 10.2097 7.93421 10.1196 7.78937C10.0331 7.65778 9.87769 7.59199 9.65337 7.59199C9.4704 7.59199 9.34007 7.63084 9.27177 7.70728C9.20241 7.78168 9.14682 7.86782 9.1076 7.96168C9.07202 8.04919 9.03013 8.134 8.98228 8.21545C8.93654 8.29253 8.85257 8.33075 8.73164 8.33075C8.65756 8.33592 8.58416 8.31361 8.52549 8.26809C8.49827 8.24207 8.47726 8.21025 8.46402 8.17499C8.45079 8.13973 8.44567 8.10195 8.44904 8.06444C8.44779 8.00403 8.45862 7.94398 8.48089 7.88781C8.50317 7.83164 8.53644 7.78049 8.57875 7.73736C8.67234 7.64292 8.78401 7.56833 8.90709 7.51805C9.04755 7.45961 9.19498 7.4196 9.34571 7.39899C9.49862 7.37645 9.65295 7.36493 9.80751 7.36453C9.93771 7.36393 10.0678 7.37294 10.1966 7.39147C10.3079 7.40622 10.416 7.43881 10.5168 7.48797C10.6106 7.53253 10.6889 7.60402 10.7418 7.69331C10.7947 7.7826 10.8198 7.88563 10.8138 7.98925V9.68671C10.8138 9.91772 10.8201 10.1427 10.8326 10.3616C10.8404 10.5657 10.9084 10.763 11.0281 10.9286L10.3426 10.9706ZM9.13141 10.4775C9.2529 10.5712 9.4036 10.6189 9.55687 10.6122C9.66118 10.6142 9.7642 10.5889 9.85576 10.5389C9.94169 10.4916 10.0163 10.4262 10.0744 10.3471C10.1346 10.2653 10.1789 10.1728 10.2048 10.0746C10.233 9.97253 10.2473 9.86715 10.2474 9.76128V8.98492L9.8332 9.1942C9.68971 9.26564 9.56439 9.33143 9.45724 9.3897C9.36029 9.44156 9.26894 9.50329 9.18467 9.57392C9.11455 9.63278 9.05828 9.70638 9.01988 9.78947C8.98221 9.87773 8.96384 9.97301 8.96599 10.0689C8.96599 10.2513 9.02113 10.3885 9.13141 10.4775Z" fill="#231F20"/>
<path d="M12.272 8.44594C12.3547 8.55237 12.4539 8.64483 12.5659 8.71977C12.6881 8.80259 12.8156 8.87732 12.9475 8.94346C13.0821 9.01122 13.21 9.09135 13.3297 9.18282C13.4444 9.27025 13.5437 9.37613 13.6236 9.49612C13.7069 9.63006 13.7482 9.7859 13.742 9.94352C13.7463 10.112 13.7054 10.2786 13.6236 10.426C13.545 10.5616 13.4381 10.6787 13.3103 10.7694C13.1772 10.8637 13.0288 10.9342 12.8717 10.978C12.7139 11.024 12.5504 11.0474 12.3861 11.0476C12.2409 11.0483 12.096 11.034 11.9537 11.005C11.8115 10.9751 11.6721 10.9332 11.537 10.8797C11.5022 10.8678 11.4699 10.8496 11.4418 10.8258C11.4284 10.8098 11.4185 10.7913 11.4126 10.7714C11.4066 10.7514 11.4049 10.7305 11.4073 10.7099C11.4073 10.6171 11.4124 10.5245 11.4224 10.4323C11.4324 10.3389 11.4405 10.2443 11.4456 10.1459C11.5082 10.2437 11.5646 10.3301 11.621 10.4072C11.6748 10.4816 11.7394 10.5475 11.8127 10.6027C11.8854 10.658 11.967 10.7004 12.054 10.728C12.1596 10.7589 12.2692 10.7732 12.3792 10.7706C12.6092 10.7706 12.7871 10.7167 12.9118 10.609C13.0365 10.5012 13.0998 10.3364 13.0998 10.1152C13.1045 9.97709 13.0657 9.84098 12.9889 9.72609C12.9126 9.61839 12.8185 9.52451 12.7107 9.4485C12.5936 9.36591 12.4711 9.29118 12.3441 9.22481C12.2148 9.15605 12.0929 9.07439 11.98 8.98106C11.8679 8.89118 11.7734 8.78135 11.7012 8.65711C11.6225 8.51176 11.5842 8.34795 11.5903 8.18277C11.5903 7.89036 11.6935 7.67961 11.8998 7.55053C12.1062 7.42145 12.3898 7.35733 12.7508 7.35816C12.867 7.358 12.9831 7.36701 13.0979 7.38511C13.2128 7.40349 13.3285 7.42542 13.445 7.4509C13.4637 7.45878 13.483 7.46507 13.5027 7.4697C13.5146 7.47178 13.5253 7.47804 13.533 7.48734C13.5407 7.49664 13.5449 7.50838 13.5447 7.52045C13.5447 7.59251 13.5447 7.67773 13.5403 7.77548C13.5359 7.87323 13.534 7.96346 13.529 8.04492C13.4526 7.95218 13.3851 7.87615 13.3266 7.81683C13.2741 7.76188 13.2137 7.715 13.1474 7.67773C13.0878 7.64448 13.0233 7.621 12.9563 7.60818C12.8807 7.59431 12.8038 7.58781 12.727 7.58875C12.5865 7.58678 12.4484 7.62575 12.3297 7.70091C12.2711 7.73954 12.2239 7.79316 12.1931 7.85619C12.1622 7.91922 12.1488 7.98936 12.1542 8.05933C12.1491 8.19776 12.1905 8.33392 12.272 8.44594Z" fill="#231F20"/>
<path d="M17.0613 10.0871C17.0613 10.2308 17.0663 10.3784 17.0763 10.5301C17.0823 10.6662 17.1189 10.7992 17.1835 10.9192H16.4973V8.80317C16.4973 8.67949 16.4911 8.55589 16.4785 8.43285C16.4679 8.31727 16.4365 8.20456 16.3858 8.10013C16.3381 8.00382 16.2665 7.92139 16.1778 7.86076C16.0679 7.79371 15.9404 7.76139 15.8118 7.76803C15.691 7.75893 15.5702 7.78647 15.4653 7.84705C15.3603 7.90764 15.276 7.99845 15.2235 8.10765C15.1674 8.2166 15.1307 8.33449 15.1151 8.45604C15.097 8.5839 15.088 8.71289 15.0881 8.84202V10.0852C15.0881 10.2293 15.0938 10.3772 15.1038 10.5295C15.1099 10.6683 15.1532 10.8029 15.2291 10.9192H14.3876C14.4616 10.8024 14.5035 10.6682 14.5091 10.5301C14.5192 10.3791 14.5248 10.2312 14.5248 10.0877V6.42021C14.5254 6.27097 14.5177 6.12181 14.5016 5.97344C14.497 5.91009 14.479 5.84845 14.4487 5.7926C14.4185 5.73675 14.3767 5.68797 14.3262 5.64949L15.0881 5.52417V7.70286C15.0881 7.73356 15.0881 7.76176 15.0913 7.78745C15.0944 7.81314 15.1013 7.82568 15.1138 7.82568C15.1263 7.82568 15.1589 7.80124 15.2022 7.75236C15.259 7.69225 15.322 7.63828 15.3901 7.59133C15.4847 7.52517 15.587 7.47068 15.6947 7.42904C15.8312 7.37786 15.9762 7.35319 16.122 7.35635C16.414 7.35635 16.644 7.43342 16.8113 7.58757C16.9786 7.74171 17.0619 7.99862 17.0619 8.35829L17.0613 10.0871Z" fill="#231F20"/>
<path d="M16.3281 0.709961L22.8103 1.55525L21.2733 6.93587L16.3281 0.709961Z" fill="#D83868"/>
<path d="M23.0403 1.58081L27.857 7.98592L22.2972 10.6509L21.6079 7.83115C21.6079 7.83115 21.4287 6.80603 21.7107 6.01401L23.0403 1.58081Z" fill="#D83868"/>
<path d="M28.0375 7.93521L26.2441 5.4238L29.2675 4.91187L28.0375 7.93521Z" fill="#B11116"/>
<path d="M29.4969 4.91187L30.6242 6.11556H28.9844L29.4969 4.91187Z" fill="#B11116"/>
<path d="M23.2715 10.4711L27.8576 8.19092L27.7041 8.72917L23.2715 10.4711Z" fill="#D93B2B"/>
<path d="M21.2733 7.49902L19.3516 13.9555L22.2721 11.6496L21.2733 7.49902Z" fill="#9E0B0F"/>
<path d="M18.8392 4.16885L16.9688 1.78589L16.252 1.81158L18.8392 4.16885Z" fill="#B11116"/>
<path d="M21.5664 7.47656C21.5827 7.69211 21.6071 7.83247 21.6071 7.83247L22.2964 10.6522L27.8562 7.98724L27.8055 7.91957L21.5664 7.47656Z" fill="#C4161C"/>
</svg>
