<svg width="1440" height="1024" viewBox="0 0 1440 1024" fill="none" xmlns="http://www.w3.org/2000/svg">
<g clip-path="url(#clip0_1807_17207)">
<rect width="1440" height="1024" fill="white"/>
<g opacity="0.75">
<path d="M-51.2686 691.316L284.094 1049.04" stroke="url(#paint0_linear_1807_17207)" stroke-miterlimit="10"/>
<path d="M-33.2969 694.339L302.066 1052.06" stroke="url(#paint1_linear_1807_17207)" stroke-miterlimit="10"/>
<path d="M-25.0322 685.521L310.331 1043.24" stroke="url(#paint2_linear_1807_17207)" stroke-miterlimit="10"/>
<path d="M-16.7842 676.724L318.579 1034.44" stroke="url(#paint3_linear_1807_17207)" stroke-miterlimit="10"/>
<path d="M142.645 693.767L122.576 672.361V650.937L142.645 672.361V693.767Z" fill="url(#paint4_linear_1807_17207)"/>
<path d="M142.645 693.767L162.713 672.361V650.937L142.645 672.361V693.767Z" fill="url(#paint5_linear_1807_17207)"/>
<path d="M142.645 757.002L122.576 735.596V714.189L142.645 735.596V757.002Z" fill="url(#paint6_linear_1807_17207)"/>
<path d="M142.645 757.002L162.713 735.596V714.189L142.645 735.596V757.002Z" fill="url(#paint7_linear_1807_17207)"/>
<path d="M142.645 820.238L122.576 798.832V777.426L142.645 798.832V820.238Z" fill="url(#paint8_linear_1807_17207)"/>
<path d="M142.645 820.238L162.713 798.832V777.426L142.645 798.832V820.238Z" fill="url(#paint9_linear_1807_17207)"/>
<path d="M139.356 282.235H14.251V148.646L139.356 282.235Z" fill="white"/>
<path d="M280.272 0H0.000976562V282.235H14.2518L255.258 24.5002L280.272 0Z" fill="#15577A"/>
<path d="M139.222 15.2012H14.251V148.79H139.222V15.2012Z" fill="url(#paint10_linear_1807_17207)"/>
<path d="M14.251 148.79V15.2012C60.4738 15.2012 83.6104 74.8063 50.9342 109.661L14.251 148.79Z" fill="url(#paint11_linear_1807_17207)"/>
<path d="M139.29 15.2012V148.79C93.0674 148.79 69.9308 89.1845 102.607 54.3299L139.29 15.2012Z" fill="white"/>
<path d="M159.928 282.235H0.000976562V440.878H159.928V282.235Z" fill="url(#paint12_linear_1807_17207)"/>
<path d="M159.928 282.235H14.251V361.566H159.928V282.235Z" fill="url(#paint13_linear_1807_17207)"/>
<path d="M264.461 15.3447V130.227L121.953 282.236H14.251L22.9523 272.954L264.461 15.3447Z" fill="url(#paint14_linear_1807_17207)"/>
<path d="M264.461 15.3447V130.209H372.13L264.461 15.3447Z" fill="#15577A"/>
<path d="M318.381 72.7145V15.3447H264.613L318.381 72.7145Z" fill="url(#paint15_linear_1807_17207)"/>
<path d="M14.2529 327.496C31.1695 327.496 44.8837 342.769 44.8837 361.564C44.8837 380.36 31.1527 395.596 14.2529 395.596V440.877C53.6522 440.877 85.5739 405.343 85.5739 361.546C85.5739 317.75 53.6522 282.216 14.2529 282.216V327.461V327.496Z" fill="url(#paint16_linear_1807_17207)"/>
<path d="M14.4033 327.496C31.3198 327.496 45.0341 342.769 45.0341 361.564C45.0341 380.359 31.3031 395.596 14.4033 395.596V419.184C43.039 419.184 66.2259 393.361 66.2259 361.546C66.2259 329.732 43.039 303.908 14.4033 303.908V327.461V327.496Z" fill="white"/>
<path d="M264.463 130.208L246.658 149.2L224.36 172.985C242.165 191.977 242.165 222.826 224.36 241.818C206.538 260.81 177.651 260.792 159.846 241.8L137.514 265.621L119.709 284.613C159.678 327.265 224.494 327.247 264.463 284.613C304.449 241.961 304.449 172.86 264.463 130.208Z" fill="url(#paint17_linear_1807_17207)"/>
<path d="M246.659 149.2L224.361 172.985C242.166 191.977 242.166 222.826 224.361 241.818C206.539 260.81 177.652 260.792 159.846 241.8L137.515 265.621C167.693 297.811 216.531 297.757 246.659 265.621C276.804 233.466 276.804 181.354 246.659 149.2Z" fill="#105472"/>
<path d="M181.12 104.456L139.29 59.8191V15.2002L181.12 59.8191V104.456Z" fill="url(#paint18_linear_1807_17207)"/>
<path d="M181.12 104.456L222.967 59.8191V15.2002L181.12 59.8191V104.456Z" fill="url(#paint19_linear_1807_17207)"/>
<path d="M133.204 332.899C112.716 354.752 85.7236 361.422 85.7236 361.422C85.7236 361.422 91.9605 332.648 112.465 310.777C132.952 288.923 159.945 282.253 159.945 282.253C159.945 282.253 153.708 311.027 133.204 332.899Z" fill="white"/>
<path d="M112.448 412.068C132.936 433.921 159.928 440.591 159.928 440.591C159.928 440.591 153.692 411.817 133.187 389.946C112.7 368.092 85.707 361.422 85.707 361.422C85.707 361.422 91.9438 390.196 112.448 412.068Z" fill="url(#paint20_linear_1807_17207)"/>
<path d="M196.357 323.403C196.357 324.816 195.284 325.979 193.96 325.979C192.635 325.979 191.562 324.834 191.562 323.403C191.562 321.973 192.635 320.828 193.96 320.828C195.284 320.828 196.357 321.973 196.357 323.403Z" fill="url(#paint21_linear_1807_17207)"/>
<path d="M196.357 357.954C196.357 359.367 195.284 360.529 193.96 360.529C192.635 360.529 191.562 359.385 191.562 357.954C191.562 356.523 192.635 355.379 193.96 355.379C195.284 355.379 196.357 356.523 196.357 357.954Z" fill="url(#paint22_linear_1807_17207)"/>
<path d="M196.357 392.504C196.357 393.917 195.284 395.079 193.96 395.079C192.635 395.079 191.562 393.935 191.562 392.504C191.562 391.073 192.635 389.929 193.96 389.929C195.284 389.929 196.357 391.073 196.357 392.504Z" fill="url(#paint23_linear_1807_17207)"/>
<path d="M196.357 427.038C196.357 428.451 195.284 429.613 193.96 429.613C192.635 429.613 191.562 428.469 191.562 427.038C191.562 425.607 192.635 424.463 193.96 424.463C195.284 424.463 196.357 425.607 196.357 427.038Z" fill="url(#paint24_linear_1807_17207)"/>
<path d="M196.357 461.587C196.357 463 195.284 464.162 193.96 464.162C192.635 464.162 191.562 463.018 191.562 461.587C191.562 460.156 192.635 459.012 193.96 459.012C195.284 459.012 196.357 460.156 196.357 461.587Z" fill="url(#paint25_linear_1807_17207)"/>
<path d="M193.976 498.714C195.3 498.714 196.373 497.561 196.373 496.139C196.373 494.716 195.3 493.563 193.976 493.563C192.652 493.563 191.578 494.716 191.578 496.139C191.578 497.561 192.652 498.714 193.976 498.714Z" fill="url(#paint26_linear_1807_17207)"/>
<path d="M230.308 323.403C230.308 324.816 229.235 325.979 227.927 325.979C226.619 325.979 225.529 324.834 225.529 323.403C225.529 321.973 226.602 320.828 227.927 320.828C229.251 320.828 230.308 321.973 230.308 323.403Z" fill="url(#paint27_linear_1807_17207)"/>
<path d="M230.308 357.954C230.308 359.367 229.235 360.529 227.927 360.529C226.619 360.529 225.529 359.385 225.529 357.954C225.529 356.523 226.602 355.379 227.927 355.379C229.251 355.379 230.308 356.523 230.308 357.954Z" fill="url(#paint28_linear_1807_17207)"/>
<path d="M230.308 392.504C230.308 393.917 229.235 395.079 227.927 395.079C226.619 395.079 225.529 393.935 225.529 392.504C225.529 391.073 226.602 389.929 227.927 389.929C229.251 389.929 230.308 391.073 230.308 392.504Z" fill="url(#paint29_linear_1807_17207)"/>
<path d="M230.308 427.038C230.308 428.451 229.235 429.613 227.927 429.613C226.619 429.613 225.529 428.469 225.529 427.038C225.529 425.607 226.602 424.463 227.927 424.463C229.251 424.463 230.308 425.607 230.308 427.038Z" fill="url(#paint30_linear_1807_17207)"/>
<path d="M230.308 461.587C230.308 463 229.235 464.162 227.927 464.162C226.619 464.162 225.529 463.018 225.529 461.587C225.529 460.156 226.602 459.012 227.927 459.012C229.251 459.012 230.308 460.156 230.308 461.587Z" fill="url(#paint31_linear_1807_17207)"/>
<path d="M230.308 496.139C230.308 497.551 229.235 498.714 227.927 498.714C226.619 498.714 225.529 497.569 225.529 496.139C225.529 494.708 226.602 493.563 227.927 493.563C229.251 493.563 230.308 494.708 230.308 496.139Z" fill="url(#paint32_linear_1807_17207)"/>
<path d="M264.275 323.403C264.275 324.816 263.202 325.979 261.878 325.979C260.553 325.979 259.48 324.834 259.48 323.403C259.48 321.973 260.553 320.828 261.878 320.828C263.202 320.828 264.275 321.973 264.275 323.403Z" fill="url(#paint33_linear_1807_17207)"/>
<path d="M264.275 357.954C264.275 359.367 263.202 360.529 261.878 360.529C260.553 360.529 259.48 359.385 259.48 357.954C259.48 356.523 260.553 355.379 261.878 355.379C263.202 355.379 264.275 356.523 264.275 357.954Z" fill="url(#paint34_linear_1807_17207)"/>
<path d="M264.275 392.504C264.275 393.917 263.202 395.079 261.878 395.079C260.553 395.079 259.48 393.935 259.48 392.504C259.48 391.073 260.553 389.929 261.878 389.929C263.202 389.929 264.275 391.073 264.275 392.504Z" fill="url(#paint35_linear_1807_17207)"/>
<path d="M264.275 427.038C264.275 428.451 263.202 429.613 261.878 429.613C260.553 429.613 259.48 428.469 259.48 427.038C259.48 425.607 260.553 424.463 261.878 424.463C263.202 424.463 264.275 425.607 264.275 427.038Z" fill="url(#paint36_linear_1807_17207)"/>
<path d="M264.275 461.587C264.275 463 263.202 464.162 261.878 464.162C260.553 464.162 259.48 463.018 259.48 461.587C259.48 460.156 260.553 459.012 261.878 459.012C263.202 459.012 264.275 460.156 264.275 461.587Z" fill="url(#paint37_linear_1807_17207)"/>
<path d="M261.878 498.714C263.202 498.714 264.275 497.561 264.275 496.139C264.275 494.716 263.202 493.563 261.878 493.563C260.554 493.563 259.48 494.716 259.48 496.139C259.48 497.561 260.554 498.714 261.878 498.714Z" fill="url(#paint38_linear_1807_17207)"/>
<path d="M298.227 323.403C298.227 324.816 297.154 325.979 295.83 325.979C294.505 325.979 293.449 324.834 293.449 323.403C293.449 321.973 294.522 320.828 295.83 320.828C297.138 320.828 298.227 321.973 298.227 323.403Z" fill="url(#paint39_linear_1807_17207)"/>
<path d="M298.227 357.954C298.227 359.367 297.154 360.529 295.83 360.529C294.505 360.529 293.449 359.385 293.449 357.954C293.449 356.523 294.522 355.379 295.83 355.379C297.138 355.379 298.227 356.523 298.227 357.954Z" fill="url(#paint40_linear_1807_17207)"/>
<path d="M298.227 392.504C298.227 393.917 297.154 395.079 295.83 395.079C294.505 395.079 293.449 393.935 293.449 392.504C293.449 391.073 294.522 389.929 295.83 389.929C297.138 389.929 298.227 391.073 298.227 392.504Z" fill="url(#paint41_linear_1807_17207)"/>
<path d="M298.227 427.038C298.227 428.451 297.154 429.613 295.83 429.613C294.505 429.613 293.449 428.469 293.449 427.038C293.449 425.607 294.522 424.463 295.83 424.463C297.138 424.463 298.227 425.607 298.227 427.038Z" fill="url(#paint42_linear_1807_17207)"/>
<path d="M298.227 461.587C298.227 463 297.154 464.162 295.83 464.162C294.505 464.162 293.449 463.018 293.449 461.587C293.449 460.156 294.522 459.012 295.83 459.012C297.138 459.012 298.227 460.156 298.227 461.587Z" fill="url(#paint43_linear_1807_17207)"/>
<path d="M298.227 496.139C298.227 497.551 297.154 498.714 295.83 498.714C294.505 498.714 293.449 497.569 293.449 496.139C293.449 494.708 294.522 493.563 295.83 493.563C297.138 493.563 298.227 494.708 298.227 496.139Z" fill="url(#paint44_linear_1807_17207)"/>
<path d="M87.0314 440.895H0.000976562V590.667H87.0314V440.895Z" fill="url(#paint45_linear_1807_17207)"/>
<path d="M50.6493 484.406C57.0383 484.406 62.2176 478.881 62.2176 472.066C62.2176 465.251 57.0383 459.727 50.6493 459.727C44.2603 459.727 39.0811 465.251 39.0811 472.066C39.0811 478.881 44.2603 484.406 50.6493 484.406Z" fill="white"/>
<path d="M50.6493 528.114C57.0383 528.114 62.2176 522.589 62.2176 515.774C62.2176 508.959 57.0383 503.435 50.6493 503.435C44.2603 503.435 39.0811 508.959 39.0811 515.774C39.0811 522.589 44.2603 528.114 50.6493 528.114Z" fill="white"/>
<path d="M62.2176 559.479C62.2176 566.293 57.037 571.819 50.6493 571.819C44.2616 571.819 39.0811 566.293 39.0811 559.479C39.0811 552.666 44.2616 547.14 50.6493 547.14C57.037 547.14 62.2176 552.666 62.2176 559.479Z" fill="white"/>
<path d="M159.929 440.896H87.0322V518.653H159.929V440.896Z" fill="url(#paint46_linear_1807_17207)"/>
<path d="M142.643 479.774C142.643 491.058 134.059 500.214 123.48 500.214C112.9 500.214 104.316 491.058 104.316 479.774C104.316 468.489 112.9 459.333 123.48 459.333C134.059 459.333 142.643 468.489 142.643 479.774Z" fill="white"/>
<path d="M159.929 518.651L87.0322 590.668V518.651H159.929Z" fill="url(#paint47_linear_1807_17207)"/>
<path d="M62.3703 1008.33H14.2529V828.731C40.8265 828.731 62.3703 851.712 62.3703 880.057V1008.33Z" fill="url(#paint48_linear_1807_17207)"/>
<path d="M110.488 1008.33H14.2529V905.684C67.4 905.684 110.488 951.644 110.488 1008.33Z" fill="url(#paint49_linear_1807_17207)"/>
<path d="M146.568 918.541V1008.33H62.3711L146.568 918.541Z" fill="url(#paint50_linear_1807_17207)"/>
<path d="M146.566 918.541V1008.33H230.763L146.566 918.541Z" fill="url(#paint51_linear_1807_17207)"/>
<path d="M1297.36 350.404L1317.43 371.829V393.235L1297.36 371.829V350.404Z" fill="url(#paint52_linear_1807_17207)"/>
<path d="M1297.36 350.404L1277.28 371.829V393.235L1297.36 371.829V350.404Z" fill="url(#paint53_linear_1807_17207)"/>
<path d="M1297.36 287.171L1317.43 308.595V330.001L1297.36 308.595V287.171Z" fill="url(#paint54_linear_1807_17207)"/>
<path d="M1297.36 287.171L1277.28 308.595V330.001L1297.36 308.595V287.171Z" fill="url(#paint55_linear_1807_17207)"/>
<path d="M1297.36 223.935L1317.43 245.359V266.765L1297.36 245.359V223.935Z" fill="url(#paint56_linear_1807_17207)"/>
<path d="M1297.36 223.935L1277.28 245.359V266.765L1297.36 245.359V223.935Z" fill="url(#paint57_linear_1807_17207)"/>
<path d="M1300.51 875.19H1425.75V741.745H1300.51V875.19Z" fill="#344868"/>
<path d="M1300.63 741.745H1425.73V875.334L1300.63 741.745Z" fill="white"/>
<path d="M1175.54 1008.78H1425.73V741.745L1184.24 999.48L1175.54 1008.78Z" fill="#15577A"/>
<path d="M1300.78 1023.98H1440V875.173H1300.78V1023.98Z" fill="url(#paint58_linear_1807_17207)"/>
<path d="M1425.73 875.19V1008.78C1379.51 1008.78 1356.37 949.174 1389.05 914.319L1425.73 875.19Z" fill="url(#paint59_linear_1807_17207)"/>
<path d="M1300.71 1008.78V875.19C1346.94 875.19 1370.07 934.796 1337.4 969.65L1300.71 1008.78Z" fill="white"/>
<path d="M1280.06 741.745H1439.99V583.102H1280.06V741.745Z" fill="url(#paint60_linear_1807_17207)"/>
<path d="M1280.06 741.745H1425.74V662.415H1280.06V741.745Z" fill="url(#paint61_linear_1807_17207)"/>
<path d="M1300.63 875.191L1175.53 1008.64V930.469C1175.53 860.831 1254.46 825.94 1300.63 875.191Z" fill="url(#paint62_linear_1807_17207)"/>
<path d="M1175.39 1008.64V893.896H1067.84L1175.39 1008.64Z" fill="#15577A"/>
<path d="M1121.61 951.266V1008.64H1175.39L1121.61 951.266Z" fill="url(#paint63_linear_1807_17207)"/>
<path d="M1425.73 696.482C1408.81 696.482 1395.1 681.21 1395.1 662.414C1395.1 643.619 1408.83 628.382 1425.73 628.382V583.102C1386.33 583.102 1354.41 618.636 1354.41 662.432C1354.41 706.228 1386.33 741.763 1425.73 741.763V696.518V696.482Z" fill="url(#paint64_linear_1807_17207)"/>
<path d="M1425.6 696.482C1408.68 696.482 1394.97 681.209 1394.97 662.414C1394.97 643.619 1408.7 628.382 1425.6 628.382V604.794C1396.96 604.794 1373.78 630.617 1373.78 662.432C1373.78 694.246 1396.96 720.07 1425.6 720.07V696.518V696.482Z" fill="white"/>
<path d="M1207.03 776.422C1207.03 819.485 1239.72 854.339 1280.07 854.339V811.169C1262.1 811.169 1247.5 795.593 1247.5 776.422C1247.5 757.251 1262.1 741.728 1280.07 741.728V698.504C1239.72 698.504 1207.03 733.412 1207.03 776.422Z" fill="url(#paint65_linear_1807_17207)"/>
<path d="M1280.07 741.728V717.657C1249.63 717.657 1224.98 743.999 1224.98 776.422C1224.98 808.844 1249.63 835.187 1280.07 835.187V811.169C1262.1 811.169 1247.5 795.593 1247.5 776.422C1247.5 757.251 1262.1 741.728 1280.07 741.728Z" fill="#105472"/>
<path d="M1258.88 919.541L1300.72 964.16V1008.78L1258.88 964.16V919.541Z" fill="url(#paint66_linear_1807_17207)"/>
<path d="M1258.88 919.541L1217.04 964.16V1008.78L1258.88 964.16V919.541Z" fill="url(#paint67_linear_1807_17207)"/>
<path d="M1306.8 691.083C1327.29 669.229 1354.28 662.559 1354.28 662.559C1354.28 662.559 1348.04 691.333 1327.54 713.204C1307.05 735.058 1280.06 741.728 1280.06 741.728C1280.06 741.728 1286.29 712.954 1306.8 691.083Z" fill="white"/>
<path d="M1327.54 611.912C1307.05 590.058 1280.06 583.388 1280.06 583.388C1280.06 583.388 1286.29 612.162 1306.8 634.033C1327.29 655.887 1354.28 662.557 1354.28 662.557C1354.28 662.557 1348.04 633.783 1327.54 611.912Z" fill="url(#paint68_linear_1807_17207)"/>
<path d="M1243.27 649.825C1243.27 648.663 1244.16 647.715 1245.25 647.715C1246.34 647.715 1247.23 648.663 1247.23 649.825C1247.23 650.987 1246.34 651.935 1245.25 651.935C1244.16 651.935 1243.27 650.987 1243.27 649.825Z" fill="url(#paint69_linear_1807_17207)"/>
<path d="M1243.27 621.356C1243.27 620.194 1244.16 619.246 1245.25 619.246C1246.34 619.246 1247.23 620.194 1247.23 621.356C1247.23 622.519 1246.34 623.467 1245.25 623.467C1244.16 623.467 1243.27 622.519 1243.27 621.356Z" fill="url(#paint70_linear_1807_17207)"/>
<path d="M1243.27 592.884C1243.27 591.721 1244.16 590.773 1245.25 590.773C1246.34 590.773 1247.23 591.721 1247.23 592.884C1247.23 594.046 1246.34 594.994 1245.25 594.994C1244.16 594.994 1243.27 594.046 1243.27 592.884Z" fill="url(#paint71_linear_1807_17207)"/>
<path d="M1243.27 564.395C1243.27 563.233 1244.16 562.285 1245.25 562.285C1246.34 562.285 1247.23 563.233 1247.23 564.395C1247.23 565.558 1246.34 566.506 1245.25 566.506C1244.16 566.506 1243.27 565.558 1243.27 564.395Z" fill="url(#paint72_linear_1807_17207)"/>
<path d="M1243.27 535.927C1243.27 534.764 1244.16 533.816 1245.25 533.816C1246.34 533.816 1247.23 534.764 1247.23 535.927C1247.23 537.089 1246.34 538.037 1245.25 538.037C1244.16 538.037 1243.27 537.089 1243.27 535.927Z" fill="url(#paint73_linear_1807_17207)"/>
<path d="M1243.27 507.456C1243.27 506.294 1244.16 505.346 1245.25 505.346C1246.34 505.346 1247.23 506.294 1247.23 507.456C1247.23 508.618 1246.34 509.566 1245.25 509.566C1244.16 509.566 1243.27 508.618 1243.27 507.456Z" fill="url(#paint74_linear_1807_17207)"/>
<path d="M1215.06 649.825C1215.06 648.663 1215.95 647.715 1217.04 647.715C1218.13 647.715 1219.02 648.663 1219.02 649.825C1219.02 650.987 1218.13 651.935 1217.04 651.935C1215.95 651.935 1215.06 650.987 1215.06 649.825Z" fill="url(#paint75_linear_1807_17207)"/>
<path d="M1217.04 623.467C1218.13 623.467 1219.02 622.522 1219.02 621.356C1219.02 620.191 1218.13 619.246 1217.04 619.246C1215.94 619.246 1215.06 620.191 1215.06 621.356C1215.06 622.522 1215.94 623.467 1217.04 623.467Z" fill="url(#paint76_linear_1807_17207)"/>
<path d="M1215.06 592.884C1215.06 591.721 1215.95 590.773 1217.04 590.773C1218.13 590.773 1219.02 591.721 1219.02 592.884C1219.02 594.046 1218.13 594.994 1217.04 594.994C1215.95 594.994 1215.06 594.046 1215.06 592.884Z" fill="url(#paint77_linear_1807_17207)"/>
<path d="M1215.06 564.395C1215.06 563.233 1215.95 562.285 1217.04 562.285C1218.13 562.285 1219.02 563.233 1219.02 564.395C1219.02 565.558 1218.13 566.506 1217.04 566.506C1215.95 566.506 1215.06 565.558 1215.06 564.395Z" fill="url(#paint78_linear_1807_17207)"/>
<path d="M1215.06 535.927C1215.06 534.764 1215.95 533.816 1217.04 533.816C1218.13 533.816 1219.02 534.764 1219.02 535.927C1219.02 537.089 1218.13 538.037 1217.04 538.037C1215.95 538.037 1215.06 537.089 1215.06 535.927Z" fill="url(#paint79_linear_1807_17207)"/>
<path d="M1217.04 509.566C1218.13 509.566 1219.02 508.621 1219.02 507.456C1219.02 506.29 1218.13 505.346 1217.04 505.346C1215.94 505.346 1215.06 506.29 1215.06 507.456C1215.06 508.621 1215.94 509.566 1217.04 509.566Z" fill="url(#paint80_linear_1807_17207)"/>
<path d="M1186.84 649.825C1186.84 648.663 1187.73 647.715 1188.82 647.715C1189.91 647.715 1190.8 648.663 1190.8 649.825C1190.8 650.987 1189.91 651.935 1188.82 651.935C1187.73 651.935 1186.84 650.987 1186.84 649.825Z" fill="url(#paint81_linear_1807_17207)"/>
<path d="M1186.84 621.356C1186.84 620.194 1187.73 619.246 1188.82 619.246C1189.91 619.246 1190.8 620.194 1190.8 621.356C1190.8 622.519 1189.91 623.467 1188.82 623.467C1187.73 623.467 1186.84 622.519 1186.84 621.356Z" fill="url(#paint82_linear_1807_17207)"/>
<path d="M1186.84 592.884C1186.84 591.721 1187.73 590.773 1188.82 590.773C1189.91 590.773 1190.8 591.721 1190.8 592.884C1190.8 594.046 1189.91 594.994 1188.82 594.994C1187.73 594.994 1186.84 594.046 1186.84 592.884Z" fill="url(#paint83_linear_1807_17207)"/>
<path d="M1186.84 564.395C1186.84 563.233 1187.73 562.285 1188.82 562.285C1189.91 562.285 1190.8 563.233 1190.8 564.395C1190.8 565.558 1189.91 566.506 1188.82 566.506C1187.73 566.506 1186.84 565.558 1186.84 564.395Z" fill="url(#paint84_linear_1807_17207)"/>
<path d="M1186.84 535.927C1186.84 534.764 1187.73 533.816 1188.82 533.816C1189.91 533.816 1190.8 534.764 1190.8 535.927C1190.8 537.089 1189.91 538.037 1188.82 538.037C1187.73 538.037 1186.84 537.089 1186.84 535.927Z" fill="url(#paint85_linear_1807_17207)"/>
<path d="M1186.84 507.456C1186.84 506.294 1187.73 505.346 1188.82 505.346C1189.91 505.346 1190.8 506.294 1190.8 507.456C1190.8 508.618 1189.91 509.566 1188.82 509.566C1187.73 509.566 1186.84 508.618 1186.84 507.456Z" fill="url(#paint86_linear_1807_17207)"/>
<path d="M1352.98 583.102H1440.01V433.329H1352.98V583.102Z" fill="url(#paint87_linear_1807_17207)"/>
<path d="M1389.36 564.251C1395.74 564.251 1400.92 558.727 1400.92 551.912C1400.92 545.097 1395.74 539.572 1389.36 539.572C1382.97 539.572 1377.79 545.097 1377.79 551.912C1377.79 558.727 1382.97 564.251 1389.36 564.251Z" fill="white"/>
<path d="M1389.36 520.546C1395.74 520.546 1400.92 515.022 1400.92 508.207C1400.92 501.392 1395.74 495.867 1389.36 495.867C1382.97 495.867 1377.79 501.392 1377.79 508.207C1377.79 515.022 1382.97 520.546 1389.36 520.546Z" fill="white"/>
<path d="M1377.79 464.499C1377.79 457.685 1382.97 452.159 1389.36 452.159C1395.74 452.159 1400.92 457.685 1400.92 464.499C1400.92 471.312 1395.74 476.838 1389.36 476.838C1382.97 476.838 1377.79 471.312 1377.79 464.499Z" fill="white"/>
<path d="M1280.06 583.102H1352.96V505.345H1280.06V583.102Z" fill="url(#paint88_linear_1807_17207)"/>
<path d="M1297.36 544.206C1297.36 532.922 1305.95 523.766 1316.52 523.766C1327.1 523.766 1335.69 532.922 1335.69 544.206C1335.69 555.491 1327.1 564.647 1316.52 564.647C1305.95 564.647 1297.36 555.491 1297.36 544.206Z" fill="white"/>
<path d="M1280.07 505.328L1352.97 433.312V505.328H1280.07Z" fill="url(#paint89_linear_1807_17207)"/>
<path d="M1377.7 15.2002H1425.73V194.534C1399.19 194.534 1377.7 171.59 1377.7 143.299V15.2002Z" fill="url(#paint90_linear_1807_17207)"/>
<path d="M1329.65 15.2002H1425.73V117.69C1372.67 117.69 1329.65 71.801 1329.65 15.2002Z" fill="url(#paint91_linear_1807_17207)"/>
<path d="M1293.64 104.867V15.2002H1377.7L1293.64 104.867Z" fill="url(#paint92_linear_1807_17207)"/>
<path d="M1293.64 104.867V15.2002H1209.58L1293.64 104.867Z" fill="url(#paint93_linear_1807_17207)"/>
<path d="M1113.57 -16.4355L1448.94 341.285" stroke="url(#paint94_linear_1807_17207)" stroke-miterlimit="10"/>
<path d="M1121.82 -25.2334L1457.19 332.487" stroke="url(#paint95_linear_1807_17207)" stroke-miterlimit="10"/>
<path d="M1130.09 -34.0498L1465.45 323.671" stroke="url(#paint96_linear_1807_17207)" stroke-miterlimit="10"/>
<path d="M1138.34 -42.8477L1473.7 314.873" stroke="url(#paint97_linear_1807_17207)" stroke-miterlimit="10"/>
<path d="M601.1 15.2002H685.028V104.706C638.688 104.706 601.1 64.6476 601.1 15.2002Z" fill="url(#paint98_linear_1807_17207)"/>
<path d="M685.047 59.9629V104.725H726.994C726.994 80.0101 708.217 59.9629 685.047 59.9629Z" fill="url(#paint99_linear_1807_17207)"/>
<path d="M851.68 15.2002L768.372 104.08L685.047 15.2002H851.68Z" fill="#15577A"/>
<path d="M874.382 63.9161L851.682 39.7199V15.5059L874.382 39.7199V63.9161Z" fill="url(#paint100_linear_1807_17207)"/>
<path d="M874.383 63.9161L897.067 39.7199V15.5059L874.383 39.7199V63.9161Z" fill="url(#paint101_linear_1807_17207)"/>
<path d="M222.934 804.607L259.567 843.682V882.758L222.934 843.682V804.607Z" fill="url(#paint102_linear_1807_17207)"/>
<path d="M222.934 804.607L186.301 843.682V882.758L222.934 843.682V804.607Z" fill="url(#paint103_linear_1807_17207)"/>
<path d="M627.873 970.188V1024H775.93V970.188H627.873ZM656.358 997.943C651.965 997.943 648.411 994.152 648.411 989.467C648.411 984.781 651.965 981.026 656.358 981.026C660.75 981.026 664.305 984.817 664.305 989.467C664.305 994.116 660.75 997.943 656.358 997.943ZM701.91 997.943C697.517 997.943 693.963 994.152 693.963 989.467C693.963 984.781 697.517 981.026 701.91 981.026C706.303 981.026 709.857 984.817 709.857 989.467C709.857 994.116 706.303 997.943 701.91 997.943ZM747.446 997.943C743.053 997.943 739.499 994.152 739.499 989.467C739.499 984.781 743.053 981.026 747.446 981.026C751.838 981.026 755.392 984.817 755.392 989.467C755.392 994.116 751.838 997.943 747.446 997.943Z" fill="#105472"/>
<path d="M812.112 970.188H775.932V1024H812.112V970.188Z" fill="url(#paint104_linear_1807_17207)"/>
<path d="M449.787 976.109C449.787 981.17 445.948 985.266 441.203 985.266C436.458 985.266 432.619 981.17 432.619 976.109C432.619 971.048 436.458 966.953 441.203 966.953C445.948 966.953 449.787 971.048 449.787 976.109Z" fill="url(#paint105_linear_1807_17207)"/>
<path d="M424.537 976.109C424.537 981.17 420.698 985.266 415.953 985.266C411.208 985.266 407.369 981.17 407.369 976.109C407.369 971.048 411.208 966.953 415.953 966.953C420.698 966.953 424.537 971.048 424.537 976.109Z" fill="url(#paint106_linear_1807_17207)"/>
<path d="M399.289 976.109C399.289 981.17 395.45 985.266 390.705 985.266C385.96 985.266 382.121 981.17 382.121 976.109C382.121 971.048 385.96 966.953 390.705 966.953C395.45 966.953 399.289 971.048 399.289 976.109Z" fill="url(#paint107_linear_1807_17207)"/>
<path d="M1057.89 47.875C1057.89 52.936 1054.06 57.0313 1049.31 57.0313C1044.57 57.0313 1040.73 52.936 1040.73 47.875C1040.73 42.814 1044.57 38.7188 1049.31 38.7188C1054.06 38.7188 1057.89 42.814 1057.89 47.875Z" fill="url(#paint108_linear_1807_17207)"/>
<path d="M1032.64 47.875C1032.64 52.936 1028.81 57.0313 1024.06 57.0313C1019.32 57.0313 1015.48 52.936 1015.48 47.875C1015.48 42.814 1019.32 38.7188 1024.06 38.7188C1028.81 38.7188 1032.64 42.814 1032.64 47.875Z" fill="url(#paint109_linear_1807_17207)"/>
<path d="M1007.38 47.875C1007.38 52.936 1003.54 57.0313 998.795 57.0313C994.05 57.0313 990.211 52.936 990.211 47.875C990.211 42.814 994.05 38.7188 998.795 38.7188C1003.54 38.7188 1007.38 42.814 1007.38 47.875Z" fill="url(#paint110_linear_1807_17207)"/>
</g>
<path d="M920.281 787.593C1072.76 676.808 1106.57 463.389 995.78 310.906C884.996 158.424 671.576 124.621 519.093 235.406C366.611 346.191 332.809 559.611 443.594 712.093C554.379 864.576 767.798 898.378 920.281 787.593Z" fill="#44A08D" fill-opacity="0.12"/>
<path fill-rule="evenodd" clip-rule="evenodd" d="M509.684 332.342C525.195 313.891 585.358 247.631 687.249 236.638C782.046 226.353 851.33 271.798 872.396 285.616L872.746 285.845C872.747 285.846 872.748 285.846 872.748 285.847C900.499 304.039 918.769 323.151 925.505 330.473M509.684 332.342C498.73 345.254 431.754 426.933 445.773 542.352C458.339 645.851 530.534 730.452 611.823 761.217L611.83 761.219C636.338 770.48 665.889 776.431 690.75 777.611C703.122 778.199 715.199 777.651 725.267 775.289C734.272 773.176 746.743 768.416 752.084 756.383L752.138 756.259C757.015 745.016 752.893 733.968 749.462 727.382C745.693 720.147 740.212 713.393 735.389 708.113C729.41 701.567 719.256 701.107 712.71 707.087C706.163 713.066 705.704 723.22 711.683 729.767C715.759 734.229 719.1 738.593 720.987 742.215C721.139 742.507 721.273 742.776 721.391 743.025C720.55 743.333 719.422 743.682 717.932 744.031C711.894 745.448 703.107 746.055 692.273 745.541C670.72 744.517 644.489 739.238 623.18 731.185C553.032 704.634 488.768 630.09 477.646 538.481C465.32 437 524.577 364.415 534.189 353.086L534.238 353.028C548.032 336.616 601.282 278.203 690.702 268.558L690.711 268.557C774.051 259.516 835.273 299.666 855.105 312.672L855.144 312.697C879.797 328.858 896.031 345.858 901.876 352.211L901.895 352.232C935.168 388.276 948.191 424.451 951.667 434.603C951.793 435.027 952.273 436.625 952.727 437.949C956.725 450.442 968.539 488.096 962.906 524.235C961.371 533.926 959.01 548.752 953.519 562.235C947.899 576.034 940.516 584.749 931.12 587.583L931.095 587.591C921.965 590.361 911.353 587.642 900.823 581.843C890.626 576.228 883.181 569.166 881.919 567.937C875.569 561.749 865.405 561.88 859.218 568.23C853.03 574.58 853.162 584.744 859.512 590.932C861.652 593.017 871.484 602.34 885.336 609.968C898.85 617.41 919.05 624.79 940.399 618.32C963.688 611.292 976.298 591.427 983.255 574.345C990.175 557.352 993.006 539.449 994.516 529.898L994.626 529.202C1001.52 485.015 987.409 440.968 983.368 428.355L983.249 427.985C983.207 427.853 983.163 427.721 983.117 427.591C982.981 427.202 982.857 426.813 982.724 426.377C982.653 426.144 982.592 425.941 982.51 425.672C982.438 425.431 982.344 425.121 982.245 424.808C982.208 424.693 982.171 424.579 982.132 424.466C978.156 412.819 963.407 371.54 925.505 330.473M722.254 745.415C722.253 745.415 722.25 745.395 722.248 745.357C722.254 745.396 722.255 745.415 722.254 745.415Z" fill="white"/>
<path d="M713.344 747.678L589.497 577.217C577.073 560.117 572.056 541.603 574.712 521.815C577.13 501.702 586.118 486.078 601.812 474.676L616.531 463.982C620.643 460.994 624.883 460.229 629.466 461.529C633.892 462.614 637.441 464.996 640.271 468.891C643.102 472.788 644.349 477.007 644.171 481.768C643.833 486.312 641.717 490 637.605 492.988L629.272 499.043C620.722 505.255 615.729 513.18 614.112 522.789C612.494 532.397 614.9 541.398 620.955 549.732L644.466 582.092L686.135 551.818C688.948 549.775 692.057 549.501 695.675 550.839C699.136 551.962 702.048 554.147 704.565 557.61C707.081 561.074 708.336 564.625 708.493 568.48C708.49 572.12 707.084 574.962 704.378 576.928L662.71 607.202L747.083 723.332C749.442 726.579 749.597 730.433 747.815 735.037C745.767 739.501 742.469 743.383 737.707 746.844C733.054 750.224 728.342 752.161 723.68 752.572C718.999 752.5 715.625 750.817 713.344 747.678Z" fill="white"/>
<path fill-rule="evenodd" clip-rule="evenodd" d="M602.208 475.217C586.671 486.505 577.775 501.959 575.378 521.895L575.377 521.904C572.747 541.509 577.709 559.852 590.041 576.824L713.888 747.285C716.021 750.222 719.173 751.826 723.659 751.903C728.162 751.498 732.749 749.621 737.316 746.303C741.995 742.904 745.208 739.112 747.201 734.777C748.922 730.32 748.726 726.729 746.545 723.726L661.778 607.055L703.988 576.387C706.504 574.559 707.821 571.93 707.826 568.494C707.673 564.785 706.468 561.365 704.026 558.004C701.581 554.639 698.78 552.549 695.472 551.475L695.446 551.467C691.999 550.193 689.133 550.47 686.531 552.36L644.321 583.027L620.417 550.126C614.269 541.664 611.804 532.483 613.455 522.679C615.103 512.885 620.199 504.81 628.881 498.502L637.215 492.447C641.179 489.567 643.181 486.055 643.505 481.732C643.676 477.122 642.472 473.055 639.732 469.285C636.992 465.514 633.577 463.225 629.309 462.179L629.286 462.173C624.909 460.932 620.88 461.651 616.927 464.523L602.208 475.217ZM574.051 521.731C576.491 501.445 585.571 485.651 601.421 474.135L616.14 463.441C620.408 460.341 624.855 459.529 629.639 460.883C634.218 462.008 637.897 464.483 640.815 468.499C643.736 472.519 645.026 476.886 644.842 481.794L644.841 481.819C644.488 486.576 642.257 490.438 638.001 493.53L629.668 499.584C621.25 505.7 616.361 513.475 614.775 522.901C613.189 532.311 615.538 541.134 621.499 549.339L644.617 581.159L685.745 551.278C688.766 549.083 692.112 548.811 695.897 550.207C699.505 551.381 702.524 553.661 705.109 557.218C707.697 560.78 709.001 564.456 709.164 568.453L709.165 568.481C709.162 572.318 707.666 575.368 704.774 577.47L663.647 607.35L747.627 722.939C750.16 726.425 750.277 730.536 748.442 735.279L748.434 735.298L748.426 735.316C746.322 739.901 742.942 743.869 738.103 747.385C733.375 750.82 728.551 752.815 723.742 753.239L723.707 753.242L723.673 753.241C718.813 753.166 715.228 751.406 712.806 748.072L588.958 577.611C576.442 560.384 571.372 541.702 574.051 521.731Z" fill="white"/>
<path d="M737.618 578.076L810.511 678.404C812.319 680.893 814.927 681.977 818.299 681.84C821.968 681.654 825.736 680.242 829.525 677.488C832.663 675.209 834.738 672.376 835.94 669.023C837.114 665.857 836.887 663.043 835.079 660.554L828.631 651.68C844.896 659.044 860.388 657.379 875.324 646.527C882.575 641.259 887.418 634.269 889.665 625.527C892.176 616.922 892.289 607.745 889.786 598.154C891.644 599.118 885.508 574.968 880.87 568.584L835.655 506.351C833.61 503.537 830.739 502.316 826.933 502.767C823.499 503.278 819.997 504.829 816.316 507.503C812.962 509.94 810.512 512.713 808.858 515.9C807.36 519.301 807.526 522.488 809.571 525.303L854.707 587.426C860.132 594.894 862.264 602.606 861.069 610.75C860.092 618.735 856.411 625.047 850.133 629.608C843.856 634.169 836.793 635.829 828.758 634.555C820.939 633.126 814.105 628.499 808.366 620.599L763.702 559.124C762.129 556.96 759.415 555.956 755.373 556.082C751.438 556.129 747.67 557.544 744.208 560.059C740.528 562.733 738.125 565.801 736.973 569.449C735.821 573.098 736.123 576.019 737.618 578.076Z" fill="white"/>
<path fill-rule="evenodd" clip-rule="evenodd" d="M808.267 515.593C809.975 512.303 812.499 509.453 815.926 506.963C819.669 504.244 823.27 502.637 826.838 502.107L826.857 502.104C828.85 501.868 830.638 502.066 832.213 502.718C833.791 503.372 835.114 504.466 836.199 505.96L881.414 568.192C882.629 569.865 883.908 572.644 885.109 575.796C886.316 578.966 887.466 582.574 888.411 585.945C889.355 589.315 890.099 592.467 890.491 594.725C890.685 595.846 890.799 596.783 890.798 597.425C890.798 597.722 890.775 598.06 890.657 598.325C890.635 598.373 890.605 598.43 890.565 598.489C892.963 608.005 892.813 617.131 890.313 625.706C888.025 634.597 883.091 641.714 875.72 647.07C868.175 652.552 860.46 655.734 852.552 656.601C845.363 657.389 838.051 656.26 830.602 653.252L835.623 660.163C837.585 662.863 837.806 665.919 836.571 669.253C835.324 672.733 833.166 675.674 829.921 678.031C826.049 680.845 822.159 682.316 818.335 682.51L818.328 682.51C814.776 682.654 811.935 681.501 809.972 678.799L737.079 578.47C735.417 576.183 735.148 573.019 736.338 569.25C737.542 565.436 740.049 562.258 743.818 559.52C747.369 556.94 751.266 555.465 755.361 555.414C759.506 555.287 762.488 556.314 764.246 558.733L808.91 620.207C814.568 627.996 821.26 632.504 828.873 633.897C836.736 635.142 843.617 633.519 849.742 629.069C855.866 624.62 859.452 618.476 860.408 610.671L860.41 610.655C861.576 602.707 859.506 595.168 854.168 587.821L809.033 525.697C806.826 522.66 806.671 519.215 808.249 515.632L808.257 515.612L808.267 515.593ZM809.464 516.19C808.056 519.403 808.235 522.324 810.115 524.911L855.25 587.034C860.762 594.62 862.956 602.503 861.735 610.841C860.734 619 856.959 625.479 850.529 630.151C844.103 634.82 836.859 636.518 828.655 635.217L828.64 635.215C820.618 633.749 813.646 629.002 807.827 620.994L763.163 559.519C761.777 557.61 759.333 556.629 755.396 556.752L755.383 556.752C751.611 556.798 747.974 558.153 744.604 560.602C741.012 563.212 738.713 566.17 737.614 569.652C736.5 573.18 736.835 575.858 738.161 577.684L811.054 678.013C812.707 680.287 815.081 681.302 818.271 681.173C821.786 680.995 825.43 679.641 829.135 676.949C832.164 674.748 834.157 672.025 835.313 668.799L835.316 668.792C836.426 665.796 836.194 663.225 834.541 660.949L826.607 650.029L828.91 651.072C836.95 654.712 844.769 656.108 852.406 655.271C860.044 654.434 867.543 651.357 874.934 645.987C882.062 640.809 886.812 633.95 889.02 625.362L889.025 625.341C891.5 616.859 891.616 607.806 889.141 598.325L888.762 596.869L889.457 597.23C889.438 596.705 889.343 595.934 889.173 594.954C888.791 592.756 888.06 589.651 887.123 586.306C886.186 582.963 885.048 579.396 883.859 576.273C882.663 573.132 881.435 570.498 880.331 568.979L835.117 506.746C834.157 505.425 833.022 504.501 831.701 503.954C830.38 503.406 828.833 503.219 827.024 503.432C823.726 503.924 820.326 505.42 816.712 508.045C813.437 510.425 811.065 513.116 809.464 516.19Z" fill="white"/>
<path d="M750.242 671.252L677.27 570.816C675.461 568.325 675.236 565.513 676.408 562.346C677.717 558.914 680.228 555.768 684.016 553.016C687.155 550.735 690.489 549.635 694.05 549.528C697.423 549.393 700.029 550.475 701.839 552.966L708.286 561.84C706.307 544.097 712.677 529.876 727.613 519.025C734.864 513.756 743.009 511.312 752.018 511.877C760.979 512.147 769.74 514.876 778.089 520.22C776.305 509.115 777.312 499.122 780.927 490.213C784.599 480.929 790.061 473.654 797.529 468.228C809.218 459.735 822.616 456.782 837.475 459.709C852.395 462.264 865.295 470.916 876.068 485.744L920.732 547.219C922.305 549.383 922.421 552.275 921.052 556.081C919.793 559.807 917.282 562.953 913.819 565.47C910.463 567.908 906.914 569.164 902.979 569.212C899.044 569.259 896.222 568.334 894.65 566.169L850.064 504.802C844.167 496.685 837.254 491.951 829.298 490.787C821.264 489.514 814.308 491.094 808.139 495.576C802.078 499.98 798.21 506.264 796.829 514.376C795.555 522.411 797.765 530.231 803.428 538.025L848.563 600.148C850.607 602.961 850.881 606.07 849.276 609.551C847.73 612.659 845.171 615.51 841.491 618.183C838.137 620.62 834.743 622.095 831.201 622.683C827.502 623.055 824.523 621.913 822.479 619.1L777.5 557.191C772.074 549.723 765.4 545.314 757.285 543.934C749.388 542.395 742.245 543.946 735.969 548.506C729.692 553.066 725.932 559.273 724.659 567.307C723.603 575.186 725.891 583.113 731.632 591.015L776.295 652.488C777.867 654.652 777.984 657.545 776.616 661.351C775.354 665.077 772.844 668.225 769.383 670.74C765.702 673.414 762.041 674.749 758.216 674.719C754.419 674.5 751.736 673.309 750.242 671.252Z" fill="white"/>
<path fill-rule="evenodd" clip-rule="evenodd" d="M712.215 538.123C709.059 545.128 707.971 552.996 708.95 561.767L709.23 564.28L701.296 553.36C699.642 551.082 697.268 550.069 694.075 550.197L694.068 550.197C690.643 550.3 687.439 551.355 684.407 553.558C680.704 556.248 678.288 559.295 677.033 562.581C675.925 565.578 676.156 568.147 677.81 570.423L750.781 670.859C752.11 672.688 754.554 673.835 758.237 674.051C761.882 674.076 765.402 672.805 768.988 670.199C772.359 667.751 774.771 664.71 775.981 661.137L775.985 661.125C777.318 657.419 777.139 654.79 775.752 652.881L731.089 591.408C725.27 583.398 722.911 575.302 723.995 567.218L723.997 567.202C725.296 559 729.149 552.634 735.574 547.966C742.004 543.294 749.334 541.705 757.404 543.276C765.711 544.692 772.528 549.212 778.04 556.799L823.019 618.707C824.898 621.292 827.62 622.366 831.112 622.021C834.53 621.449 837.822 620.022 841.097 617.643C844.711 615.017 847.185 612.247 848.672 609.263C849.433 607.608 849.732 606.078 849.62 604.652C849.507 603.227 848.98 601.862 848.021 600.542L802.886 538.419C797.141 530.512 794.86 522.516 796.168 514.272L796.169 514.264C797.576 505.991 801.533 499.548 807.745 495.035C814.066 490.442 821.202 488.829 829.397 490.126C837.576 491.325 844.633 496.191 850.604 504.409L895.19 565.776C896.571 567.677 899.113 568.59 902.969 568.543C906.753 568.498 910.17 567.294 913.425 564.929C916.797 562.479 919.21 559.44 920.417 555.867L920.421 555.855C921.754 552.149 921.576 549.521 920.19 547.613L875.526 486.138C864.833 471.421 852.076 462.889 837.361 460.369L837.345 460.366C822.663 457.474 809.455 460.389 797.921 468.77C790.565 474.114 785.178 481.282 781.548 490.459L781.546 490.465C777.983 499.246 776.981 509.114 778.748 520.115L778.985 521.59L777.727 520.784C769.474 515.501 760.83 512.812 751.997 512.546L751.975 512.545C743.125 511.991 735.133 514.387 728.005 519.566C720.614 524.936 715.371 531.117 712.215 538.123ZM710.995 537.574C714.263 530.321 719.673 523.966 727.218 518.484C734.59 513.129 742.885 510.637 752.048 511.209C760.691 511.471 769.142 513.989 777.21 518.886C775.719 508.249 776.797 498.612 780.305 489.964C784.019 480.576 789.554 473.194 797.134 467.687C808.976 459.084 822.561 456.092 837.595 459.052C852.717 461.644 865.756 470.415 876.608 485.352L921.272 546.826C923.03 549.245 923.085 552.399 921.682 556.302C920.37 560.179 917.764 563.43 914.211 566.011C910.754 568.523 907.072 569.832 902.986 569.881C898.972 569.93 895.871 568.991 894.107 566.563L849.521 505.196C843.699 497.182 836.931 492.581 829.2 491.449L829.192 491.448C821.321 490.201 814.547 491.747 808.531 496.117C802.621 500.412 798.841 506.536 797.488 514.485C796.249 522.31 798.388 529.953 803.968 537.632L849.103 599.756C850.188 601.249 850.819 602.845 850.954 604.547C851.088 606.246 850.723 608.008 849.883 609.832L849.874 609.85C848.268 613.079 845.626 616.006 841.883 618.725C838.456 621.215 834.967 622.736 831.31 623.344L831.289 623.347L831.267 623.349C827.371 623.741 824.142 622.529 821.937 619.493L776.958 557.585C771.62 550.238 765.09 545.941 757.171 544.594L757.156 544.591C749.435 543.086 742.483 544.6 736.361 549.048C730.236 553.498 726.567 559.542 725.32 567.404C724.294 575.076 726.512 582.832 732.172 590.622L776.835 652.095C778.592 654.514 778.649 657.669 777.246 661.572C775.931 665.449 773.326 668.701 769.775 671.282C766.006 674.02 762.208 675.42 758.21 675.388L758.193 675.388L758.177 675.387C754.274 675.162 751.358 673.929 749.699 671.646L676.728 571.209C674.764 568.506 674.544 565.451 675.78 562.114L675.782 562.108C677.146 558.532 679.75 555.288 683.621 552.475C686.867 550.117 690.33 548.972 694.025 548.86C697.577 548.719 700.415 549.87 702.379 552.573L707.399 559.484C706.839 551.47 708.025 544.167 710.995 537.574Z" fill="white"/>
<path d="M567.998 249.572L558.311 255.406C558.033 255.579 557.738 255.657 557.425 255.64C557.113 255.623 556.835 255.527 556.592 255.354C556.349 255.18 556.167 254.954 556.045 254.676C555.924 254.399 555.898 254.086 555.967 253.739L558.519 242.697L549.977 235.249C549.7 235.006 549.535 234.737 549.483 234.442C549.431 234.147 549.439 233.86 549.509 233.583C549.578 233.305 549.734 233.071 549.977 232.88C550.221 232.689 550.516 232.576 550.863 232.541L562.165 231.551L566.54 221.135C566.679 220.822 566.887 220.588 567.165 220.432C567.443 220.275 567.721 220.197 567.998 220.197C568.276 220.197 568.554 220.275 568.832 220.432C569.109 220.588 569.318 220.822 569.457 221.135L573.832 231.551L585.134 232.541C585.481 232.576 585.776 232.689 586.019 232.88C586.262 233.071 586.418 233.305 586.488 233.583C586.557 233.86 586.566 234.147 586.514 234.442C586.462 234.737 586.297 235.006 586.019 235.249L577.477 242.697L580.03 253.739C580.099 254.086 580.073 254.399 579.951 254.676C579.83 254.954 579.648 255.18 579.405 255.354C579.162 255.527 578.884 255.623 578.571 255.64C578.259 255.657 577.964 255.579 577.686 255.406L567.998 249.572Z" fill="url(#paint111_linear_1807_17207)"/>
<path d="M628.498 255.063L614.742 263.346C614.347 263.593 613.928 263.704 613.484 263.679C613.041 263.655 612.646 263.519 612.301 263.272C611.956 263.026 611.697 262.705 611.524 262.311C611.352 261.917 611.315 261.473 611.414 260.98L615.038 245.301L602.908 234.725C602.514 234.379 602.28 233.997 602.206 233.578C602.132 233.159 602.144 232.752 602.243 232.358C602.341 231.963 602.563 231.631 602.908 231.359C603.253 231.088 603.673 230.928 604.166 230.879L620.215 229.474L626.427 214.682C626.624 214.238 626.92 213.905 627.315 213.683C627.709 213.462 628.103 213.351 628.498 213.351C628.892 213.351 629.287 213.462 629.681 213.683C630.076 213.905 630.372 214.238 630.569 214.682L636.781 229.474L652.83 230.879C653.323 230.928 653.742 231.088 654.088 231.359C654.433 231.631 654.655 231.963 654.753 232.358C654.852 232.752 654.864 233.159 654.79 233.578C654.716 233.997 654.482 234.379 654.088 234.725L641.958 245.301L645.582 260.98C645.681 261.473 645.644 261.917 645.471 262.311C645.299 262.705 645.04 263.026 644.695 263.272C644.35 263.519 643.955 263.655 643.511 263.679C643.068 263.704 642.649 263.593 642.254 263.346L628.498 255.063Z" fill="url(#paint112_linear_1807_17207)"/>
<path d="M720.497 266.044L698.603 279.227C697.976 279.619 697.309 279.796 696.602 279.757C695.896 279.718 695.268 279.502 694.719 279.109C694.17 278.717 693.758 278.207 693.483 277.579C693.208 276.951 693.15 276.245 693.307 275.46L699.074 250.506L679.77 233.674C679.142 233.125 678.77 232.516 678.652 231.849C678.534 231.182 678.554 230.535 678.711 229.907C678.868 229.28 679.221 228.75 679.77 228.318C680.319 227.887 680.986 227.632 681.771 227.553L707.314 225.317L717.201 201.775C717.515 201.069 717.986 200.539 718.614 200.186C719.242 199.833 719.869 199.656 720.497 199.656C721.125 199.656 721.753 199.833 722.38 200.186C723.008 200.539 723.479 201.069 723.793 201.775L733.68 225.317L759.223 227.553C760.008 227.632 760.675 227.887 761.224 228.318C761.774 228.75 762.127 229.28 762.284 229.907C762.441 230.535 762.46 231.182 762.342 231.849C762.225 232.516 761.852 233.125 761.224 233.674L741.92 250.506L747.688 275.46C747.845 276.245 747.786 276.951 747.511 277.579C747.237 278.207 746.825 278.717 746.275 279.109C745.726 279.502 745.098 279.718 744.392 279.757C743.686 279.796 743.019 279.619 742.391 279.227L720.497 266.044Z" fill="url(#paint113_linear_1807_17207)"/>
<path d="M812.498 255.063L798.742 263.346C798.347 263.593 797.928 263.704 797.484 263.679C797.041 263.655 796.646 263.519 796.301 263.272C795.956 263.026 795.697 262.705 795.524 262.311C795.352 261.917 795.315 261.473 795.414 260.98L799.038 245.301L786.908 234.725C786.514 234.379 786.28 233.997 786.206 233.578C786.132 233.159 786.144 232.752 786.243 232.358C786.341 231.963 786.563 231.631 786.908 231.359C787.253 231.088 787.673 230.928 788.166 230.879L804.215 229.474L810.427 214.682C810.624 214.238 810.92 213.905 811.315 213.683C811.709 213.462 812.103 213.351 812.498 213.351C812.892 213.351 813.287 213.462 813.681 213.683C814.076 213.905 814.372 214.238 814.569 214.682L820.781 229.474L836.83 230.879C837.323 230.928 837.742 231.088 838.088 231.359C838.433 231.631 838.655 231.963 838.753 232.358C838.852 232.752 838.864 233.159 838.79 233.578C838.716 233.997 838.482 234.379 838.088 234.725L825.958 245.301L829.582 260.98C829.681 261.473 829.644 261.917 829.471 262.311C829.299 262.705 829.04 263.026 828.695 263.272C828.35 263.519 827.955 263.655 827.511 263.679C827.068 263.704 826.649 263.593 826.254 263.346L812.498 255.063Z" fill="url(#paint114_linear_1807_17207)"/>
<path d="M872.998 249.572L863.311 255.406C863.033 255.579 862.738 255.657 862.425 255.64C862.113 255.623 861.835 255.527 861.592 255.354C861.349 255.18 861.167 254.954 861.045 254.676C860.924 254.399 860.898 254.086 860.967 253.739L863.519 242.697L854.977 235.249C854.7 235.006 854.535 234.737 854.483 234.442C854.431 234.147 854.439 233.86 854.509 233.583C854.578 233.305 854.734 233.071 854.977 232.88C855.221 232.689 855.516 232.576 855.863 232.541L867.165 231.551L871.54 221.135C871.679 220.822 871.887 220.588 872.165 220.432C872.443 220.275 872.721 220.197 872.998 220.197C873.276 220.197 873.554 220.275 873.832 220.432C874.109 220.588 874.318 220.822 874.457 221.135L878.832 231.551L890.134 232.541C890.481 232.576 890.776 232.689 891.019 232.88C891.262 233.071 891.418 233.305 891.488 233.583C891.557 233.86 891.566 234.147 891.514 234.442C891.462 234.737 891.297 235.006 891.019 235.249L882.477 242.697L885.03 253.739C885.099 254.086 885.073 254.399 884.951 254.676C884.83 254.954 884.648 255.18 884.405 255.354C884.162 255.527 883.884 255.623 883.571 255.64C883.259 255.657 882.964 255.579 882.686 255.406L872.998 249.572Z" fill="url(#paint115_linear_1807_17207)"/>
</g>
<defs>
<linearGradient id="paint0_linear_1807_17207" x1="291.857" y1="1039.97" x2="-79.3257" y2="724.243" gradientUnits="userSpaceOnUse">
<stop stop-color="#ECFC7F"/>
<stop offset="1" stop-color="#0EAAC3"/>
</linearGradient>
<linearGradient id="paint1_linear_1807_17207" x1="309.829" y1="1042.99" x2="-61.3541" y2="727.265" gradientUnits="userSpaceOnUse">
<stop stop-color="#ECFC7F"/>
<stop offset="1" stop-color="#0EAAC3"/>
</linearGradient>
<linearGradient id="paint2_linear_1807_17207" x1="318.093" y1="1034.18" x2="-53.0894" y2="718.448" gradientUnits="userSpaceOnUse">
<stop stop-color="#ECFC7F"/>
<stop offset="1" stop-color="#0EAAC3"/>
</linearGradient>
<linearGradient id="paint3_linear_1807_17207" x1="326.341" y1="1025.38" x2="-44.8413" y2="709.65" gradientUnits="userSpaceOnUse">
<stop stop-color="#ECFC7F"/>
<stop offset="1" stop-color="#0EAAC3"/>
</linearGradient>
<linearGradient id="paint4_linear_1807_17207" x1="122.576" y1="672.361" x2="142.645" y2="672.361" gradientUnits="userSpaceOnUse">
<stop stop-color="#344868"/>
<stop offset="1" stop-color="#0EAAC3"/>
</linearGradient>
<linearGradient id="paint5_linear_1807_17207" x1="142.645" y1="672.352" x2="162.714" y2="672.444" gradientUnits="userSpaceOnUse">
<stop stop-color="#44A08D"/>
<stop offset="1" stop-color="#093637"/>
</linearGradient>
<linearGradient id="paint6_linear_1807_17207" x1="-51.8535" y1="735.596" x2="-50.1769" y2="735.596" gradientUnits="userSpaceOnUse">
<stop stop-color="#344868"/>
<stop offset="1" stop-color="#0EAAC3"/>
</linearGradient>
<linearGradient id="paint7_linear_1807_17207" x1="142.645" y1="735.596" x2="162.714" y2="735.688" gradientUnits="userSpaceOnUse">
<stop stop-color="#44A08D"/>
<stop offset="1" stop-color="#093637"/>
</linearGradient>
<linearGradient id="paint8_linear_1807_17207" x1="-51.8535" y1="798.832" x2="-50.1769" y2="798.832" gradientUnits="userSpaceOnUse">
<stop stop-color="#344868"/>
<stop offset="1" stop-color="#0EAAC3"/>
</linearGradient>
<linearGradient id="paint9_linear_1807_17207" x1="142.645" y1="798.832" x2="162.714" y2="798.924" gradientUnits="userSpaceOnUse">
<stop stop-color="#44A08D"/>
<stop offset="1" stop-color="#093637"/>
</linearGradient>
<linearGradient id="paint10_linear_1807_17207" x1="56.2153" y1="51.9872" x2="157.215" y2="181.815" gradientUnits="userSpaceOnUse">
<stop stop-color="#344868"/>
<stop offset="1" stop-color="#0EAAC3"/>
</linearGradient>
<linearGradient id="paint11_linear_1807_17207" x1="14.251" y1="81.9954" x2="66.2358" y2="82.1937" gradientUnits="userSpaceOnUse">
<stop stop-color="#44A08D"/>
<stop offset="1" stop-color="#093637"/>
</linearGradient>
<linearGradient id="paint12_linear_1807_17207" x1="169.736" y1="361.566" x2="77.3241" y2="361.566" gradientUnits="userSpaceOnUse">
<stop stop-color="#344868"/>
<stop offset="1" stop-color="#0EAAC3"/>
</linearGradient>
<linearGradient id="paint13_linear_1807_17207" x1="14.251" y1="321.901" x2="159.928" y2="321.901" gradientUnits="userSpaceOnUse">
<stop stop-color="#344868"/>
<stop offset="1" stop-color="#0EAAC3"/>
</linearGradient>
<linearGradient id="paint14_linear_1807_17207" x1="14.251" y1="148.79" x2="264.464" y2="151.09" gradientUnits="userSpaceOnUse">
<stop stop-color="#44A08D"/>
<stop offset="1" stop-color="#093637"/>
</linearGradient>
<linearGradient id="paint15_linear_1807_17207" x1="264.613" y1="44.0296" x2="318.381" y2="44.5236" gradientUnits="userSpaceOnUse">
<stop stop-color="#44A08D"/>
<stop offset="1" stop-color="#093637"/>
</linearGradient>
<linearGradient id="paint16_linear_1807_17207" x1="14.2529" y1="361.546" x2="85.5794" y2="361.861" gradientUnits="userSpaceOnUse">
<stop stop-color="#44A08D"/>
<stop offset="1" stop-color="#093637"/>
</linearGradient>
<linearGradient id="paint17_linear_1807_17207" x1="119.709" y1="223.401" x2="294.455" y2="225.008" gradientUnits="userSpaceOnUse">
<stop stop-color="#44A08D"/>
<stop offset="1" stop-color="#093637"/>
</linearGradient>
<linearGradient id="paint18_linear_1807_17207" x1="134.864" y1="41.4351" x2="209.637" y2="89.1269" gradientUnits="userSpaceOnUse">
<stop stop-color="#344868"/>
<stop offset="1" stop-color="#0EAAC3"/>
</linearGradient>
<linearGradient id="paint19_linear_1807_17207" x1="181.12" y1="59.8281" x2="222.97" y2="60.0204" gradientUnits="userSpaceOnUse">
<stop stop-color="#44A08D"/>
<stop offset="1" stop-color="#093637"/>
</linearGradient>
<linearGradient id="paint20_linear_1807_17207" x1="85.707" y1="401.007" x2="159.929" y2="401.689" gradientUnits="userSpaceOnUse">
<stop stop-color="#44A08D"/>
<stop offset="1" stop-color="#093637"/>
</linearGradient>
<linearGradient id="paint21_linear_1807_17207" x1="-52.9978" y1="66.5995" x2="421.591" y2="500.354" gradientUnits="userSpaceOnUse">
<stop stop-color="#ECFC7F"/>
<stop offset="1" stop-color="#0EAAC3"/>
</linearGradient>
<linearGradient id="paint22_linear_1807_17207" x1="-69.1263" y1="84.3593" x2="405.478" y2="518.13" gradientUnits="userSpaceOnUse">
<stop stop-color="#ECFC7F"/>
<stop offset="1" stop-color="#0EAAC3"/>
</linearGradient>
<linearGradient id="paint23_linear_1807_17207" x1="-85.2381" y1="102.15" x2="389.353" y2="535.903" gradientUnits="userSpaceOnUse">
<stop stop-color="#ECFC7F"/>
<stop offset="1" stop-color="#0EAAC3"/>
</linearGradient>
<linearGradient id="paint24_linear_1807_17207" x1="-101.367" y1="119.945" x2="373.223" y2="553.681" gradientUnits="userSpaceOnUse">
<stop stop-color="#ECFC7F"/>
<stop offset="1" stop-color="#0EAAC3"/>
</linearGradient>
<linearGradient id="paint25_linear_1807_17207" x1="-117.495" y1="137.701" x2="357.114" y2="571.472" gradientUnits="userSpaceOnUse">
<stop stop-color="#ECFC7F"/>
<stop offset="1" stop-color="#0EAAC3"/>
</linearGradient>
<linearGradient id="paint26_linear_1807_17207" x1="-133.625" y1="155.478" x2="341.001" y2="589.248" gradientUnits="userSpaceOnUse">
<stop stop-color="#ECFC7F"/>
<stop offset="1" stop-color="#0EAAC3"/>
</linearGradient>
<linearGradient id="paint27_linear_1807_17207" x1="-36.5013" y1="48.4301" x2="438.052" y2="482.152" gradientUnits="userSpaceOnUse">
<stop stop-color="#ECFC7F"/>
<stop offset="1" stop-color="#0EAAC3"/>
</linearGradient>
<linearGradient id="paint28_linear_1807_17207" x1="-52.6466" y1="66.2079" x2="421.939" y2="499.945" gradientUnits="userSpaceOnUse">
<stop stop-color="#ECFC7F"/>
<stop offset="1" stop-color="#0EAAC3"/>
</linearGradient>
<linearGradient id="paint29_linear_1807_17207" x1="-68.7417" y1="83.9979" x2="405.814" y2="517.719" gradientUnits="userSpaceOnUse">
<stop stop-color="#ECFC7F"/>
<stop offset="1" stop-color="#0EAAC3"/>
</linearGradient>
<linearGradient id="paint30_linear_1807_17207" x1="-84.8702" y1="101.793" x2="389.702" y2="535.514" gradientUnits="userSpaceOnUse">
<stop stop-color="#ECFC7F"/>
<stop offset="1" stop-color="#0EAAC3"/>
</linearGradient>
<linearGradient id="paint31_linear_1807_17207" x1="-100.999" y1="119.55" x2="373.591" y2="553.287" gradientUnits="userSpaceOnUse">
<stop stop-color="#ECFC7F"/>
<stop offset="1" stop-color="#0EAAC3"/>
</linearGradient>
<linearGradient id="paint32_linear_1807_17207" x1="-117.111" y1="137.327" x2="357.464" y2="571.083" gradientUnits="userSpaceOnUse">
<stop stop-color="#ECFC7F"/>
<stop offset="1" stop-color="#0EAAC3"/>
</linearGradient>
<linearGradient id="paint33_linear_1807_17207" x1="-20.0362" y1="30.2428" x2="454.553" y2="463.997" gradientUnits="userSpaceOnUse">
<stop stop-color="#ECFC7F"/>
<stop offset="1" stop-color="#0EAAC3"/>
</linearGradient>
<linearGradient id="paint34_linear_1807_17207" x1="-36.1815" y1="48.0028" x2="438.441" y2="481.791" gradientUnits="userSpaceOnUse">
<stop stop-color="#ECFC7F"/>
<stop offset="1" stop-color="#0EAAC3"/>
</linearGradient>
<linearGradient id="paint35_linear_1807_17207" x1="-52.2765" y1="65.8106" x2="422.313" y2="499.547" gradientUnits="userSpaceOnUse">
<stop stop-color="#ECFC7F"/>
<stop offset="1" stop-color="#0EAAC3"/>
</linearGradient>
<linearGradient id="paint36_linear_1807_17207" x1="-68.4051" y1="83.588" x2="406.186" y2="517.342" gradientUnits="userSpaceOnUse">
<stop stop-color="#ECFC7F"/>
<stop offset="1" stop-color="#0EAAC3"/>
</linearGradient>
<linearGradient id="paint37_linear_1807_17207" x1="-84.5503" y1="101.344" x2="390.075" y2="535.114" gradientUnits="userSpaceOnUse">
<stop stop-color="#ECFC7F"/>
<stop offset="1" stop-color="#0EAAC3"/>
</linearGradient>
<linearGradient id="paint38_linear_1807_17207" x1="-100.662" y1="119.139" x2="373.946" y2="552.892" gradientUnits="userSpaceOnUse">
<stop stop-color="#ECFC7F"/>
<stop offset="1" stop-color="#0EAAC3"/>
</linearGradient>
<linearGradient id="paint39_linear_1807_17207" x1="-3.55297" y1="12.0913" x2="471.017" y2="445.809" gradientUnits="userSpaceOnUse">
<stop stop-color="#ECFC7F"/>
<stop offset="1" stop-color="#0EAAC3"/>
</linearGradient>
<linearGradient id="paint40_linear_1807_17207" x1="-19.6815" y1="29.8514" x2="454.905" y2="463.604" gradientUnits="userSpaceOnUse">
<stop stop-color="#ECFC7F"/>
<stop offset="1" stop-color="#0EAAC3"/>
</linearGradient>
<linearGradient id="paint41_linear_1807_17207" x1="-35.7932" y1="47.641" x2="438.78" y2="481.377" gradientUnits="userSpaceOnUse">
<stop stop-color="#ECFC7F"/>
<stop offset="1" stop-color="#0EAAC3"/>
</linearGradient>
<linearGradient id="paint42_linear_1807_17207" x1="-51.9049" y1="65.4364" x2="422.667" y2="499.154" gradientUnits="userSpaceOnUse">
<stop stop-color="#ECFC7F"/>
<stop offset="1" stop-color="#0EAAC3"/>
</linearGradient>
<linearGradient id="paint43_linear_1807_17207" x1="-68.0501" y1="83.1927" x2="406.541" y2="516.945" gradientUnits="userSpaceOnUse">
<stop stop-color="#ECFC7F"/>
<stop offset="1" stop-color="#0EAAC3"/>
</linearGradient>
<linearGradient id="paint44_linear_1807_17207" x1="-84.1619" y1="100.97" x2="390.429" y2="534.722" gradientUnits="userSpaceOnUse">
<stop stop-color="#ECFC7F"/>
<stop offset="1" stop-color="#0EAAC3"/>
</linearGradient>
<linearGradient id="paint45_linear_1807_17207" x1="0.000976573" y1="515.781" x2="87.0369" y2="516.277" gradientUnits="userSpaceOnUse">
<stop stop-color="#44A08D"/>
<stop offset="1" stop-color="#093637"/>
</linearGradient>
<linearGradient id="paint46_linear_1807_17207" x1="87.0322" y1="479.775" x2="159.929" y2="479.775" gradientUnits="userSpaceOnUse">
<stop stop-color="#344868"/>
<stop offset="1" stop-color="#0EAAC3"/>
</linearGradient>
<linearGradient id="paint47_linear_1807_17207" x1="95.4486" y1="518.347" x2="278.091" y2="726.198" gradientUnits="userSpaceOnUse">
<stop stop-color="#344868"/>
<stop offset="1" stop-color="#0EAAC3"/>
</linearGradient>
<linearGradient id="paint48_linear_1807_17207" x1="33.1646" y1="927.841" x2="-62.1618" y2="846.769" gradientUnits="userSpaceOnUse">
<stop stop-color="#344868"/>
<stop offset="1" stop-color="#0EAAC3"/>
</linearGradient>
<linearGradient id="paint49_linear_1807_17207" x1="14.2529" y1="957.009" x2="110.489" y2="957.893" gradientUnits="userSpaceOnUse">
<stop stop-color="#44A08D"/>
<stop offset="1" stop-color="#093637"/>
</linearGradient>
<linearGradient id="paint50_linear_1807_17207" x1="62.3711" y1="963.437" x2="146.569" y2="964.211" gradientUnits="userSpaceOnUse">
<stop stop-color="#44A08D"/>
<stop offset="1" stop-color="#093637"/>
</linearGradient>
<linearGradient id="paint51_linear_1807_17207" x1="188.665" y1="1042.17" x2="188.665" y2="906.81" gradientUnits="userSpaceOnUse">
<stop stop-color="#344868"/>
<stop offset="1" stop-color="#0EAAC3"/>
</linearGradient>
<linearGradient id="paint52_linear_1807_17207" x1="1317.43" y1="371.829" x2="1297.36" y2="371.829" gradientUnits="userSpaceOnUse">
<stop stop-color="#344868"/>
<stop offset="1" stop-color="#0EAAC3"/>
</linearGradient>
<linearGradient id="paint53_linear_1807_17207" x1="1313.12" y1="415.142" x2="1268.24" y2="348.915" gradientUnits="userSpaceOnUse">
<stop stop-color="#ECFC7F"/>
<stop offset="1" stop-color="#0EAAC3"/>
</linearGradient>
<linearGradient id="paint54_linear_1807_17207" x1="1317.43" y1="308.595" x2="1297.36" y2="308.595" gradientUnits="userSpaceOnUse">
<stop stop-color="#344868"/>
<stop offset="1" stop-color="#0EAAC3"/>
</linearGradient>
<linearGradient id="paint55_linear_1807_17207" x1="1313.12" y1="351.909" x2="1268.24" y2="285.664" gradientUnits="userSpaceOnUse">
<stop stop-color="#ECFC7F"/>
<stop offset="1" stop-color="#0EAAC3"/>
</linearGradient>
<linearGradient id="paint56_linear_1807_17207" x1="1317.43" y1="245.359" x2="1297.36" y2="245.359" gradientUnits="userSpaceOnUse">
<stop stop-color="#344868"/>
<stop offset="1" stop-color="#0EAAC3"/>
</linearGradient>
<linearGradient id="paint57_linear_1807_17207" x1="1313.12" y1="288.672" x2="1268.24" y2="222.427" gradientUnits="userSpaceOnUse">
<stop stop-color="#ECFC7F"/>
<stop offset="1" stop-color="#0EAAC3"/>
</linearGradient>
<linearGradient id="paint58_linear_1807_17207" x1="1393.26" y1="983.01" x2="1280.75" y2="838.385" gradientUnits="userSpaceOnUse">
<stop stop-color="#344868"/>
<stop offset="1" stop-color="#0EAAC3"/>
</linearGradient>
<linearGradient id="paint59_linear_1807_17207" x1="1373.75" y1="941.985" x2="1425.74" y2="942.183" gradientUnits="userSpaceOnUse">
<stop stop-color="#44A08D"/>
<stop offset="1" stop-color="#093637"/>
</linearGradient>
<linearGradient id="paint60_linear_1807_17207" x1="1270.25" y1="662.415" x2="1362.68" y2="662.415" gradientUnits="userSpaceOnUse">
<stop stop-color="#344868"/>
<stop offset="1" stop-color="#0EAAC3"/>
</linearGradient>
<linearGradient id="paint61_linear_1807_17207" x1="1425.75" y1="702.08" x2="1280.08" y2="702.08" gradientUnits="userSpaceOnUse">
<stop stop-color="#344868"/>
<stop offset="1" stop-color="#0EAAC3"/>
</linearGradient>
<linearGradient id="paint62_linear_1807_17207" x1="1175.53" y1="930.387" x2="1300.63" y2="931.368" gradientUnits="userSpaceOnUse">
<stop stop-color="#44A08D"/>
<stop offset="1" stop-color="#093637"/>
</linearGradient>
<linearGradient id="paint63_linear_1807_17207" x1="1121.61" y1="979.951" x2="1175.39" y2="980.445" gradientUnits="userSpaceOnUse">
<stop stop-color="#44A08D"/>
<stop offset="1" stop-color="#093637"/>
</linearGradient>
<linearGradient id="paint64_linear_1807_17207" x1="1354.41" y1="662.432" x2="1425.74" y2="662.746" gradientUnits="userSpaceOnUse">
<stop stop-color="#44A08D"/>
<stop offset="1" stop-color="#093637"/>
</linearGradient>
<linearGradient id="paint65_linear_1807_17207" x1="1207.03" y1="776.422" x2="1280.08" y2="776.757" gradientUnits="userSpaceOnUse">
<stop stop-color="#44A08D"/>
<stop offset="1" stop-color="#093637"/>
</linearGradient>
<linearGradient id="paint66_linear_1807_17207" x1="1305.14" y1="982.544" x2="1230.37" y2="934.869" gradientUnits="userSpaceOnUse">
<stop stop-color="#344868"/>
<stop offset="1" stop-color="#0EAAC3"/>
</linearGradient>
<linearGradient id="paint67_linear_1807_17207" x1="1217.04" y1="964.16" x2="1258.89" y2="964.352" gradientUnits="userSpaceOnUse">
<stop stop-color="#44A08D"/>
<stop offset="1" stop-color="#093637"/>
</linearGradient>
<linearGradient id="paint68_linear_1807_17207" x1="1280.06" y1="622.972" x2="1354.28" y2="623.655" gradientUnits="userSpaceOnUse">
<stop stop-color="#44A08D"/>
<stop offset="1" stop-color="#093637"/>
</linearGradient>
<linearGradient id="paint69_linear_1807_17207" x1="1449.67" y1="862.385" x2="1056.87" y2="503.399" gradientUnits="userSpaceOnUse">
<stop stop-color="#ECFC7F"/>
<stop offset="1" stop-color="#0EAAC3"/>
</linearGradient>
<linearGradient id="paint70_linear_1807_17207" x1="1463.02" y1="847.794" x2="1070.21" y2="488.79" gradientUnits="userSpaceOnUse">
<stop stop-color="#ECFC7F"/>
<stop offset="1" stop-color="#0EAAC3"/>
</linearGradient>
<linearGradient id="paint71_linear_1807_17207" x1="1476.36" y1="833.184" x2="1083.55" y2="474.198" gradientUnits="userSpaceOnUse">
<stop stop-color="#ECFC7F"/>
<stop offset="1" stop-color="#0EAAC3"/>
</linearGradient>
<linearGradient id="paint72_linear_1807_17207" x1="1489.64" y1="818.519" x2="1096.94" y2="459.617" gradientUnits="userSpaceOnUse">
<stop stop-color="#ECFC7F"/>
<stop offset="1" stop-color="#0EAAC3"/>
</linearGradient>
<linearGradient id="paint73_linear_1807_17207" x1="1503.04" y1="803.996" x2="1110.23" y2="444.993" gradientUnits="userSpaceOnUse">
<stop stop-color="#ECFC7F"/>
<stop offset="1" stop-color="#0EAAC3"/>
</linearGradient>
<linearGradient id="paint74_linear_1807_17207" x1="1516.38" y1="789.389" x2="1123.57" y2="430.386" gradientUnits="userSpaceOnUse">
<stop stop-color="#ECFC7F"/>
<stop offset="1" stop-color="#0EAAC3"/>
</linearGradient>
<linearGradient id="paint75_linear_1807_17207" x1="1435.98" y1="877.496" x2="1043.08" y2="518.381" gradientUnits="userSpaceOnUse">
<stop stop-color="#ECFC7F"/>
<stop offset="1" stop-color="#0EAAC3"/>
</linearGradient>
<linearGradient id="paint76_linear_1807_17207" x1="1449.35" y1="862.905" x2="1056.41" y2="503.792" gradientUnits="userSpaceOnUse">
<stop stop-color="#ECFC7F"/>
<stop offset="1" stop-color="#0EAAC3"/>
</linearGradient>
<linearGradient id="paint77_linear_1807_17207" x1="1462.68" y1="848.295" x2="1069.77" y2="489.198" gradientUnits="userSpaceOnUse">
<stop stop-color="#ECFC7F"/>
<stop offset="1" stop-color="#0EAAC3"/>
</linearGradient>
<linearGradient id="paint78_linear_1807_17207" x1="1475.97" y1="833.649" x2="1083.14" y2="474.619" gradientUnits="userSpaceOnUse">
<stop stop-color="#ECFC7F"/>
<stop offset="1" stop-color="#0EAAC3"/>
</linearGradient>
<linearGradient id="paint79_linear_1807_17207" x1="1489.38" y1="819.108" x2="1096.47" y2="459.993" gradientUnits="userSpaceOnUse">
<stop stop-color="#ECFC7F"/>
<stop offset="1" stop-color="#0EAAC3"/>
</linearGradient>
<linearGradient id="paint80_linear_1807_17207" x1="1502.73" y1="804.518" x2="1109.81" y2="445.404" gradientUnits="userSpaceOnUse">
<stop stop-color="#ECFC7F"/>
<stop offset="1" stop-color="#0EAAC3"/>
</linearGradient>
<linearGradient id="paint81_linear_1807_17207" x1="1422.23" y1="892.536" x2="1029.33" y2="533.449" gradientUnits="userSpaceOnUse">
<stop stop-color="#ECFC7F"/>
<stop offset="1" stop-color="#0EAAC3"/>
</linearGradient>
<linearGradient id="paint82_linear_1807_17207" x1="1435.58" y1="877.945" x2="1042.66" y2="518.859" gradientUnits="userSpaceOnUse">
<stop stop-color="#ECFC7F"/>
<stop offset="1" stop-color="#0EAAC3"/>
</linearGradient>
<linearGradient id="paint83_linear_1807_17207" x1="1448.92" y1="863.353" x2="1056.02" y2="504.249" gradientUnits="userSpaceOnUse">
<stop stop-color="#ECFC7F"/>
<stop offset="1" stop-color="#0EAAC3"/>
</linearGradient>
<linearGradient id="paint84_linear_1807_17207" x1="1462.2" y1="848.689" x2="1069.39" y2="489.686" gradientUnits="userSpaceOnUse">
<stop stop-color="#ECFC7F"/>
<stop offset="1" stop-color="#0EAAC3"/>
</linearGradient>
<linearGradient id="paint85_linear_1807_17207" x1="1475.61" y1="834.147" x2="1082.71" y2="475.06" gradientUnits="userSpaceOnUse">
<stop stop-color="#ECFC7F"/>
<stop offset="1" stop-color="#0EAAC3"/>
</linearGradient>
<linearGradient id="paint86_linear_1807_17207" x1="1488.96" y1="819.558" x2="1096.06" y2="460.471" gradientUnits="userSpaceOnUse">
<stop stop-color="#ECFC7F"/>
<stop offset="1" stop-color="#0EAAC3"/>
</linearGradient>
<linearGradient id="paint87_linear_1807_17207" x1="1440.01" y1="508.215" x2="1352.97" y2="507.719" gradientUnits="userSpaceOnUse">
<stop stop-color="#44A08D"/>
<stop offset="1" stop-color="#093637"/>
</linearGradient>
<linearGradient id="paint88_linear_1807_17207" x1="1352.96" y1="544.223" x2="1280.06" y2="544.223" gradientUnits="userSpaceOnUse">
<stop stop-color="#344868"/>
<stop offset="1" stop-color="#0EAAC3"/>
</linearGradient>
<linearGradient id="paint89_linear_1807_17207" x1="1344.55" y1="505.632" x2="1161.91" y2="297.781" gradientUnits="userSpaceOnUse">
<stop stop-color="#344868"/>
<stop offset="1" stop-color="#0EAAC3"/>
</linearGradient>
<linearGradient id="paint90_linear_1807_17207" x1="1406.87" y1="95.5858" x2="1502.06" y2="176.542" gradientUnits="userSpaceOnUse">
<stop stop-color="#344868"/>
<stop offset="1" stop-color="#0EAAC3"/>
</linearGradient>
<linearGradient id="paint91_linear_1807_17207" x1="1329.65" y1="66.4449" x2="1425.73" y2="67.328" gradientUnits="userSpaceOnUse">
<stop stop-color="#44A08D"/>
<stop offset="1" stop-color="#093637"/>
</linearGradient>
<linearGradient id="paint92_linear_1807_17207" x1="1293.64" y1="60.0337" x2="1377.7" y2="60.8064" gradientUnits="userSpaceOnUse">
<stop stop-color="#44A08D"/>
<stop offset="1" stop-color="#093637"/>
</linearGradient>
<linearGradient id="paint93_linear_1807_17207" x1="1251.61" y1="-18.5814" x2="1251.61" y2="116.599" gradientUnits="userSpaceOnUse">
<stop stop-color="#344868"/>
<stop offset="1" stop-color="#0EAAC3"/>
</linearGradient>
<linearGradient id="paint94_linear_1807_17207" x1="1456.7" y1="332.218" x2="1085.52" y2="16.4906" gradientUnits="userSpaceOnUse">
<stop stop-color="#ECFC7F"/>
<stop offset="1" stop-color="#0EAAC3"/>
</linearGradient>
<linearGradient id="paint95_linear_1807_17207" x1="1464.96" y1="323.42" x2="1093.77" y2="7.6936" gradientUnits="userSpaceOnUse">
<stop stop-color="#ECFC7F"/>
<stop offset="1" stop-color="#0EAAC3"/>
</linearGradient>
<linearGradient id="paint96_linear_1807_17207" x1="1473.21" y1="314.604" x2="1102.03" y2="-1.12377" gradientUnits="userSpaceOnUse">
<stop stop-color="#ECFC7F"/>
<stop offset="1" stop-color="#0EAAC3"/>
</linearGradient>
<linearGradient id="paint97_linear_1807_17207" x1="1481.46" y1="305.806" x2="1110.28" y2="-9.92152" gradientUnits="userSpaceOnUse">
<stop stop-color="#ECFC7F"/>
<stop offset="1" stop-color="#0EAAC3"/>
</linearGradient>
<linearGradient id="paint98_linear_1807_17207" x1="601.1" y1="59.9532" x2="685.029" y2="60.7248" gradientUnits="userSpaceOnUse">
<stop stop-color="#44A08D"/>
<stop offset="1" stop-color="#093637"/>
</linearGradient>
<linearGradient id="paint99_linear_1807_17207" x1="729.291" y1="48.4997" x2="664.121" y2="131.828" gradientUnits="userSpaceOnUse">
<stop stop-color="#344868"/>
<stop offset="1" stop-color="#0EAAC3"/>
</linearGradient>
<linearGradient id="paint100_linear_1807_17207" x1="851.682" y1="39.702" x2="874.366" y2="39.702" gradientUnits="userSpaceOnUse">
<stop stop-color="#344868"/>
<stop offset="1" stop-color="#0EAAC3"/>
</linearGradient>
<linearGradient id="paint101_linear_1807_17207" x1="856.561" y1="-9.24468" x2="907.295" y2="65.6173" gradientUnits="userSpaceOnUse">
<stop stop-color="#ECFC7F"/>
<stop offset="1" stop-color="#0EAAC3"/>
</linearGradient>
<linearGradient id="paint102_linear_1807_17207" x1="259.567" y1="843.682" x2="222.934" y2="843.682" gradientUnits="userSpaceOnUse">
<stop stop-color="#344868"/>
<stop offset="1" stop-color="#0EAAC3"/>
</linearGradient>
<linearGradient id="paint103_linear_1807_17207" x1="186.301" y1="843.682" x2="222.936" y2="843.851" gradientUnits="userSpaceOnUse">
<stop stop-color="#44A08D"/>
<stop offset="1" stop-color="#093637"/>
</linearGradient>
<linearGradient id="paint104_linear_1807_17207" x1="775.932" y1="997.094" x2="812.114" y2="997.332" gradientUnits="userSpaceOnUse">
<stop stop-color="#44A08D"/>
<stop offset="1" stop-color="#093637"/>
</linearGradient>
<linearGradient id="paint105_linear_1807_17207" x1="354.055" y1="976.109" x2="441.555" y2="976.109" gradientUnits="userSpaceOnUse">
<stop stop-color="#ECFC7F"/>
<stop offset="1" stop-color="#0EAAC3"/>
</linearGradient>
<linearGradient id="paint106_linear_1807_17207" x1="354.054" y1="976.109" x2="441.554" y2="976.109" gradientUnits="userSpaceOnUse">
<stop stop-color="#ECFC7F"/>
<stop offset="1" stop-color="#0EAAC3"/>
</linearGradient>
<linearGradient id="paint107_linear_1807_17207" x1="354.072" y1="976.109" x2="441.555" y2="976.109" gradientUnits="userSpaceOnUse">
<stop stop-color="#ECFC7F"/>
<stop offset="1" stop-color="#0EAAC3"/>
</linearGradient>
<linearGradient id="paint108_linear_1807_17207" x1="962.163" y1="47.875" x2="1049.65" y2="47.875" gradientUnits="userSpaceOnUse">
<stop stop-color="#ECFC7F"/>
<stop offset="1" stop-color="#0EAAC3"/>
</linearGradient>
<linearGradient id="paint109_linear_1807_17207" x1="962.162" y1="47.875" x2="1049.66" y2="47.875" gradientUnits="userSpaceOnUse">
<stop stop-color="#ECFC7F"/>
<stop offset="1" stop-color="#0EAAC3"/>
</linearGradient>
<linearGradient id="paint110_linear_1807_17207" x1="962.162" y1="47.875" x2="1049.66" y2="47.875" gradientUnits="userSpaceOnUse">
<stop stop-color="#ECFC7F"/>
<stop offset="1" stop-color="#0EAAC3"/>
</linearGradient>
<linearGradient id="paint111_linear_1807_17207" x1="549.449" y1="237.92" x2="586.547" y2="238.3" gradientUnits="userSpaceOnUse">
<stop stop-color="#44A08D"/>
<stop offset="1" stop-color="#093637"/>
</linearGradient>
<linearGradient id="paint112_linear_1807_17207" x1="602.158" y1="238.517" x2="654.837" y2="239.057" gradientUnits="userSpaceOnUse">
<stop stop-color="#44A08D"/>
<stop offset="1" stop-color="#093637"/>
</linearGradient>
<linearGradient id="paint113_linear_1807_17207" x1="678.576" y1="239.709" x2="762.417" y2="240.569" gradientUnits="userSpaceOnUse">
<stop stop-color="#44A08D"/>
<stop offset="1" stop-color="#093637"/>
</linearGradient>
<linearGradient id="paint114_linear_1807_17207" x1="786.158" y1="238.517" x2="838.837" y2="239.057" gradientUnits="userSpaceOnUse">
<stop stop-color="#44A08D"/>
<stop offset="1" stop-color="#093637"/>
</linearGradient>
<linearGradient id="paint115_linear_1807_17207" x1="854.449" y1="237.92" x2="891.547" y2="238.3" gradientUnits="userSpaceOnUse">
<stop stop-color="#44A08D"/>
<stop offset="1" stop-color="#093637"/>
</linearGradient>
<clipPath id="clip0_1807_17207">
<rect width="1440" height="1024" fill="white"/>
</clipPath>
</defs>
</svg>
