<svg width="349" height="349" viewBox="0 0 349 349" fill="none" xmlns="http://www.w3.org/2000/svg">
<path d="M174.5 349C270.874 349 349 270.874 349 174.5C349 78.1263 270.874 0 174.5 0C78.1263 0 0 78.1263 0 174.5C0 270.874 78.1263 349 174.5 349Z" fill="#FF914A"/>
<path d="M216.431 247.899C216.842 250.293 220.877 271.84 236.268 277.176C252.754 282.922 269.992 265.547 276.969 258.57C291.745 243.726 298.653 222.726 300.705 216.501C300.911 215.817 301.116 215.27 301.253 214.859C302.963 209.318 308.914 189.071 305.767 162.324C305.22 157.605 303.51 144.95 297.833 129.969C293.455 118.409 279.363 80.923 239.483 58.0759C196.799 33.5871 154.593 42.3429 143.307 45.1474C135.44 47.0628 86.1205 59.9912 58.9639 108.832C34.5435 152.748 38.8529 206.172 61.5632 240.784C75.3126 261.716 100.964 283.606 110.062 278.339C114.235 275.876 114.372 268.078 113.619 261.374" stroke="white" stroke-width="16.4171" stroke-miterlimit="10" stroke-linecap="round" stroke-linejoin="round"/>
<path d="M100.758 270.199V162.462C100.758 151.654 104.247 142.488 111.293 135.1C118.338 127.507 126.752 123.745 136.671 123.745H145.974C148.573 123.745 150.557 124.703 152.062 126.618C153.567 128.397 154.319 130.449 154.319 132.911C154.319 135.374 153.567 137.494 152.062 139.41C150.557 141.188 148.573 142.078 145.974 142.078H140.707C135.303 142.078 130.856 143.856 127.299 147.345C123.742 150.833 122.032 155.28 122.032 160.547V181H148.368C150.146 181 151.514 181.821 152.609 183.462C153.703 184.967 154.251 186.746 154.251 188.935C154.251 191.124 153.703 192.97 152.609 194.612C151.514 196.117 150.078 196.87 148.368 196.87H122.032V270.268C122.032 272.32 120.938 273.961 118.817 275.33C116.628 276.561 114.097 277.176 111.087 277.176C108.146 277.176 105.615 276.561 103.563 275.33C101.648 273.893 100.758 272.183 100.758 270.199Z" fill="white" stroke="white" stroke-width="0.684045" stroke-miterlimit="10"/>
<path d="M161.775 207.337V270.748C161.775 272.321 162.528 273.553 163.964 274.51C165.538 275.536 167.521 276.084 169.916 276.084C171.899 276.084 173.609 275.536 175.114 274.51C176.551 273.553 177.303 272.321 177.303 270.748V265.139C181.818 273.074 188.727 277.041 198.167 277.041C202.75 277.041 206.854 275.605 210.411 272.664C214.036 269.859 216.841 266.097 218.688 261.377C219.167 262.334 223.887 250.5 223.887 246.465V207.132C223.887 205.353 223.066 203.985 221.356 203.028C219.782 202.207 217.867 201.796 215.541 201.796C213.421 201.796 211.574 202.207 209.932 203.028C208.29 203.985 207.401 205.353 207.401 207.132V246.396C207.401 251.116 205.965 254.947 203.023 257.957C200.219 260.966 196.799 262.471 192.831 262.471C188.864 262.471 185.443 261.035 182.502 258.093C179.697 255.152 178.261 251.184 178.261 246.191V207.337C178.261 205.969 177.44 204.738 175.73 203.575C174.088 202.412 172.104 201.865 169.916 201.865C167.59 201.865 165.674 202.412 164.101 203.575C162.528 204.738 161.775 206.037 161.775 207.337Z" fill="white" stroke="white" stroke-width="0.684045" stroke-miterlimit="10"/>
<path d="M138.997 249.678V186.199C138.997 184.625 139.749 183.394 141.186 182.436C142.759 181.41 144.743 180.863 147.137 180.863C149.121 180.863 150.831 181.41 152.336 182.436C153.772 183.394 154.525 184.625 154.525 186.199V191.808C159.039 183.873 165.948 179.905 175.388 179.905C179.971 179.905 184.075 181.342 187.632 184.283C191.258 187.088 194.062 190.85 195.909 195.57C198.509 190.44 201.929 186.609 206.102 184.01C210.411 181.273 214.857 179.905 219.577 179.905C226.965 179.905 233.395 182.71 238.662 188.387C244.066 193.928 246.802 201.384 246.802 210.756V249.61C246.802 250.978 245.981 252.209 244.271 253.372C242.63 254.535 240.646 255.082 238.457 255.082C236.336 255.082 234.49 254.535 232.848 253.372C231.206 252.209 230.317 250.978 230.317 249.61V210.824C230.317 205.694 228.88 201.658 225.939 198.785C222.998 195.844 219.646 194.407 215.747 194.407C211.916 194.407 208.427 195.844 205.418 198.785C202.476 201.726 201.04 205.625 201.04 210.551V249.815C201.04 251.593 200.219 252.961 198.509 253.919C196.935 254.74 195.02 255.15 192.694 255.15C190.574 255.15 188.727 254.74 187.085 253.919C185.443 252.961 184.554 251.593 184.554 249.815V210.687C184.554 205.967 183.118 202.137 180.176 199.127C177.372 196.117 173.951 194.612 169.984 194.612C166.017 194.612 162.596 196.049 159.655 198.99C156.85 201.932 155.414 205.899 155.414 210.893V249.746C155.414 251.114 154.593 252.346 152.883 253.509C151.241 254.671 149.257 255.219 147.069 255.219C144.743 255.219 142.827 254.671 141.254 253.509C139.749 252.277 138.997 250.978 138.997 249.678Z" fill="white" stroke="white" stroke-width="0.684045" stroke-miterlimit="10"/>
</svg>
