<svg width="14" height="16" viewBox="0 0 14 16" fill="none" xmlns="http://www.w3.org/2000/svg">
<path fill-rule="evenodd" clip-rule="evenodd" d="M8.98817 8.27792C8.87324 7.95293 8.66038 7.67156 8.37892 7.47255C8.09745 7.27354 7.76122 7.16667 7.4165 7.16667V6.75H6.58317V7.16667C6.14114 7.16667 5.71722 7.34226 5.40466 7.65482C5.0921 7.96738 4.9165 8.39131 4.9165 8.83333C4.9165 9.27536 5.0921 9.69928 5.40466 10.0118C5.71722 10.3244 6.14114 10.5 6.58317 10.5V12.1667C6.22067 12.1667 5.91192 11.9354 5.79692 11.6112C5.77986 11.5582 5.75233 11.5091 5.71597 11.4669C5.67962 11.4247 5.63516 11.3902 5.58524 11.3655C5.53532 11.3408 5.48094 11.3263 5.42533 11.3229C5.36972 11.3196 5.314 11.3274 5.26147 11.346C5.20894 11.3645 5.16066 11.3935 5.1195 11.431C5.07834 11.4685 5.04512 11.514 5.02181 11.5646C4.99851 11.6152 4.98559 11.6699 4.98382 11.7256C4.98205 11.7813 4.99146 11.8368 5.0115 11.8887C5.12644 12.2137 5.33929 12.4951 5.62076 12.6941C5.90222 12.8931 6.23846 13 6.58317 13V13.4167H7.4165V13C7.85853 13 8.28245 12.8244 8.59501 12.5118C8.90758 12.1993 9.08317 11.7754 9.08317 11.3333C9.08317 10.8913 8.90758 10.4674 8.59501 10.1548C8.28245 9.84226 7.85853 9.66667 7.4165 9.66667V8C7.58884 7.99996 7.75696 8.05335 7.89769 8.15282C8.03843 8.25229 8.14486 8.39294 8.20234 8.55542C8.23914 8.65962 8.31582 8.74495 8.41553 8.79261C8.4649 8.81621 8.51844 8.82986 8.57308 8.83277C8.62772 8.83568 8.68241 8.8278 8.734 8.80958C8.7856 8.79136 8.83311 8.76316 8.8738 8.72658C8.9145 8.69 8.9476 8.64576 8.9712 8.59639C8.9948 8.54702 9.00845 8.49348 9.01136 8.43884C9.01427 8.3842 9.00639 8.32952 8.98817 8.27792V8.27792ZM6.58317 8C6.36216 8 6.1502 8.0878 5.99392 8.24408C5.83763 8.40036 5.74984 8.61232 5.74984 8.83333C5.74984 9.05435 5.83763 9.26631 5.99392 9.42259C6.1502 9.57887 6.36216 9.66667 6.58317 9.66667V8ZM7.4165 12.1667C7.63752 12.1667 7.84948 12.0789 8.00576 11.9226C8.16204 11.7663 8.24984 11.5543 8.24984 11.3333C8.24984 11.1123 8.16204 10.9004 8.00576 10.7441C7.84948 10.5878 7.63752 10.5 7.4165 10.5V12.1667Z" fill="white"/>
<path fill-rule="evenodd" clip-rule="evenodd" d="M2.48025 1.59208C3.50275 1.09167 5.18025 0.5 7.01608 0.5C8.81358 0.5 10.4469 1.06708 11.464 1.56083L11.5215 1.58875C11.8282 1.74042 12.0757 1.88375 12.2498 2L10.7107 4.25C14.259 7.8775 16.9998 15.4988 7.01608 15.4988C-2.96767 15.4988 -0.300588 8.01583 3.27858 4.25L1.74941 2C1.86733 1.92292 2.01691 1.83333 2.19525 1.73833C2.28358 1.69083 2.37858 1.64208 2.48025 1.5925V1.59208ZM9.7215 4.22L10.9536 2.41875C9.80775 2.50125 8.44441 2.77042 7.13191 3.15042C6.19441 3.42125 5.15275 3.38 4.18816 3.20208C3.94509 3.15702 3.70369 3.10338 3.46441 3.04125L4.26441 4.21917C5.979 4.82958 8.0065 4.82958 9.7215 4.22V4.22ZM3.78316 4.92917C5.78941 5.70417 8.20066 5.70417 10.2069 4.92833C11.0444 5.81112 11.7449 6.81433 12.2852 7.90458C12.8486 9.05375 13.1552 10.2025 13.1052 11.1925C13.0569 12.1479 12.6811 12.9642 11.8227 13.5708C10.9282 14.2029 9.42358 14.6654 7.01566 14.6654C4.60525 14.6654 3.09358 14.2108 2.19066 13.5858C1.32608 12.9867 0.946496 12.1817 0.892746 11.2392C0.836496 10.26 1.1365 9.11708 1.69775 7.96C2.23316 6.85667 2.98025 5.79458 3.78316 4.92917V4.92917ZM3.304 2.13167C3.63733 2.23083 3.98566 2.31708 4.339 2.3825C5.23483 2.5475 6.13316 2.57167 6.89983 2.34958C7.79325 2.08931 8.70194 1.88461 9.62066 1.73667C8.854 1.50583 7.95733 1.33333 7.01566 1.33333C5.58025 1.33333 4.2415 1.73375 3.304 2.13167V2.13167Z" fill="white"/>
</svg>
