<svg width="30" height="30" viewBox="0 0 30 30" fill="none" xmlns="http://www.w3.org/2000/svg">
<rect x="0.5" y="0.5" width="29" height="29" rx="5.5" fill="white"/>
<g clip-path="url(#clip0_278_1151)">
<path d="M14.9999 11.4045L14.3725 10.7596C12.8999 9.24586 10.1997 9.76823 9.22491 11.6714C8.76728 12.5665 8.66403 13.8589 9.49966 15.5082C10.3047 17.0964 11.9794 18.9986 14.9999 21.0706C18.0204 18.9986 19.6943 17.0964 20.5002 15.5082C21.3358 13.858 21.2334 12.5665 20.7749 11.6714C19.8002 9.76823 17.0999 9.24498 15.6273 10.7587L14.9999 11.4045ZM14.9999 22.125C1.58353 13.2595 10.869 6.33998 14.8459 10.0001C14.8984 10.0482 14.95 10.0981 14.9999 10.1497C15.0493 10.0982 15.1006 10.0485 15.1539 10.001C19.1299 6.33823 28.4163 13.2586 14.9999 22.125Z" fill="#BEBEBE"/>
</g>
<rect x="0.5" y="0.5" width="29" height="29" rx="5.5" stroke="#BEBEBE"/>
<defs>
<clipPath id="clip0_278_1151">
<rect width="14" height="14" fill="white" transform="translate(8 9)"/>
</clipPath>
</defs>
</svg>
