<svg width="40" height="40" viewBox="0 0 40 40" fill="none" xmlns="http://www.w3.org/2000/svg">
<rect width="40" height="40" rx="20" fill="url(#paint0_linear_274_1237)"/>
<g clip-path="url(#clip0_274_1237)">
<path fill-rule="evenodd" clip-rule="evenodd" d="M10.8333 12.365C10.8333 11.9588 10.9946 11.5692 11.2819 11.282C11.5691 10.9947 11.9587 10.8334 12.3649 10.8334H27.6333C27.8346 10.833 28.034 10.8724 28.22 10.9493C28.4061 11.0261 28.5752 11.1389 28.7176 11.2812C28.8601 11.4234 28.973 11.5924 29.0501 11.7784C29.1271 11.9644 29.1667 12.1637 29.1666 12.365V27.6334C29.1668 27.8347 29.1273 28.0341 29.0504 28.2202C28.9735 28.4063 28.8606 28.5754 28.7183 28.7178C28.5759 28.8602 28.4069 28.9732 28.2209 29.0502C28.0348 29.1272 27.8354 29.1668 27.6341 29.1667H12.3649C12.1637 29.1667 11.9645 29.1271 11.7786 29.05C11.5927 28.973 11.4238 28.8601 11.2816 28.7178C11.1393 28.5755 11.0265 28.4065 10.9496 28.2206C10.8727 28.0347 10.8331 27.8354 10.8333 27.6342V12.365ZM18.0899 17.8234H20.5724V19.07C20.9308 18.3534 21.8474 17.7084 23.2249 17.7084C25.8658 17.7084 26.4916 19.1359 26.4916 21.755V26.6067H23.8191V22.3517C23.8191 20.86 23.4608 20.0184 22.5508 20.0184C21.2883 20.0184 20.7633 20.9259 20.7633 22.3517V26.6067H18.0899V17.8234ZM13.5066 26.4925H16.1799V17.7084H13.5066V26.4917V26.4925ZM16.5624 14.8434C16.5675 15.0723 16.5267 15.2999 16.4426 15.5128C16.3585 15.7257 16.2327 15.9197 16.0726 16.0834C15.9125 16.2471 15.7213 16.3771 15.5103 16.4659C15.2993 16.5547 15.0726 16.6004 14.8437 16.6004C14.6147 16.6004 14.3881 16.5547 14.177 16.4659C13.966 16.3771 13.7748 16.2471 13.6147 16.0834C13.4546 15.9197 13.3288 15.7257 13.2447 15.5128C13.1606 15.2999 13.1199 15.0723 13.1249 14.8434C13.1348 14.3941 13.3202 13.9665 13.6415 13.6523C13.9627 13.338 14.3943 13.1621 14.8437 13.1621C15.2931 13.1621 15.7246 13.338 16.0458 13.6523C16.3671 13.9665 16.5525 14.3941 16.5624 14.8434V14.8434Z" fill="white"/>
</g>
<defs>
<linearGradient id="paint0_linear_274_1237" x1="0" y1="0" x2="40" y2="68" gradientUnits="userSpaceOnUse">
<stop stop-color="#FF9344"/>
<stop offset="1" stop-color="#FF54D9"/>
</linearGradient>
<clipPath id="clip0_274_1237">
<rect width="20" height="20" fill="white" transform="translate(10 10)"/>
</clipPath>
</defs>
</svg>
