<svg width="56" height="24" viewBox="0 0 56 24" fill="none" xmlns="http://www.w3.org/2000/svg">
<rect y="0.5" width="56" height="23" rx="11.5" fill="#1A1A40"/>
<g clip-path="url(#clip0_1173_3248)">
<path d="M16.9999 7.40454L16.3725 6.75967C14.8999 5.24592 12.1997 5.76829 11.2249 7.67142C10.7673 8.56654 10.664 9.85892 11.4997 11.5083C12.3047 13.0964 13.9794 14.9987 16.9999 17.0707C20.0204 14.9987 21.6943 13.0964 22.5002 11.5083C23.3358 9.85804 23.2334 8.56654 22.7749 7.67142C21.8002 5.76829 19.0999 5.24504 17.6273 6.75879L16.9999 7.40454ZM16.9999 18.125C3.58353 9.25954 12.869 2.34004 16.8459 6.00017C16.8984 6.04829 16.95 6.09817 16.9999 6.14979C17.0493 6.09821 17.1006 6.04859 17.1539 6.00104C21.1299 2.33829 30.4163 9.25867 16.9999 18.125Z" fill="white"/>
</g>
<path d="M32.94 8.88L30.15 15.5H29.44L32.26 8.94H28.26V8.34H32.94V8.88ZM33.952 10.16C33.9987 9.55333 34.232 9.07667 34.652 8.73C35.0787 8.37667 35.6287 8.2 36.302 8.2C36.7487 8.2 37.132 8.28 37.452 8.44C37.772 8.6 38.012 8.82 38.172 9.1C38.3387 9.37333 38.422 9.68333 38.422 10.03C38.422 10.45 38.2987 10.8133 38.052 11.12C37.8054 11.4267 37.4554 11.6167 37.002 11.69V11.74C37.4754 11.8333 37.852 12.04 38.132 12.36C38.412 12.6733 38.552 13.0867 38.552 13.6C38.552 14.1733 38.3587 14.6433 37.972 15.01C37.592 15.37 37.0387 15.55 36.312 15.55C35.6187 15.55 35.0487 15.37 34.602 15.01C34.1554 14.6433 33.8987 14.1267 33.832 13.46H34.512C34.572 13.9067 34.7587 14.27 35.072 14.55C35.3854 14.8233 35.7987 14.96 36.312 14.96C36.8187 14.96 37.2054 14.8267 37.472 14.56C37.7454 14.2933 37.882 13.9533 37.882 13.54C37.882 12.5267 37.152 12.02 35.692 12.02H35.472V11.43H35.702C37.062 11.43 37.742 10.9867 37.742 10.1C37.742 9.71333 37.6154 9.40333 37.362 9.17C37.1087 8.93 36.7487 8.81 36.282 8.81C35.8287 8.81 35.452 8.93 35.152 9.17C34.8587 9.40333 34.6854 9.73333 34.632 10.16H33.952ZM41.2216 11.78C40.8083 11.6467 40.4916 11.4367 40.2716 11.15C40.0583 10.8633 39.9516 10.5167 39.9516 10.11C39.9516 9.75 40.0416 9.43 40.2216 9.15C40.4083 8.86333 40.6783 8.64 41.0316 8.48C41.385 8.31333 41.8083 8.23 42.3016 8.23C42.795 8.23 43.2183 8.31333 43.5716 8.48C43.925 8.64 44.1916 8.86333 44.3716 9.15C44.5583 9.43 44.6516 9.75 44.6516 10.11C44.6516 10.51 44.5416 10.8567 44.3216 11.15C44.1083 11.4433 43.795 11.6533 43.3816 11.78C43.835 11.8933 44.1916 12.11 44.4516 12.43C44.7116 12.75 44.8416 13.14 44.8416 13.6C44.8416 14.0267 44.735 14.4 44.5216 14.72C44.315 15.0333 44.0183 15.2767 43.6316 15.45C43.2516 15.6233 42.8083 15.71 42.3016 15.71C41.795 15.71 41.3483 15.6233 40.9616 15.45C40.5816 15.2767 40.285 15.0333 40.0716 14.72C39.865 14.4 39.7616 14.0267 39.7616 13.6C39.7616 13.14 39.8916 12.75 40.1516 12.43C40.4116 12.11 40.7683 11.8933 41.2216 11.78ZM43.9716 10.19C43.9716 9.75 43.8216 9.41 43.5216 9.17C43.2216 8.93 42.815 8.81 42.3016 8.81C41.7883 8.81 41.3816 8.93 41.0816 9.17C40.7816 9.40333 40.6316 9.74333 40.6316 10.19C40.6316 10.6033 40.785 10.9333 41.0916 11.18C41.3983 11.4267 41.8016 11.55 42.3016 11.55C42.8016 11.55 43.205 11.4267 43.5116 11.18C43.8183 10.9333 43.9716 10.6033 43.9716 10.19ZM42.3016 12.09C41.755 12.09 41.3083 12.2133 40.9616 12.46C40.615 12.7067 40.4416 13.08 40.4416 13.58C40.4416 14.06 40.6083 14.4367 40.9416 14.71C41.275 14.9833 41.7283 15.12 42.3016 15.12C42.8683 15.12 43.3183 14.9833 43.6516 14.71C43.985 14.43 44.1516 14.0533 44.1516 13.58C44.1516 13.0867 43.9783 12.7167 43.6316 12.47C43.2916 12.2167 42.8483 12.09 42.3016 12.09Z" fill="white"/>
<defs>
<clipPath id="clip0_1173_3248">
<rect width="14" height="14" fill="white" transform="translate(10 5)"/>
</clipPath>
</defs>
</svg>
