<svg width="31" height="14" viewBox="0 0 31 14" fill="none" xmlns="http://www.w3.org/2000/svg">
<path d="M19.4812 5.86646H14.2397C14.1359 5.86646 14.084 5.9443 14.084 6.02214V6.43731C14.084 6.54111 14.1618 6.593 14.2397 6.593H18.1579V8.77265C18.0541 8.61696 17.9243 8.46127 17.7946 8.30558C17.3275 7.83852 16.8345 7.60498 16.3155 7.60498C15.9004 7.60498 15.563 7.81257 15.2776 8.17584C15.0441 8.48722 14.9143 8.8505 14.9143 9.18782C14.9143 9.52515 14.9662 9.96627 15.2257 10.3814C15.5371 10.8745 16.056 11.0301 16.5231 11.0301C17.1199 11.0301 17.6129 10.615 17.6129 10.0701C17.6129 9.75868 17.4572 9.4992 17.1718 9.31756L16.8864 9.16188V9.4992C16.8864 9.52515 16.8864 9.5511 16.8864 9.57705C16.8864 9.60299 16.8864 9.62894 16.8864 9.62894C16.8604 9.75868 16.6529 9.94032 16.4193 9.94032C16.2117 9.94032 16.0301 9.86248 15.9004 9.73273C15.8225 9.65489 15.7706 9.4992 15.7966 9.39541C15.7966 9.23972 15.8485 9.10998 15.9523 8.98024C16.082 8.82455 16.2117 8.7467 16.4193 8.7467C16.9383 8.7467 17.3794 8.98024 17.7427 9.4992C18.0281 9.94032 18.1838 10.3555 18.1838 10.8226V11.9124L18.9622 12.3795C18.9882 12.4054 19.0141 12.4054 19.0401 12.4054C19.1439 12.4054 19.1958 12.3276 19.1958 12.2497V6.61895H19.5072C19.6109 6.61895 19.6628 6.54111 19.6628 6.46326V6.04809C19.6628 5.9443 19.585 5.86646 19.4812 5.86646Z" fill="#ED1C24"/>
<path d="M29.9637 5.86656H25.293H24.6702H23.3209C23.2172 5.86656 23.1653 5.9444 23.1653 6.02225V6.7488C22.5165 6.07414 21.9457 5.73682 21.4267 5.73682C20.9337 5.73682 20.5185 5.84061 20.1553 6.12604C19.8179 6.38552 19.6104 6.72285 19.6104 7.11207C19.6104 8.27974 20.9078 8.25379 21.2451 8.0981C21.297 8.07215 21.3748 8.02026 21.4527 8.02026C21.7122 8.02026 21.8159 8.22784 21.8159 8.40948C21.8159 8.66896 21.4267 8.9025 20.9597 8.9025C20.7002 8.9025 20.5445 8.82465 20.4407 8.66896L20.2331 8.35758L20.1034 8.72086C20.0774 8.7987 20.0255 8.9025 20.0255 9.03224C20.0255 9.29172 20.1553 9.5512 20.4147 9.78473C20.6483 9.99232 20.9337 10.0961 21.2451 10.0961C21.7381 10.0961 22.1533 9.91448 22.4128 9.5512C22.6463 9.26577 22.7501 8.92844 22.7501 8.53922C22.7501 8.33164 22.6722 8.0981 22.4906 7.83862C22.283 7.52724 22.0235 7.37155 21.7381 7.37155C21.6343 7.37155 21.5046 7.3975 21.3748 7.4494C21.3229 7.47534 21.2191 7.50129 21.1932 7.50129C21.1413 7.50129 21.0635 7.47535 21.0116 7.3975C20.9597 7.3456 20.9078 7.26776 20.9078 7.13802C20.9078 6.85259 21.1672 6.56716 21.6343 6.56716H21.6603C21.9716 6.56716 22.283 6.72285 22.5684 7.00828C22.802 7.24181 22.9836 7.47534 23.1393 7.73483V11.8606L23.9178 12.3277C23.9437 12.3536 23.9696 12.3536 23.9956 12.3536C24.0994 12.3536 24.1513 12.2758 24.1513 12.1979V6.61905H24.6443H25.2671H25.3449V10.2259L26.279 10.6151C26.305 10.6151 26.3309 10.6151 26.3309 10.6151C26.4088 10.6151 26.4866 10.5632 26.4866 10.4594V10.4334C26.6423 9.36956 27.1094 8.64301 27.8878 8.20189C27.8878 8.25379 27.8878 8.33164 27.8878 8.40948C27.8878 8.56517 27.8878 8.95439 27.9138 9.16198C27.9138 9.29172 27.9138 9.36956 27.9397 9.44741C27.9397 9.86258 27.9916 10.4853 28.1214 10.9524C28.3808 11.8346 28.822 12.0422 29.1333 12.0422H29.1593C29.3409 12.0422 29.4966 11.9903 29.6004 11.8865C29.6523 11.8346 29.7301 11.7308 29.7301 11.5492C29.7301 11.3935 29.7042 11.2638 29.6523 11.16L29.5745 11.0302L29.4188 11.0562C29.2631 11.1081 29.1852 11.1081 29.1852 11.0821H29.1593C29.1074 11.0821 29.1074 11.0821 29.0814 11.0562C29.0295 11.0302 28.9258 10.9524 28.8479 10.667C28.796 10.4594 28.7701 10.174 28.7701 10.0183C28.7701 8.8506 29.0036 7.96836 29.3928 7.78672H29.4188C29.4707 7.76078 29.5226 7.70888 29.5226 7.63103C29.5226 7.60509 29.5226 7.57914 29.4966 7.55319V7.52724C29.315 7.16397 28.9258 6.90448 28.4068 6.77474H28.3549H28.303C27.8878 6.85259 27.3948 7.13802 26.7721 7.65698C26.6164 7.78672 26.4607 7.91646 26.3309 8.04621V6.61905H29.9637C30.0675 6.61905 30.1194 6.54121 30.1194 6.46337V6.04819C30.1453 5.9444 30.0675 5.86656 29.9637 5.86656Z" fill="#ED1C24"/>
<path d="M12.3725 7.78684C12.3725 7.96847 12.3725 8.12416 12.3466 8.27985C12.2947 9.0064 12.1131 9.68105 11.8276 10.3038C11.7238 10.5633 11.5941 10.7968 11.4384 11.0304C10.3486 12.7429 8.42842 13.8847 6.24877 13.8847C5.31464 13.8847 4.4324 13.6771 3.65395 13.3138C1.5781 12.3537 0.125 10.226 0.125 7.78684C0.125 5.37365 1.5262 3.2978 3.52421 2.31177C3.36852 2.51935 3.21283 2.72694 3.08309 2.96047C3.08309 2.98642 3.05715 2.98642 3.05715 3.01237C2.9793 3.09021 2.90146 3.14211 2.82361 3.21995C2.71982 3.2978 2.64197 3.40159 2.53818 3.47944C2.51223 3.50538 2.48629 3.53133 2.48629 3.53133C2.46034 3.55728 2.43439 3.58323 2.43439 3.58323C2.40844 3.60918 2.38249 3.66107 2.3306 3.68702C2.2787 3.76487 2.20086 3.84271 2.14896 3.92056C1.88948 4.25788 1.68189 4.62116 1.5262 5.01038C1.50025 5.03633 1.50025 5.08822 1.47431 5.11417C1.44836 5.16607 1.44836 5.21796 1.42241 5.24391C1.42241 5.26986 1.39646 5.29581 1.39646 5.32176C1.37051 5.3996 1.34456 5.4515 1.31862 5.52934C1.29267 5.58124 1.29267 5.63314 1.26672 5.65908C1.26672 5.68503 1.24077 5.71098 1.24077 5.73693C1.24077 5.78883 1.21482 5.84072 1.21482 5.89262C1.18888 6.04831 1.16293 6.204 1.13698 6.35968C1.13698 6.41158 1.13698 6.43753 1.11103 6.48943C1.11103 6.51537 1.11103 6.54132 1.11103 6.59322C1.11103 6.64511 1.11103 6.69701 1.11103 6.72296C1.11103 6.77486 1.11103 6.82675 1.11103 6.87865C1.11103 6.95649 1.11103 7.03434 1.11103 7.11218C1.11103 8.77287 1.86353 10.2779 3.08309 11.2379C4.01723 11.9904 5.1849 12.4575 6.45636 12.4575C7.62403 12.4575 8.6879 12.0942 9.57014 11.4455C10.2188 10.9785 10.7378 10.3817 11.127 9.68105C11.1789 9.57726 11.2308 9.49942 11.2827 9.39562C11.5941 8.74692 11.7757 8.04632 11.7757 7.29382C11.7757 7.24192 11.7757 7.19003 11.7757 7.11218C11.7757 6.93054 11.7757 6.77486 11.7498 6.59322L11.7757 6.61917C11.8536 6.69701 11.9314 6.74891 12.0093 6.82675C12.0871 6.69701 12.165 6.59322 12.2428 6.46348C12.2947 6.69701 12.3206 6.93054 12.3466 7.19003C12.3725 7.42356 12.3725 7.6052 12.3725 7.78684Z" fill="#ED1C24"/>
<path d="M6.97495 2.88256L5.83323 0.780762C3.93901 1.63705 2.6416 3.53127 2.6416 5.73687C2.6416 6.85264 2.97893 7.89056 3.54979 8.74686C3.49789 8.46142 3.49789 8.17599 3.49789 7.86462C3.52384 5.60712 4.95099 3.68696 6.97495 2.88256Z" fill="#F7941D"/>
<path d="M7.88428 3.9205C8.35135 3.79076 8.87031 3.73886 9.36333 3.73886C9.67471 3.73886 10.012 3.76481 10.2975 3.8167L10.2715 2.88257L10.2196 1.0143C10.012 0.988351 9.7785 0.962402 9.54496 0.962402C8.50704 0.962402 7.54695 1.29973 6.76851 1.84464L7.39127 2.98636C6.27549 3.37558 5.36731 4.15403 4.79645 5.16601C4.51102 5.65903 4.30343 6.22989 4.22559 6.82669C4.38128 6.51532 4.56291 6.22989 4.7705 5.9704C5.523 4.98437 6.61282 4.23187 7.88428 3.9205Z" fill="#ED1C24"/>
<path d="M10.6084 2.85669L10.6603 4.18005C10.2192 4.05031 9.77809 3.97246 9.28507 3.97246C8.37689 3.97246 7.5206 4.23194 6.7681 4.67306C5.83396 5.24392 5.10742 6.15211 4.74414 7.21599C5.10742 6.72297 5.54853 6.28185 6.0675 5.94452C6.82 5.45151 7.72818 5.16608 8.68827 5.16608C9.41481 5.16608 10.0895 5.32177 10.7122 5.6072C11.1793 5.81478 11.5945 6.10021 11.9577 6.46349L12.6843 5.37366L13.6184 3.94651C12.7881 3.27186 11.7502 2.85669 10.6084 2.85669Z" fill="#F7941D"/>
<path d="M11.776 7.16402C11.776 7.21592 11.776 7.26782 11.776 7.34566C11.776 8.43548 11.3349 9.34367 11.283 9.44746C11.2311 9.55126 11.1792 9.6291 11.1273 9.73289C10.7381 10.4335 10.2191 11.0303 9.57044 11.4974C8.6882 12.1201 7.62432 12.5094 6.45666 12.5094C5.18519 12.5094 3.99158 12.0682 3.08339 11.2898C1.88977 10.3038 1.11133 8.82471 1.11133 7.16402C1.11133 7.08618 1.11133 7.00833 1.11133 6.93049C1.11133 6.87859 1.11133 6.8267 1.11133 6.7748C1.11133 6.7229 1.11133 6.67101 1.11133 6.64506C1.11133 6.61911 1.11133 6.59316 1.11133 6.54127C1.11133 6.48937 1.11133 6.46342 1.13728 6.41153C1.16322 6.25584 1.18917 6.10015 1.21512 5.94446C1.21512 5.89256 1.24107 5.84067 1.24107 5.78877C1.24107 5.76282 1.26702 5.73687 1.26702 5.71092C1.29297 5.65903 1.29297 5.60713 1.31891 5.58118C1.34486 5.50334 1.37081 5.42549 1.39676 5.3736C1.39676 5.34765 1.42271 5.3217 1.42271 5.29575C1.44865 5.24386 1.44865 5.19196 1.4746 5.16601C1.50055 5.14006 1.50055 5.08817 1.5265 5.06222C1.68219 4.673 1.91572 4.30972 2.14926 3.9724C2.20115 3.89455 2.279 3.81671 2.33089 3.73886C2.35684 3.71291 2.38279 3.66102 2.43469 3.63507C2.46063 3.60912 2.46063 3.58317 2.48658 3.58317C2.51253 3.55722 2.51253 3.53128 2.53848 3.53128C2.61632 3.42748 2.72012 3.34964 2.82391 3.27179C2.90175 3.19395 2.9796 3.14205 3.05744 3.06421C3.05744 3.09016 3.03149 3.09016 3.03149 3.11611C3.03149 3.14205 3.00555 3.168 3.00555 3.168C2.69417 3.79076 2.48658 4.54326 2.40874 5.3217C2.38279 5.52929 2.38279 5.73687 2.38279 5.97041C2.38279 8.77281 4.01753 11.0303 6.04148 11.0303H6.06743C6.11933 11.0303 6.19717 11.0303 6.24907 11.0303C6.5345 11.0303 6.81993 10.9784 7.10536 10.9265C8.48062 10.5632 9.49259 9.29178 9.49259 7.81273C9.49259 7.78678 9.49259 7.76083 9.49259 7.73488C9.46665 6.85265 9.10337 6.04825 8.50656 5.50334C8.92173 5.50334 9.3369 5.58118 9.72613 5.68498C10.4786 5.86661 11.1533 6.22989 11.7501 6.69696L11.776 6.7229C11.7501 6.8267 11.776 7.00833 11.776 7.16402Z" fill="#F7941D"/>
<path d="M11.7753 7.16406C11.7753 7.21595 11.7753 7.2938 11.7753 7.34569C11.7753 8.48741 11.2564 9.47344 11.2564 9.47344C11.2045 9.57724 11.1526 9.65508 11.1007 9.75888C10.7115 10.4595 10.1665 11.0563 9.51784 11.5234C8.60966 12.198 7.51983 12.5353 6.37811 12.5353C5.1326 12.5353 3.93898 12.0942 2.9789 11.3158C1.73339 10.3038 1.00684 8.77284 1.00684 7.16406C1.00684 5.55527 1.73339 4.02433 2.9789 3.01235L3.0308 2.96045C3.0308 2.9864 3.00485 2.9864 3.00485 3.01235C3.00485 3.03829 2.9789 3.03829 2.9789 3.06424C1.75933 4.07622 1.05873 5.55527 1.05873 7.16406C1.05873 8.77284 1.75933 10.2519 3.00485 11.2898C3.93898 12.0683 5.15855 12.4834 6.37811 12.4834C7.49388 12.4834 8.58371 12.1461 9.49189 11.4715C10.1406 11.0044 10.6596 10.4076 11.0488 9.70698C11.1007 9.60319 11.1526 9.52534 11.1785 9.42155C11.1785 9.42155 11.6975 8.46147 11.6975 7.31975C11.6975 7.26785 11.6975 7.19 11.6975 7.13811C11.6975 6.95647 11.6975 6.80078 11.6715 6.61914V6.5932L11.6975 6.61914L11.7234 6.64509C11.7753 6.85268 11.7753 7.00837 11.7753 7.16406Z" fill="#F7941D"/>
</svg>
