<svg width="20" height="20" viewBox="0 0 20 20" fill="none" xmlns="http://www.w3.org/2000/svg">
<rect x="0.5" y="0.5" width="19" height="19" rx="9.5" fill="white"/>
<path d="M7.1335 7.412C7.1815 6.668 7.4655 6.088 7.9855 5.672C8.5135 5.256 9.1855 5.048 10.0015 5.048C10.5615 5.048 11.0455 5.148 11.4535 5.348C11.8615 5.548 12.1695 5.82 12.3775 6.164C12.5855 6.508 12.6895 6.896 12.6895 7.328C12.6895 7.824 12.5575 8.248 12.2935 8.6C12.0295 8.952 11.7135 9.188 11.3455 9.308V9.356C11.8175 9.5 12.1855 9.764 12.4495 10.148C12.7135 10.524 12.8455 11.008 12.8455 11.6C12.8455 12.072 12.7375 12.492 12.5215 12.86C12.3055 13.228 11.9855 13.52 11.5615 13.736C11.1375 13.944 10.6295 14.048 10.0375 14.048C9.1735 14.048 8.4615 13.828 7.9015 13.388C7.3495 12.94 7.0535 12.3 7.0135 11.468H8.3335C8.3655 11.892 8.5295 12.24 8.8255 12.512C9.1215 12.776 9.5215 12.908 10.0255 12.908C10.5135 12.908 10.8895 12.776 11.1535 12.512C11.4175 12.24 11.5495 11.892 11.5495 11.468C11.5495 10.908 11.3695 10.512 11.0095 10.28C10.6575 10.04 10.1135 9.92 9.3775 9.92H9.0655V8.792H9.3895C10.0375 8.784 10.5295 8.676 10.8655 8.468C11.2095 8.26 11.3815 7.932 11.3815 7.484C11.3815 7.1 11.2575 6.796 11.0095 6.572C10.7615 6.34 10.4095 6.224 9.9535 6.224C9.5055 6.224 9.1575 6.34 8.9095 6.572C8.6615 6.796 8.5135 7.076 8.4655 7.412H7.1335Z" fill="#FF9344"/>
<rect x="0.5" y="0.5" width="19" height="19" rx="9.5" stroke="#BEBEBE"/>
</svg>
