<svg width="20" height="20" viewBox="0 0 20 20" fill="none" xmlns="http://www.w3.org/2000/svg">
<rect x="0.5" y="0.5" width="19" height="19" rx="9.5" fill="white"/>
<path d="M7.51311 12.14C8.28111 11.476 8.88511 10.932 9.32511 10.508C9.77311 10.076 10.1451 9.628 10.4411 9.164C10.7371 8.7 10.8851 8.236 10.8851 7.772C10.8851 7.292 10.7691 6.916 10.5371 6.644C10.3131 6.372 9.95711 6.236 9.46911 6.236C8.99711 6.236 8.62911 6.388 8.36511 6.692C8.10911 6.988 7.97311 7.388 7.95711 7.892H6.63711C6.66111 6.98 6.93311 6.284 7.45311 5.804C7.98111 5.316 8.64911 5.072 9.45711 5.072C10.3291 5.072 11.0091 5.312 11.4971 5.792C11.9931 6.272 12.2411 6.912 12.2411 7.712C12.2411 8.288 12.0931 8.844 11.7971 9.38C11.5091 9.908 11.1611 10.384 10.7531 10.808C10.3531 11.224 9.84111 11.708 9.21711 12.26L8.67711 12.74H12.4811V13.88H6.64911V12.884L7.51311 12.14Z" fill="#FF9344"/>
<rect x="0.5" y="0.5" width="19" height="19" rx="9.5" stroke="#BEBEBE"/>
</svg>
