<svg width="20" height="20" viewBox="0 0 20 20" fill="none" xmlns="http://www.w3.org/2000/svg">
<path fill-rule="evenodd" clip-rule="evenodd" d="M10.4856 1.1687C10.4126 0.943766 10.0943 0.943767 10.0212 1.1687L9.61722 2.41215C9.58454 2.51274 9.4908 2.58085 9.38503 2.58085H8.07759C7.84108 2.58085 7.74274 2.8835 7.93408 3.02251L8.99183 3.79101C9.07739 3.85318 9.1132 3.96338 9.08052 4.06397L8.67649 5.30742C8.60341 5.53235 8.86086 5.7194 9.0522 5.58038L10.1099 4.81189C10.1955 4.74972 10.3114 4.74972 10.3969 4.81189L11.4547 5.58038C11.646 5.7194 11.9035 5.53235 11.8304 5.30742L11.4264 4.06397C11.3937 3.96338 11.4295 3.85318 11.5151 3.79101L12.5728 3.02251C12.7641 2.8835 12.6658 2.58085 12.4293 2.58085H11.1219C11.0161 2.58085 10.9223 2.51274 10.8897 2.41215L10.4856 1.1687ZM9.05753 7.72237H11.4491V17.8087H9.05753V7.72237ZM7.94491 6.60976H9.05753H11.4491H12.5618V7.72237V11.842H13.0593H15.4509H16.5635V12.9546V17.8085V18.9212H15.4509H13.0593H12.5618V18.9213H11.4491H9.05753H8.5602V18.9217H7.44759H5.05598H3.94336V17.809V10.8006V9.68796H5.05598H7.44759H7.94491V7.72237V6.60976ZM5.05598 10.8006H7.44759V17.809H5.05598V10.8006ZM15.4509 12.9546H13.0593V17.8085H15.4509V12.9546Z" fill="white"/>
</svg>
