<svg width="36" height="40" viewBox="0 0 36 40" fill="none" xmlns="http://www.w3.org/2000/svg">
<path d="M27.8781 19.0253C29.3651 18.8981 30.6704 18.2726 31.764 17.1586C35.5225 13.3298 35.4083 4.79678 35.4017 4.43547C35.3894 3.76445 34.842 3.22697 34.1708 3.22648L27.9781 3.22241V0.615951C27.9781 0.2757 27.7023 0 27.3622 0H8.63725C8.29712 0 8.02129 0.2757 8.02129 0.615951V3.22216L1.82877 3.22635C1.15763 3.22685 0.610291 3.76432 0.597848 4.43534C0.591073 4.79678 0.476999 13.3297 4.23553 17.1584C5.32909 18.2724 6.63454 18.898 8.12145 19.0251C8.69022 23.007 11.6731 26.2188 15.536 27.1288V34.8816H12.4152C12.2138 34.8816 12.0252 34.98 11.91 35.1452L9.19985 39.0317C9.06853 39.22 9.05289 39.4656 9.15908 39.6691C9.26515 39.8725 9.47568 40 9.70518 40C9.70518 40 26.2962 39.9999 26.2972 40C26.6373 40 26.9131 39.7243 26.9131 39.384C26.9131 39.235 26.8507 39.1136 26.7721 38.9918L24.0897 35.1451C23.9746 34.9799 23.7859 34.8814 23.5845 34.8814H20.4638V27.129C24.3264 26.2188 27.3093 23.0071 27.8781 19.0253ZM32.9189 5.6893C32.8 8.41587 32.156 13.2422 30.0058 15.4325C29.4118 16.0375 28.7435 16.3995 27.9782 16.5302V5.68597L32.9189 5.6893ZM3.08173 5.6893L8.02129 5.68609V16.5302C7.25665 16.3995 6.58908 16.0385 5.99555 15.4345C3.84958 13.2507 3.20283 8.4187 3.08173 5.6893ZM12.8956 10.2808L16.4225 9.76837L17.9998 6.57245L19.5772 9.76837L23.1041 10.2808L20.552 12.7685L21.1545 16.2813L18 14.6228L14.8454 16.2813L15.4479 12.7685L12.8956 10.2808Z" fill="#FF9344"/>
</svg>
