<svg width="42" height="42" viewBox="0 0 42 42" fill="none" xmlns="http://www.w3.org/2000/svg">
<path d="M0.166504 6.41667C0.166504 4.75907 0.824984 3.16936 1.99709 1.99725C3.16919 0.825152 4.7589 0.166672 6.4165 0.166672H29.3332C30.9908 0.166672 32.5805 0.825152 33.7526 1.99725C34.9247 3.16936 35.5832 4.75907 35.5832 6.41667V16.8333H16.8332C14.623 16.8333 12.5034 17.7113 10.9406 19.2741C9.37781 20.8369 8.49984 22.9565 8.49984 25.1667V35.5833C8.49984 36.3021 8.5915 37 8.76234 37.6667H6.4165C4.7589 37.6667 3.16919 37.0082 1.99709 35.8361C0.824984 34.664 0.166504 33.0743 0.166504 31.4167V6.41667ZM7.979 4.33334C7.5646 4.33334 7.16718 4.49796 6.87415 4.79098C6.58112 5.08401 6.4165 5.48144 6.4165 5.89584C6.4165 6.31024 6.58112 6.70767 6.87415 7.00069C7.16718 7.29372 7.5646 7.45834 7.979 7.45834H27.7707C28.1851 7.45834 28.5825 7.29372 28.8755 7.00069C29.1686 6.70767 29.3332 6.31024 29.3332 5.89584C29.3332 5.48144 29.1686 5.08401 28.8755 4.79098C28.5825 4.49796 28.1851 4.33334 27.7707 4.33334H7.979ZM12.1457 10.5833C11.7313 10.5833 11.3338 10.748 11.0408 11.041C10.7478 11.334 10.5832 11.7314 10.5832 12.1458C10.5832 12.5602 10.7478 12.9577 11.0408 13.2507C11.3338 13.5437 11.7313 13.7083 12.1457 13.7083H27.7707C28.1851 13.7083 28.5825 13.5437 28.8755 13.2507C29.1686 12.9577 29.3332 12.5602 29.3332 12.1458C29.3332 11.7314 29.1686 11.334 28.8755 11.041C28.5825 10.748 28.1851 10.5833 27.7707 10.5833H12.1457ZM11.7248 21.5625C12.3017 20.7441 13.0669 20.0765 13.956 19.616C14.8451 19.1555 15.8319 18.9156 16.8332 18.9167H35.5832C36.5843 18.9163 37.5709 19.1565 38.4599 19.6169C39.3488 20.0773 40.1142 20.7446 40.6915 21.5625L26.2082 30.6167L11.7248 21.5667V21.5625ZM10.6123 24.5542C10.5915 24.7563 10.5832 24.9583 10.5832 25.1667V35.5833C10.5832 37.2409 11.2417 38.8307 12.4138 40.0028C13.5859 41.1749 15.1756 41.8333 16.8332 41.8333H35.5832C37.2408 41.8333 38.8305 41.1749 40.0026 40.0028C41.1747 38.8307 41.8332 37.2409 41.8332 35.5833V25.1667C41.8332 24.9583 41.8228 24.7563 41.804 24.5542L27.0373 33.7833C26.7888 33.939 26.5014 34.0215 26.2082 34.0215C25.9149 34.0215 25.6276 33.939 25.379 33.7833L10.6123 24.5542Z" fill="#FF9344"/>
</svg>
