<svg width="31" height="21" viewBox="0 0 31 21" fill="none" xmlns="http://www.w3.org/2000/svg">
<path d="M30.375 0.29126H0.375V20.3746H30.375V0.29126Z" fill="#8C3494"/>
<path fill-rule="evenodd" clip-rule="evenodd" d="M21.2801 3.55401L17.7174 7.11671L17.9674 9.11671L18.6237 7.74131L20.6547 10.335L23.4983 1.58496L14.0293 5.52306L16.592 6.86671L21.2801 3.55401Z" fill="white"/>
<path d="M18.1853 9.80396H14.4345C11.5773 10.2413 11.2781 14.3976 14.4035 14.9627H18.1853V11.2103C19.4456 11.2516 19.7059 12.8246 18.7789 13.3976C18.9662 13.6167 19.7162 14.4294 19.7162 14.4294C21.6845 12.7309 20.5599 9.93967 18.1853 9.80396ZM16.8107 13.554H14.717C13.4202 13.6333 12.998 11.4905 14.5916 11.2103H16.8138L16.8107 13.554Z" fill="white"/>
<path fill-rule="evenodd" clip-rule="evenodd" d="M26.0302 11.6794H24.6548L24.0612 13.054H25.8112C26.1628 13.0381 26.1787 13.554 25.8112 13.5849H22.7802V11.2103H27.439V9.80398H26.7485C26.5453 6.89763 23.0691 6.81192 22.1548 8.39763C22.335 8.54604 23.1866 9.30398 23.1866 9.30398C23.7096 8.48414 25.1628 8.52303 25.3739 9.80398H21.4072V14.9627H25.8763C26.8914 14.9468 27.3604 14.1968 27.4699 13.5564C27.5302 12.523 26.9048 11.8349 26.0302 11.6794Z" fill="white"/>
<path fill-rule="evenodd" clip-rule="evenodd" d="M12.6548 9.80396H10.8421C10.2643 10.5071 9.26433 13.3508 11.2485 15.4913C11.2485 15.4913 12.108 14.7571 12.2802 14.6182C11.6707 14.0214 10.6548 11.6008 12.6548 9.80396Z" fill="white"/>
<path fill-rule="evenodd" clip-rule="evenodd" d="M8.04157 15.5413C8.04157 15.7661 7.97492 15.9858 7.85003 16.1727C7.72515 16.3596 7.54766 16.5053 7.33999 16.5913C7.13232 16.6773 6.9038 16.6998 6.68334 16.656C6.46288 16.6121 6.26037 16.5039 6.10143 16.3449C5.94249 16.186 5.83425 15.9835 5.79039 15.763C5.74654 15.5426 5.76905 15.314 5.85507 15.1064C5.94109 14.8987 6.08676 14.7212 6.27365 14.5963C6.46055 14.4714 6.68028 14.4048 6.90506 14.4048C7.20648 14.4048 7.49556 14.5245 7.7087 14.7377C7.92183 14.9508 8.04157 15.2399 8.04157 15.5413Z" fill="white"/>
<path fill-rule="evenodd" clip-rule="evenodd" d="M5.62166 9.80396C2.76451 10.2413 2.4661 14.3976 5.5907 14.9627H5.61213C5.72408 14.7137 5.90559 14.5024 6.13481 14.3541C6.36403 14.2059 6.63121 14.127 6.9042 14.127C7.17719 14.127 7.44436 14.2059 7.67358 14.3541C7.90281 14.5024 8.08431 14.7137 8.19626 14.9627H9.37324V9.80396H5.62166ZM7.99705 13.554H5.9034C4.60658 13.6333 4.18435 11.4905 5.77801 11.2103H8.00023L7.99705 13.554Z" fill="white"/>
<path fill-rule="evenodd" clip-rule="evenodd" d="M6.96729 8.58496C7.42761 8.50559 7.65459 7.56194 6.90459 7.35083H5.68555V9.14766H6.18555V8.58496L6.74825 9.14766H7.52999L6.96729 8.58496ZM6.90777 7.95004C6.90787 7.96563 6.90489 7.9811 6.899 7.99553C6.8931 8.00997 6.88441 8.0231 6.87342 8.03417C6.86242 8.04523 6.84935 8.05401 6.83495 8.06001C6.82055 8.066 6.80511 8.06908 6.78951 8.06908H6.1919V7.81908H6.78951C6.82088 7.81908 6.85096 7.83154 6.87313 7.85372C6.89531 7.8759 6.90777 7.90598 6.90777 7.93734V7.95004Z" fill="white"/>
<path fill-rule="evenodd" clip-rule="evenodd" d="M8.39939 7.32227C8.21919 7.32227 8.04304 7.3757 7.89321 7.47582C7.74338 7.57593 7.6266 7.71823 7.55764 7.88471C7.48868 8.05119 7.47063 8.23439 7.50579 8.41113C7.54094 8.58786 7.62772 8.75021 7.75514 8.87763C7.88256 9.00505 8.04491 9.09183 8.22164 9.12698C8.39838 9.16214 8.58158 9.14409 8.74806 9.07513C8.91454 9.00617 9.05684 8.88939 9.15695 8.73956C9.25707 8.58973 9.3105 8.41358 9.3105 8.23338C9.3105 7.99174 9.21451 7.75999 9.04365 7.58912C8.87278 7.41826 8.64103 7.32227 8.39939 7.32227ZM8.39939 8.63338C8.32091 8.63338 8.24419 8.6101 8.17893 8.5665C8.11367 8.5229 8.06281 8.46092 8.03277 8.38841C8.00274 8.3159 7.99488 8.23611 8.01019 8.15914C8.0255 8.08216 8.0633 8.01145 8.11879 7.95595C8.17429 7.90046 8.245 7.86266 8.32198 7.84735C8.39895 7.83204 8.47874 7.8399 8.55125 7.86993C8.62376 7.89997 8.68574 7.95083 8.72934 8.01609C8.77294 8.08134 8.79622 8.15807 8.79622 8.23655C8.79622 8.3418 8.75441 8.44273 8.67999 8.51715C8.60557 8.59157 8.50464 8.63338 8.39939 8.63338Z" fill="white"/>
<path fill-rule="evenodd" clip-rule="evenodd" d="M13.5655 7.83979H14.3837V7.31201H13.6916C13.1472 7.31201 12.7012 7.72312 12.7012 8.2255C12.7012 8.72788 13.1472 9.139 13.6916 9.139H14.3837V8.61122H13.5655C13.5083 8.61093 13.4519 8.59763 13.4006 8.57233C13.3493 8.54703 13.3045 8.51039 13.2694 8.46519H14.3805V7.98979H13.2694C13.3041 7.94386 13.3487 7.90646 13.4 7.88046C13.4514 7.85446 13.5079 7.84055 13.5655 7.83979Z" fill="white"/>
<path fill-rule="evenodd" clip-rule="evenodd" d="M10.3117 8.61122C10.2123 8.6108 10.1172 8.57109 10.047 8.50076C9.9768 8.43042 9.93729 8.33518 9.93708 8.23582V8.21519C9.93729 8.11583 9.9768 8.02058 10.047 7.95025C10.1172 7.87992 10.2123 7.84021 10.3117 7.83979H11.0887V7.31201H10.391C9.84661 7.31201 9.40137 7.72312 9.40137 8.2255C9.40137 8.72788 9.84661 9.139 10.391 9.139H11.0887V8.61122H10.3117Z" fill="white"/>
<path fill-rule="evenodd" clip-rule="evenodd" d="M16.285 7.34668H14.5215V7.8189H15.1675V9.11097H15.6389V7.8189H16.285V7.34668Z" fill="white"/>
<path d="M12.0855 8.22208L12.9537 7.34668H12.2513L11.7632 7.83874V7.34668H11.291V9.11097H11.7632V8.60462L12.2648 9.11097H12.9672L12.0855 8.22208Z" fill="white"/>
<path d="M19.1889 15.8349C19.1039 15.8552 19.0301 15.9079 18.9833 15.9817C18.9299 16.0498 18.8998 16.1333 18.8976 16.2198C18.8978 16.2685 18.9081 16.3166 18.9278 16.3611C18.9532 16.4182 18.9881 16.4476 19.0309 16.4476C19.0623 16.444 19.092 16.4316 19.1167 16.4119L19.1659 16.5428C19.1273 16.5678 19.0825 16.5816 19.0365 16.5825C18.9761 16.5814 18.918 16.5592 18.8722 16.5198C18.8324 16.4807 18.8027 16.4325 18.7857 16.3793C18.7698 16.3299 18.7628 16.278 18.7651 16.2261V16.1785C18.7781 16.042 18.8385 15.9142 18.9357 15.8174C18.9738 15.7758 19.0143 15.7366 19.0571 15.7H19.2349V15.8301L19.1889 15.8349Z" fill="white"/>
<path d="M19.9774 15.8301V16.5722H19.829V16.4769C19.8201 16.4269 19.7933 16.3817 19.7536 16.35C19.7174 16.312 19.6775 16.2777 19.6345 16.2476C19.5904 16.2165 19.5377 16.1999 19.4837 16.2C19.4587 16.1986 19.4339 16.2047 19.4123 16.2174C19.3907 16.2301 19.3733 16.2489 19.3623 16.2714C19.3591 16.2778 19.3578 16.2849 19.3583 16.292C19.3588 16.3025 19.3616 16.3126 19.3666 16.3218C19.3715 16.3311 19.3785 16.339 19.3869 16.3452C19.403 16.3598 19.4239 16.3683 19.4456 16.369C19.4848 16.3627 19.523 16.3512 19.5591 16.3349L19.6028 16.4698C19.5522 16.4988 19.4958 16.5162 19.4377 16.5206C19.3892 16.5207 19.3419 16.506 19.302 16.4785C19.2615 16.4523 19.23 16.4144 19.2115 16.3698C19.2027 16.3468 19.1984 16.3222 19.1988 16.2976C19.1973 16.259 19.2063 16.2207 19.2247 16.1868C19.2432 16.1528 19.2704 16.1245 19.3036 16.1047C19.3504 16.073 19.4058 16.0564 19.4623 16.0571H19.4766C19.4722 16.0244 19.4578 15.9939 19.4353 15.9698C19.4266 15.9562 19.415 15.9448 19.4012 15.9365C19.3875 15.9281 19.372 15.9229 19.356 15.9214H19.1917V15.8301H19.125V15.7H20.0774V15.8301H19.9774ZM19.829 15.8301H19.4798C19.5253 15.8551 19.5637 15.8912 19.5914 15.9351C19.6192 15.9789 19.6354 16.0291 19.6385 16.0809C19.7135 16.1149 19.78 16.1654 19.8329 16.2285L19.829 15.8301Z" fill="white"/>
<path d="M20.2677 15.8301V16.5722H20.1193V15.8301H20.0098V15.7H20.3669V15.8301H20.2677Z" fill="white"/>
<path d="M20.9827 15.8301H20.3145V15.7H21.2398V15.8301H21.1375V16.5722H21.0097C20.997 16.5341 20.9303 16.4753 20.8176 16.3952C20.7563 16.3558 20.6905 16.3238 20.6216 16.3C20.5542 16.272 20.4826 16.2554 20.4097 16.2507L20.37 16.1031C20.4609 16.0461 20.5572 15.998 20.6573 15.9595C20.7192 15.9309 20.8295 15.888 20.9827 15.8301ZM20.9914 15.9888L20.9025 16.0214L20.6486 16.1325L20.62 16.1452C20.7408 16.1882 20.8543 16.2495 20.9565 16.3269L20.9914 16.3531V15.9888Z" fill="white"/>
<path d="M21.4259 15.8301V16.5722H21.2775V15.8301H21.168V15.7H21.5243V15.8301H21.4259Z" fill="white"/>
<path d="M21.4727 15.8301V15.6999H21.9108C21.9114 15.6962 21.9114 15.6925 21.9108 15.6888C21.9129 15.6587 21.9044 15.6289 21.8869 15.6044C21.8694 15.5799 21.8438 15.5623 21.8147 15.5547C21.8052 15.5533 21.7956 15.5533 21.7861 15.5547C21.7665 15.5553 21.747 15.5585 21.7282 15.5642L21.6711 15.5785C21.6479 15.582 21.6256 15.5898 21.6052 15.6015C21.5801 15.6189 21.5536 15.634 21.5258 15.6467L21.4782 15.5372C21.5471 15.4922 21.6226 15.4582 21.702 15.4364C21.7378 15.4256 21.7749 15.4197 21.8123 15.4189C21.8567 15.4212 21.8997 15.4352 21.9369 15.4594C21.9773 15.4854 22.0099 15.5217 22.0315 15.5645C22.0532 15.6074 22.063 15.6552 22.06 15.7031H22.1457V15.8332L21.4727 15.8301ZM21.9885 16.6975C21.928 16.6424 21.8639 16.5915 21.7965 16.5451C21.7453 16.5128 21.6907 16.4862 21.6338 16.4658C21.5996 16.4518 21.5643 16.4409 21.5282 16.4332V16.2594H21.5854H21.6433C21.6989 16.2611 21.7543 16.2525 21.8068 16.234C21.8861 16.1999 21.9266 16.161 21.9266 16.115C21.9266 16.0984 21.9224 16.0822 21.9145 16.0676C21.9066 16.0531 21.8952 16.0407 21.8814 16.0316C21.852 16.0142 21.8219 15.9975 21.7909 15.9809C21.7832 15.9771 21.7748 15.9752 21.7663 15.9753C21.746 15.9755 21.726 15.9801 21.7076 15.9888C21.6814 16.0007 21.6695 16.015 21.6711 16.0301C21.6766 16.0682 21.7171 16.0848 21.7925 16.0785L21.7131 16.2015C21.6775 16.203 21.6424 16.192 21.6139 16.1705C21.5869 16.1555 21.5643 16.1337 21.5483 16.1072C21.5323 16.0808 21.5234 16.0506 21.5227 16.0197C21.5229 15.9901 21.5318 15.9613 21.5483 15.9367C21.5648 15.9122 21.5882 15.893 21.6155 15.8816C21.6689 15.853 21.7287 15.8385 21.7893 15.8396C21.8144 15.839 21.8393 15.8439 21.8623 15.8539C21.883 15.8626 21.9036 15.8729 21.9242 15.884C21.97 15.9034 22.009 15.9361 22.036 15.9778C22.063 16.0195 22.0769 16.0684 22.0758 16.1182C22.0765 16.1536 22.0683 16.1887 22.0521 16.2203C22.0359 16.2519 22.0122 16.2789 21.983 16.2991C21.9221 16.3405 21.8526 16.3676 21.7798 16.3785C21.806 16.3904 21.8433 16.4118 21.8933 16.4412C21.9644 16.4939 22.0322 16.5509 22.0965 16.6118L21.9885 16.6975Z" fill="white"/>
<path d="M23.0311 15.8301V16.5722H22.8826V16.2777C22.8812 16.2483 22.8697 16.2203 22.8501 16.1984C22.8421 16.1866 22.8314 16.1769 22.8191 16.1699C22.8067 16.1629 22.7929 16.1588 22.7787 16.1579C22.7651 16.1593 22.752 16.164 22.7406 16.1714C22.7291 16.1789 22.7196 16.1889 22.7128 16.2007C22.692 16.229 22.6811 16.2633 22.6818 16.2984H22.5231C22.5243 16.2604 22.5131 16.2231 22.4914 16.192C22.484 16.1789 22.4735 16.1679 22.4607 16.16C22.4479 16.1521 22.4334 16.1475 22.4184 16.1468C22.3939 16.1474 22.3704 16.1564 22.3517 16.1722C22.3421 16.1786 22.3339 16.187 22.3279 16.1969C22.3219 16.2068 22.3181 16.2178 22.3168 16.2293L22.312 16.2674V16.2833C22.312 16.3627 22.3588 16.3968 22.4525 16.3968C22.4791 16.3961 22.5057 16.3932 22.5318 16.388L22.4803 16.538L22.4247 16.5428C22.3527 16.5414 22.2839 16.5131 22.2318 16.4634C22.2056 16.439 22.1861 16.4081 22.1755 16.3738C22.1623 16.3404 22.1553 16.3049 22.1549 16.269C22.1533 16.2331 22.1592 16.1972 22.172 16.1637C22.1848 16.1301 22.2044 16.0995 22.2295 16.0738C22.2548 16.0486 22.2852 16.029 22.3185 16.0162C22.3518 16.0034 22.3874 15.9976 22.4231 15.9992C22.4609 15.9998 22.4978 16.0098 22.5307 16.0284C22.5635 16.047 22.5912 16.0735 22.6112 16.1055C22.6303 16.0751 22.6563 16.0497 22.687 16.0312C22.7178 16.0127 22.7524 16.0018 22.7882 15.9992C22.8267 16.0009 22.8629 16.0177 22.889 16.046V15.8269H22.0811V15.6968H23.1128V15.8269L23.0311 15.8301Z" fill="white"/>
<path d="M24.1448 15.8301H23.4766V15.7H24.402V15.8301H24.2988V16.5722H24.1678C24.1551 16.5341 24.0885 16.4753 23.975 16.3952C23.9139 16.3558 23.8484 16.3238 23.7797 16.3C23.7123 16.272 23.6407 16.2554 23.5678 16.2507L23.5282 16.1031C23.619 16.046 23.7152 15.9978 23.8155 15.9595C23.8813 15.9309 23.9916 15.888 24.1448 15.8301ZM24.1535 15.9888L24.0647 16.0214L23.8107 16.1325L23.7821 16.1452C23.9029 16.1882 24.0164 16.2495 24.1186 16.3269L24.1535 16.3531V15.9888Z" fill="white"/>
<path d="M24.6496 15.83C24.6112 15.8749 24.5869 15.9301 24.5798 15.9888C24.5971 16.0699 24.621 16.1496 24.6512 16.2269C24.6735 16.2814 24.6864 16.3394 24.6893 16.3983C24.6892 16.4405 24.6748 16.4814 24.6484 16.5143C24.622 16.5471 24.5852 16.5701 24.5441 16.5793C24.4924 16.5947 24.4391 16.6041 24.3853 16.607L24.406 16.4785C24.4933 16.4605 24.5369 16.4295 24.5369 16.3856C24.5301 16.3211 24.5116 16.2585 24.4822 16.2007C24.4529 16.1431 24.4343 16.0807 24.4274 16.0166C24.4327 15.9503 24.4545 15.8865 24.4909 15.8308H24.3369V15.7007H24.7504V15.8308L24.6496 15.83Z" fill="white"/>
<path d="M24.9689 15.8301V16.5722H24.8197V15.8301H24.7109V15.7H25.0673V15.8301H24.9689Z" fill="white"/>
<path d="M25.3113 16.1817C25.2804 16.1831 25.2496 16.1781 25.2207 16.1669C25.1919 16.1557 25.1657 16.1386 25.1439 16.1167C25.1016 16.0707 25.0791 16.01 25.0812 15.9476C25.0806 15.9182 25.086 15.8889 25.097 15.8616C25.1081 15.8344 25.1246 15.8096 25.1455 15.7889C25.1665 15.7684 25.1913 15.7522 25.2185 15.7413C25.2457 15.7304 25.2749 15.725 25.3042 15.7254C25.3456 15.7245 25.3862 15.7367 25.4202 15.7602C25.4543 15.7837 25.48 15.8173 25.4939 15.8563C25.5098 15.8907 25.5181 15.928 25.5185 15.9659C25.5218 16.0238 25.5025 16.0807 25.4645 16.1246C25.4445 16.1444 25.4204 16.1597 25.394 16.1695C25.3676 16.1794 25.3395 16.1835 25.3113 16.1817ZM25.474 16.6579C25.3559 16.5503 25.2276 16.4546 25.0907 16.3722V16.1674C25.3494 16.3526 25.5188 16.5003 25.5986 16.6103V16.7627L25.474 16.6579ZM25.3423 15.8778C25.3296 15.8682 25.3137 15.8636 25.2979 15.8651C25.2415 15.8746 25.2137 15.9024 25.2137 15.9484C25.2143 15.9731 25.2242 15.9966 25.2415 16.0143C25.2492 16.0234 25.2588 16.0307 25.2697 16.0358C25.2805 16.0408 25.2923 16.0435 25.3042 16.0436H25.3248C25.343 16.0399 25.3594 16.03 25.371 16.0155C25.3826 16.001 25.3887 15.9828 25.3883 15.9643C25.3884 15.9475 25.3842 15.931 25.3762 15.9163C25.3681 15.9016 25.3565 15.8891 25.3423 15.8801V15.8778Z" fill="white"/>
<path d="M26.5333 15.6137C26.3603 15.5049 26.2159 15.4502 26.1087 15.4502C26.0545 15.4458 26 15.4548 25.95 15.4764C25.9001 15.498 25.8562 15.5315 25.8222 15.574C25.7986 15.6117 25.7867 15.6557 25.7881 15.7002H25.8921V15.8303H25.7881V16.5724H25.6365V15.8303H25.5381V15.7002H25.6365C25.6361 15.6526 25.6452 15.6055 25.6632 15.5615C25.6812 15.5175 25.7077 15.4775 25.7413 15.4438C25.815 15.3747 25.9097 15.3319 26.0103 15.3224C26.0222 15.3224 26.0444 15.3224 26.077 15.3145H26.1087C26.2018 15.3152 26.2936 15.3352 26.3786 15.3732C26.427 15.3962 26.5063 15.4406 26.6167 15.5089L26.5333 15.6137Z" fill="white"/>
<path d="M26.407 15.8302V15.835C26.475 15.8402 26.5411 15.8602 26.6006 15.8937C26.6417 15.9118 26.6769 15.9412 26.702 15.9784C26.7271 16.0156 26.7412 16.0592 26.7427 16.104C26.7436 16.153 26.7266 16.2007 26.695 16.2382C26.6632 16.2759 26.6196 16.3019 26.5712 16.312C26.5286 16.3239 26.4838 16.3258 26.4403 16.3175V16.1779H26.4879C26.5625 16.1779 26.599 16.1517 26.599 16.0985C26.599 16.0453 26.5347 15.9953 26.407 15.9786V16.5707H26.2752C26.2584 16.5364 26.2374 16.5044 26.2125 16.4755C26.2056 16.4675 26.1866 16.4429 26.1554 16.4017C26.1402 16.3828 26.1229 16.3657 26.1038 16.3509C26.0843 16.3362 26.0667 16.3191 26.0514 16.3001C26.0416 16.2906 26.0296 16.2837 26.0165 16.2802C25.9659 16.26 25.9122 16.2485 25.8577 16.2461L25.8189 16.0985C25.8514 16.0747 25.9252 16.0302 26.0395 15.9659C26.0485 15.9596 26.0834 15.939 26.1443 15.904L26.2562 15.8398V15.8286H25.7871V15.6985H26.8117V15.8286L26.407 15.8302ZM26.2617 16.0056C26.2371 16.0239 26.2006 16.0485 26.1506 16.0794C26.1343 16.0875 26.1196 16.0982 26.107 16.1112L26.0609 16.1556C26.0768 16.1699 26.1014 16.1898 26.1363 16.2152C26.1689 16.2525 26.2109 16.2945 26.2617 16.3525V16.0056Z" fill="white"/>
<path d="M27.033 16.1817C27.0021 16.1832 26.9712 16.1781 26.9424 16.1669C26.9136 16.1557 26.8874 16.1386 26.8656 16.1167C26.8233 16.0707 26.8008 16.01 26.8029 15.9476C26.8023 15.9182 26.8077 15.8889 26.8187 15.8616C26.8298 15.8344 26.8462 15.8096 26.8672 15.7889C26.8881 15.7683 26.9129 15.7521 26.9401 15.7412C26.9674 15.7303 26.9965 15.7249 27.0259 15.7254C27.0671 15.7245 27.1076 15.7368 27.1415 15.7603C27.1754 15.7838 27.2011 15.8174 27.2148 15.8563C27.2313 15.8905 27.2399 15.9279 27.2402 15.9659C27.2432 16.0237 27.2239 16.0805 27.1862 16.1246C27.1661 16.1444 27.1421 16.1597 27.1157 16.1695C27.0893 16.1794 27.0611 16.1835 27.033 16.1817ZM27.1918 16.6579C27.0737 16.5506 26.9456 16.4549 26.8092 16.3722V16.1674C27.0672 16.3524 27.237 16.5 27.3164 16.6103V16.7627L27.1918 16.6579ZM27.0608 15.8778C27.0481 15.8682 27.0322 15.8636 27.0164 15.8651C26.96 15.8746 26.9322 15.9024 26.9322 15.9484C26.9328 15.9731 26.9428 15.9966 26.96 16.0143C26.9677 16.0234 26.9773 16.0307 26.9882 16.0358C26.999 16.0408 27.0108 16.0435 27.0227 16.0436H27.0433C27.0615 16.0399 27.0779 16.03 27.0895 16.0155C27.1011 16.0009 27.1072 15.9828 27.1068 15.9643C27.1072 15.9478 27.1035 15.9315 27.0961 15.9168C27.0886 15.9021 27.0775 15.8895 27.064 15.8801L27.0608 15.8778Z" fill="white"/>
<path d="M10.625 16.6367L10.902 16.7295L11.0123 16.6367L10.7353 16.5391L10.625 16.6367Z" fill="white"/>
<path d="M10.7164 15.8681V15.7007H8.54492V15.8681H8.91V16.2435H9.22349C9.22349 16.2435 9.31238 16.2142 9.33381 16.1697V16.3173C9.33492 16.3481 9.32404 16.3782 9.30347 16.4011C9.2829 16.4241 9.25423 16.4381 9.22349 16.4404H8.76238C8.7346 16.4404 8.70683 16.4277 8.70683 16.3173V15.9681H8.5481V16.4158C8.5481 16.4523 8.57111 16.5824 8.68778 16.5824H9.31238C9.35823 16.5764 9.40053 16.5545 9.43198 16.5206C9.46343 16.4867 9.48204 16.4429 9.4846 16.3967V15.9681H9.33698C9.32191 16.034 9.33064 16.0793 9.26318 16.0959H9.07905V15.8689H9.61397V16.5832H9.7981V15.8689H9.92667V16.5832H10.5338C10.5835 16.582 10.6307 16.5612 10.6651 16.5254C10.6996 16.4896 10.7186 16.4416 10.7179 16.392V15.9689H10.5703C10.5703 16.0102 10.5648 16.0721 10.4973 16.0721H10.0917V15.8697L10.7164 15.8681ZM10.4783 16.2181C10.506 16.2261 10.5433 16.1808 10.5703 16.1443V16.3166C10.5703 16.3816 10.5187 16.4396 10.4783 16.4396H10.0917V16.2181H10.4783Z" fill="white"/>
<path d="M11.288 16.0706H10.9189V16.2674H11.288V16.0706Z" fill="white"/>
<path d="M11.4922 15.7007V15.8682H12.0993V15.9674H11.4922V16.3642C11.5049 16.4944 11.5716 16.5809 11.6977 16.5809H12.2469V15.8666H12.3763V16.5809H12.5422V15.7L11.4922 15.7007ZM12.0993 16.4634H11.7311C11.6755 16.4555 11.639 16.3904 11.639 16.3166V16.1198H12.0993V16.4634Z" fill="white"/>
<path d="M13.3375 15.8683H14.0899V15.9675H13.8669C13.8669 15.9871 13.8591 16.0059 13.8453 16.0197C13.8314 16.0336 13.8127 16.0413 13.7931 16.0413C13.7735 16.0413 13.7547 16.0336 13.7409 16.0197C13.727 16.0059 13.7193 15.9871 13.7193 15.9675H13.3359V16.3905C13.3359 16.431 13.3423 16.5652 13.455 16.5818H13.7566V16.4398H13.5534C13.5314 16.4349 13.512 16.4222 13.4986 16.4041C13.4852 16.3861 13.4787 16.3638 13.4804 16.3413V16.1199H13.6828V16.2437H13.8669V16.1453C13.855 16.1001 14.0605 16.104 14.0701 16.1453V16.5826H14.2359V15.8683H14.3463V16.5826H14.5121V15.7017H13.3375V15.8683Z" fill="white"/>
<path d="M13.0744 15.75H12.6855V15.9817C12.6901 16.0288 12.7119 16.0724 12.7468 16.1042C12.7817 16.1361 12.8272 16.1538 12.8744 16.154H13.1919V15.8683C13.1879 15.8384 13.1742 15.8108 13.153 15.7894C13.1318 15.7681 13.1042 15.7542 13.0744 15.75ZM12.9554 15.9968C12.8848 15.9968 12.8276 15.9714 12.8276 15.9397C12.8276 15.9079 12.8848 15.8817 12.9554 15.8817C13.026 15.8817 13.0832 15.9079 13.0832 15.9397C13.0832 15.9714 13.0284 15.9968 12.9578 15.9968H12.9554Z" fill="white"/>
<path d="M12.7109 16.2405V16.3857L13.184 16.5825V16.4286L12.7109 16.2405Z" fill="white"/>
<path d="M17.0473 15.75H16.6553V15.9817C16.66 16.0287 16.6819 16.0723 16.7167 16.104C16.7516 16.1358 16.797 16.1536 16.8442 16.154H17.1577V15.8683C17.1541 15.8394 17.1416 15.8124 17.1218 15.7912C17.1019 15.7699 17.0759 15.7555 17.0473 15.75ZM16.9283 15.9968C16.8569 15.9968 16.7997 15.9714 16.7997 15.9397C16.7997 15.9079 16.8569 15.8817 16.9283 15.8817C16.9997 15.8817 17.0561 15.9079 17.0561 15.9397C17.0561 15.9714 16.9989 15.9968 16.9283 15.9968Z" fill="white"/>
<path d="M16.6816 16.2405V16.3857L17.1555 16.5825V16.4286L16.6816 16.2405Z" fill="white"/>
<path d="M18.0546 15.9674V15.8681H18.3601V15.7007H17.2998V15.8681H17.9069V15.9674H17.2998V16.3642C17.3133 16.4943 17.3792 16.5808 17.5054 16.5808H18.0546V16.1435H18.2022C18.2268 16.1435 18.2331 16.1308 18.2387 16.1681V16.2435C18.23 16.28 18.2268 16.3047 18.2022 16.3173H18.1474V16.4642H18.2577C18.2836 16.46 18.3077 16.4485 18.3273 16.4311C18.3468 16.4136 18.361 16.391 18.3681 16.3658V15.9689L18.0546 15.9674ZM17.9069 16.4634H17.5387C17.4831 16.4554 17.4466 16.3904 17.4466 16.3166V16.1197H17.9046V16.1443L17.9069 16.4634Z" fill="white"/>
<path d="M15.0098 15.7007V15.8682H15.6169V15.9674H15.0098V16.3642C15.0225 16.4944 15.0891 16.5809 15.2153 16.5809H15.7645V15.8666H15.9566L15.8868 16.0071V16.1055H16.0153C16.0844 16.1134 16.1082 16.1587 16.1082 16.2777C16.1082 16.3571 16.0891 16.419 16.0288 16.4253H15.9082V16.573H16.0375C16.0741 16.573 16.2431 16.5888 16.2582 16.4253C16.2764 16.0928 16.2923 16.0071 16.0558 15.9825L16.0899 15.8666H16.3502V16.5809H16.5161V15.7L15.0098 15.7007ZM15.6169 16.4634H15.2479C15.1931 16.4555 15.1558 16.3904 15.1558 16.3166V16.1198H15.6169V16.4634Z" fill="white"/>
</svg>
