<svg width="101" height="45" viewBox="0 0 101 45" fill="none" xmlns="http://www.w3.org/2000/svg">
<path d="M20.2916 1.72688C19.5945 2.45425 18.8368 3.33316 18.5943 3.69684C18.1397 4.3333 18.0488 4.3333 14.9878 4.03022C8.22925 3.36346 3.8953 5.30313 1.74348 9.97044C0.440267 12.8496 0.531189 17.2745 1.92533 19.002C2.68301 19.9415 3.01639 19.4869 2.44055 18.2746C1.74348 16.7593 1.50102 14.4256 1.89502 12.5162C2.53147 9.45522 4.68329 7.09125 7.74433 6.00019C9.35062 5.42436 13.0481 5.15159 15.6545 5.42436L17.6245 5.63651L16.8971 7.81863C16.2607 9.66737 15.3212 13.9104 14.5332 18.3958L14.321 19.5475H12.0783C10.866 19.5475 9.50215 19.6687 9.07785 19.8506C8.07771 20.2143 7.98679 21.1235 8.98693 20.9417C9.35062 20.8507 10.6538 20.6992 11.8964 20.6083L14.1089 20.4264L13.8967 21.5781C13.5936 23.3056 12.5329 25.5787 11.8055 26.0636C10.7751 26.8213 9.25969 26.6394 8.35048 25.6696C7.89587 25.215 7.38064 24.5482 7.1988 24.2451C6.56234 23.1541 6.31989 24.0936 6.92603 25.2453C7.71402 26.6697 9.29 27.7305 10.6841 27.7305C12.9875 27.7305 14.5635 25.912 15.3818 22.3358L15.7455 20.6083L17.3517 20.5174C19.3217 20.3961 19.3217 19.7597 17.3517 19.5475L15.9879 19.396L16.8365 14.6984C17.3214 12.1223 17.9882 9.03091 18.3216 7.81863C18.9883 5.63651 18.9883 5.63651 20.2309 5.42436C22.9283 4.96975 25.262 3.33316 25.262 1.8481C25.262 0.817659 24.6558 0.453972 23.0495 0.453972C21.6857 0.453972 21.4432 0.575201 20.2916 1.72688Z" fill="black" fill-opacity="0.75"/>
<path d="M39.5975 4.87962C38.7792 6.15252 38.2943 9.06202 38.0822 13.9718L37.9003 18.5785L36.7183 18.9119C34.2634 19.6695 32.5662 22.0335 32.9299 24.2762C33.0208 24.8218 32.9602 25.3673 32.7784 25.4885C32.1116 25.9128 31.5055 24.6702 31.2024 22.2457C30.6872 18.3057 29.5961 18.2754 27.6564 22.1547L26.7472 23.9429L26.9291 21.5183C27.0806 18.9725 26.8988 18.1845 26.1108 18.4876C25.7774 18.6088 25.5955 19.3059 25.4743 20.9728C25.3228 22.9427 25.1712 23.3973 24.4742 24.1247C22.7467 25.9128 22.0193 24.9733 22.3224 21.3667C22.4739 19.6392 22.4133 19.2756 22.0193 19.0937C21.1707 18.7906 20.8676 19.4877 20.7767 22.0638C20.6858 25.1855 21.0494 26.0341 22.5648 26.1553C23.3831 26.2159 23.8983 26.0644 24.6257 25.4582C25.5046 24.7005 25.5652 24.6702 25.5652 25.2764C25.5652 26.0644 26.0805 26.3674 26.6563 25.8825C26.8988 25.6704 27.5958 24.4278 28.202 23.1246C28.8081 21.8214 29.384 20.8212 29.4749 20.9121C29.5658 21.0031 29.7173 22.0335 29.8386 23.1852C29.9295 24.3369 30.2023 25.4885 30.4144 25.7613C30.8387 26.2765 33.4451 26.4281 33.4451 25.9431C33.4451 25.7613 33.8088 25.7613 34.3544 25.9734C35.597 26.3977 36.7486 26.0644 37.9306 24.9127C38.8701 24.0035 38.9611 23.9732 39.2641 24.5187C40.234 26.2462 42.2646 26.7917 43.4162 25.6401C43.9921 25.0642 44.0224 25.0642 44.4467 25.7007C45.1741 26.7614 45.8711 26.0341 47.235 22.8518L48.4473 20.0029L48.5079 22.1244C48.6291 25.4279 48.8413 26.2159 49.5383 26.2159C50.1748 26.2159 50.5082 25.6401 51.7508 22.276L52.5084 20.306V22.4275C52.5387 24.9733 52.9934 26.0341 54.145 26.1553C54.9936 26.2462 55.2664 25.731 54.6299 25.0945C54.4481 24.9127 54.2056 23.5792 54.145 22.1547C53.9935 20.0332 53.8723 19.4574 53.4177 19.2452C52.3569 18.6694 51.6901 19.518 50.5385 22.8821C50.3263 23.4579 50.2354 23.0943 50.1142 21.2152C49.9626 18.8816 49.9323 18.7906 49.1746 18.6997C48.2048 18.5785 47.932 18.9119 46.8107 21.5486L45.9014 23.6398L45.8711 20.8515C45.8711 17.7299 45.7196 17.1237 44.9922 17.1237C44.2648 17.1237 43.1738 18.033 43.689 18.2148C43.9315 18.336 44.0527 19.1543 44.0527 20.8515C44.0527 23.0943 43.9618 23.4276 43.295 24.1853C42.2646 25.2461 41.7493 25.2158 41.022 24.0035C40.0218 22.3669 40.0218 21.4577 41.0523 17.5783C41.9009 14.3658 42.0221 13.4566 42.0524 9.69847C42.0827 5.18269 41.81 4.09163 40.7189 4.09163C40.3855 4.09163 39.9006 4.45532 39.5975 4.87962ZM38.1428 20.5181C38.264 21.0637 38.4155 21.7607 38.4762 22.0335C38.5671 22.3063 38.2034 23.0033 37.6579 23.6398C36.4759 24.9733 35.3242 25.0036 34.718 23.7004C33.8694 21.9123 35.2333 20.0029 37.7488 19.5786C37.8397 19.5786 38.0215 20.0029 38.1428 20.5181Z" fill="black" fill-opacity="0.75"/>
<path d="M95.9074 5.24273C94.1496 6.97024 93.1495 12.0315 93.1495 18.9416V23.1543L92.119 24.215C90.2097 26.2456 89.3307 25.488 89.6641 22.1238C89.9066 19.3053 89.6944 18.9416 87.6638 18.9416C86.3 18.9416 86.1788 18.881 86.1788 18.2142C86.1788 17.4868 85.4817 16.9716 84.9362 17.305C84.5725 17.5172 84.6028 19.4568 84.9665 19.6993C85.4514 20.0023 85.3302 20.6994 84.6634 21.3662C83.8148 22.2148 83.542 22.1238 83.2996 20.9722C82.9662 19.4568 82.0267 18.6385 80.6022 18.6385C79.1172 18.6385 77.9352 19.3659 76.9047 20.8813C76.4804 21.4874 76.0258 21.9723 75.8743 21.9723C75.7531 21.9723 75.4197 22.0632 75.1772 22.1542C74.7832 22.2754 74.7226 21.9723 74.7529 20.2448C74.8135 18.3354 74.7529 18.1839 74.1468 18.093C72.8133 17.9111 72.0859 20.6388 72.9648 22.6088C73.2073 23.1846 71.3888 25.791 70.9948 25.397C70.8433 25.2455 70.5705 23.912 70.3584 22.4269C70.025 20.2145 69.8735 19.6993 69.4188 19.6083C68.6309 19.4568 68.055 20.0327 67.0549 22.0329C66.57 23.0028 66.1153 23.7907 66.0547 23.7907C65.9941 23.7907 66.0244 22.6391 66.085 21.2449C66.2669 18.5779 66.0547 18.0324 65.0546 18.6385C64.5697 18.9416 64.5091 19.3659 64.6 21.9117C64.6303 23.518 64.7515 25.1546 64.8424 25.5486C65.1152 26.8215 65.9638 26.1547 67.1458 23.7907C67.7519 22.5482 68.3884 21.4874 68.5399 21.4268C68.6915 21.3965 68.9339 22.2754 69.0552 23.3968C69.3279 26.0032 69.6007 26.5184 70.6918 26.5184C71.6313 26.5184 72.9042 25.4273 73.6316 24.0332C73.874 23.5483 74.3286 23.1846 74.6317 23.1846C74.9651 23.1846 75.4197 23.0937 75.6621 23.0028C75.9652 22.8815 76.1774 23.2149 76.4501 24.215C76.8138 25.7001 77.8443 26.5184 79.299 26.5184C80.3598 26.5184 81.9964 25.3061 82.6934 24.0029C83.0571 23.3361 83.5117 22.8815 83.8451 22.8815C84.421 22.8815 85.9666 21.5177 86.2091 20.8509C86.2697 20.6388 86.8152 20.4266 87.3911 20.3963L88.4518 20.3054L88.3306 23.0634C88.2397 25.6698 88.27 25.8516 88.9368 26.3062C89.846 26.973 90.9067 26.7002 92.1796 25.488L93.1798 24.5484L92.9979 25.3667C92.8161 26.0941 92.8767 26.2153 93.3919 26.2153C93.7859 26.2153 94.1193 25.9123 94.3011 25.3061C95.1497 22.9118 98.1199 19.578 98.8169 20.2751C99.1806 20.6085 98.5139 21.4268 96.9985 22.5785C96.2105 23.1543 95.5741 23.8817 95.5741 24.1544C95.5741 24.8818 97.241 25.9729 98.2108 25.8516C99.4534 25.7001 99.3625 25.1243 97.9986 24.3666L96.756 23.6695L97.6349 23.1846C99.7262 22.0632 100.908 20.6085 100.575 19.5477C100.15 18.1839 97.6046 19.0325 95.7862 21.1237C94.7254 22.3663 94.7861 22.2148 96.6045 18.6385C98.7866 14.3955 99.5443 11.9709 99.6958 8.78867C99.8777 5.39426 99.5443 4.57597 97.9077 4.45474C96.9985 4.36382 96.6045 4.51536 95.9074 5.24273ZM98.0289 6.09133C98.5745 6.75809 98.5139 10.1222 97.8774 12.4862C97.3016 14.7289 95.3316 19.4871 94.877 19.7599C94.4527 20.0023 94.8467 11.5769 95.3619 9.06144C95.9984 6.09133 97.0591 4.90935 98.0289 6.09133ZM81.2387 20.6691C82.0267 21.8511 81.9358 23.5786 81.0569 24.5181C80.1173 25.5183 79.5112 25.5183 78.5717 24.5181C77.6321 23.518 77.5715 21.4268 78.4201 20.4873C79.2384 19.578 80.5719 19.6387 81.2387 20.6691Z" fill="black" fill-opacity="0.75"/>
<path d="M61.5394 18.8507C61.4484 19.0022 61.1757 19.9114 60.8726 20.9116C60.2665 23.0331 59.4482 24.7303 58.7511 25.3061C57.9328 25.9729 57.7206 25.1849 57.9025 22.0632L58.0843 19.1841L57.266 19.3053L56.4477 19.3962L56.3265 22.4876C56.2053 25.9426 56.4174 26.5184 57.9934 26.5184C58.5692 26.5184 59.1148 26.185 59.7815 25.4577C60.2968 24.8515 60.7514 24.2151 60.7514 24.0029C60.9332 22.5482 61.2666 27.9429 61.2969 32.4283C61.3272 38.5504 60.8726 41.6114 59.7512 42.7934C58.9329 43.6723 58.8117 43.6723 57.6903 42.6722C56.569 41.672 56.0234 39.2474 56.9023 39.2474C57.1751 39.2474 57.3873 39.0353 57.3873 38.7928C57.3873 38.5201 57.1145 38.3382 56.6902 38.3382C54.4778 38.3382 54.3868 42.3994 56.5387 43.9148C58.4783 45.2786 60.7514 43.9754 61.903 40.9143C62.8426 38.3685 63.0547 35.3378 62.9032 26.579C62.782 19.1841 62.7213 18.6385 62.2061 18.6385C61.903 18.6385 61.6 18.7295 61.5394 18.8507Z" fill="black" fill-opacity="0.75"/>
</svg>
