<svg width="16" height="21" viewBox="0 0 16 21" fill="none" xmlns="http://www.w3.org/2000/svg">
<path d="M8.20393 17.0917C7.55392 17.5062 6.92004 17.9273 6.26801 18.3186C5.97049 18.4971 5.6533 18.4245 5.41629 18.1885C5.24786 18.0216 5.18332 17.8325 5.26501 17.594C5.33693 17.3891 5.39373 17.1793 5.43495 16.9662C5.49345 16.655 5.41226 16.3686 5.23324 16.1089C5.19491 16.0534 5.15356 16 5.12078 15.942C4.84394 15.4473 4.9927 14.9839 5.52874 14.8144C6.35576 14.5557 7.15151 14.6601 7.88573 15.1387C7.97701 15.1982 8.06223 15.2668 8.15098 15.3303C8.15502 15.3333 8.16561 15.3263 8.20141 15.3157C8.20141 15.1785 8.20141 15.0313 8.20141 14.884C8.19889 14.6989 8.28361 14.6001 8.47271 14.6001H10.6154C10.7929 14.6001 10.871 14.6883 10.871 14.8659C10.869 16.1262 10.869 17.3869 10.871 18.6479C10.871 18.8385 10.7919 18.9238 10.5997 18.9217C9.84333 18.9152 9.90233 18.9994 9.90334 18.2662C9.90334 17.4593 9.90334 16.6525 9.90334 15.8457C9.90334 15.5592 9.88973 15.5612 9.51808 15.5507C9.29317 15.5441 9.18374 15.5925 9.18777 15.8532C9.2029 16.7609 9.19433 17.6686 9.19332 18.5763C9.19332 18.8607 9.13684 18.9182 8.85949 18.9192C8.17367 18.9228 8.19536 18.9772 8.20141 18.2687C8.20645 17.8613 8.20393 17.4523 8.20393 17.0917ZM6.22263 17.2218C6.29676 17.2183 6.34214 17.2289 6.37391 17.2128C6.86998 16.9679 7.31347 16.6286 7.67948 16.2138C7.79698 16.0822 7.70117 15.9969 7.59426 15.9364C7.19979 15.714 6.75252 15.6023 6.29978 15.6132C6.05924 15.6172 6.0184 15.714 6.16514 15.9062C6.37744 16.1805 6.42283 16.478 6.33206 16.8053C6.29676 16.9309 6.26499 17.06 6.22263 17.2218Z" fill="#4B4A4A"/>
<path d="M2.21471 15.5457C1.82389 15.5457 1.43812 15.5387 1.05487 15.5487C0.833999 15.5543 0.735161 15.4812 0.734152 15.2462C0.734152 14.6007 0.725076 14.6007 1.37761 14.6007C1.88995 14.6007 2.4023 14.6007 2.91515 14.6007C3.07601 14.6007 3.25049 14.5871 3.24848 14.3874C3.24646 14.1877 3.08206 14.107 2.89246 14.1232C2.52534 14.1539 2.15924 14.22 1.79212 14.224C1.56622 14.222 1.34312 14.1738 1.13657 14.0823C0.799204 13.9366 0.728101 13.4036 1.00444 13.1615C1.06244 13.1111 1.21876 13.0869 1.27171 13.1272C1.76338 13.4994 2.29237 13.3501 2.82135 13.2704C2.99432 13.2373 3.17134 13.2306 3.3463 13.2508C3.95144 13.3516 4.24392 13.8463 4.07297 14.4489C4.06137 14.4888 4.0533 14.5291 4.03615 14.6002C4.18744 14.6002 4.33015 14.6002 4.46983 14.6002C4.66146 14.6002 4.76584 14.6753 4.76332 14.8856C4.75475 15.6118 4.83442 15.5462 4.12541 15.5452C3.87327 15.5452 3.62114 15.5508 3.369 15.5452C3.22679 15.5412 3.15972 15.576 3.15266 15.7379C3.12493 16.3717 3.2157 16.4539 3.83394 16.3142C4.0059 16.2754 4.17533 16.2265 4.34881 16.1972C4.55858 16.1619 4.74265 16.2744 4.75223 16.4761C4.76635 16.8609 4.80013 17.2577 4.72853 17.6309C4.59792 18.3142 4.08305 18.6687 3.45876 18.8613C2.95902 19.0156 2.44415 18.9889 1.94593 18.8452C1.2112 18.6339 0.73617 17.9728 0.694819 17.1019C0.680195 16.7772 0.715494 16.4494 0.745247 16.1246C0.762896 15.9436 0.874845 15.8392 1.07403 15.8604C1.13265 15.8637 1.19141 15.8637 1.25003 15.8604C1.58789 15.8604 1.61714 15.9048 1.63328 16.2336C1.64802 16.5844 1.68304 16.9341 1.73817 17.2809C1.80524 17.6763 2.06645 17.9072 2.46584 17.9249C2.75578 17.9342 3.04589 17.9124 3.33118 17.8598C3.47062 17.826 3.59483 17.7467 3.68417 17.6344C3.76939 17.5275 3.79209 17.3712 3.84251 17.2366C3.72281 17.2259 3.60257 17.2225 3.48246 17.2265C3.27419 17.2441 3.06744 17.3016 2.85968 17.3006C2.41894 17.3006 2.25808 17.1236 2.25455 16.6814C2.25051 16.3284 2.25051 15.9754 2.24749 15.6224C2.23952 15.5957 2.22852 15.5699 2.21471 15.5457Z" fill="#4B4A4A"/>
<path d="M15.0992 16.5945C15.0992 17.1321 15.1022 17.6701 15.0992 18.2082C15.0946 18.7276 14.7184 19.0377 14.2288 18.8849C13.484 18.6525 12.7286 18.6328 11.9621 18.6767C11.4169 18.7069 11.2334 18.5254 11.2268 17.9767C11.2268 17.9596 11.2268 17.9429 11.2268 17.9263C11.2243 17.18 11.2268 17.187 11.9242 16.9127C12.0579 16.8623 12.2616 16.7292 12.2601 16.6379C12.256 16.4195 12.0256 16.4226 11.8526 16.3999C11.3731 16.3373 11.2394 16.1981 11.2293 15.7181C11.2233 15.4407 11.2319 15.1634 11.2293 14.886C11.2293 14.6843 11.3302 14.6001 11.5254 14.6001C12.6176 14.6021 13.7102 14.6021 14.8031 14.6001C15.019 14.6001 15.1057 14.6949 15.1022 14.9062C15.0956 15.468 15.0992 16.0312 15.0992 16.5945ZM13.1829 15.5461C12.9812 15.5461 12.7795 15.5396 12.5778 15.5496C12.5137 15.5527 12.4517 15.6001 12.3887 15.6258C12.4245 15.6888 12.4457 15.7771 12.5001 15.8088C12.6273 15.8713 12.7585 15.9251 12.8929 15.9697C13.4325 16.183 13.5213 16.7685 13.0604 17.124C12.9227 17.2304 12.7502 17.2904 12.6065 17.3898C12.5319 17.4402 12.485 17.533 12.4255 17.6066C12.5082 17.6454 12.5879 17.7105 12.6736 17.719C13.0896 17.7609 13.5077 17.7831 13.9242 17.8199C14.0941 17.8355 14.1577 17.7629 14.1496 17.6051C14.1405 17.4377 14.1244 17.2707 14.1193 17.1008C14.1077 16.6974 14.1017 16.294 14.0906 15.8931C14.0846 15.6656 13.9897 15.529 13.7376 15.5401C13.551 15.5522 13.366 15.5461 13.1809 15.5461H13.1829Z" fill="#4B4A4A"/>
<path d="M13.0616 20.3328C12.9756 20.3337 12.8902 20.3175 12.8104 20.2852C12.7306 20.2529 12.658 20.2051 12.5969 20.1445C12.5357 20.084 12.4871 20.0119 12.4539 19.9325C12.4207 19.8531 12.4036 19.7679 12.4035 19.6818C12.4013 19.5955 12.4165 19.5095 12.4484 19.4292C12.4803 19.3489 12.5282 19.2759 12.5891 19.2147C12.65 19.1534 12.7227 19.1051 12.8028 19.0727C12.8829 19.0403 12.9687 19.0245 13.0551 19.0263C13.1412 19.0245 13.2269 19.0398 13.3071 19.0715C13.3872 19.1032 13.4603 19.1506 13.5219 19.2108C13.5836 19.271 13.6326 19.343 13.6661 19.4224C13.6996 19.5018 13.717 19.5871 13.7172 19.6733C13.7172 19.8475 13.6482 20.0147 13.5254 20.1382C13.4026 20.2618 13.2359 20.3318 13.0616 20.3328Z" fill="#4B4A4A"/>
<path d="M13.6101 10.0391L13.6071 10.0436C13.0095 10.8056 12.257 11.4321 11.3994 11.8817C10.473 12.327 9.38229 12.4869 8.35508 12.508C8.64809 12.3814 8.89174 12.1626 9.049 11.8849C9.20627 11.6071 9.26855 11.2856 9.22638 10.9692C9.1842 10.6528 9.03988 10.3589 8.81535 10.132C8.59082 9.90512 8.29836 9.75777 7.98242 9.71233C9.89262 9.64425 11.4276 8.26203 11.5023 6.54195C11.5043 6.49858 11.5053 6.45471 11.5053 6.41033C11.5053 6.31855 11.5013 6.22778 11.4927 6.13853C11.4927 5.98422 11.4927 5.80974 11.5053 5.66299C11.5305 5.30597 12.0242 5.05786 12.0242 5.05786H14.0146C14.4533 5.12543 14.5879 5.59744 14.5879 5.59744C14.834 8.08402 13.6757 9.93623 13.6101 10.0391Z" fill="#144A96"/>
<path d="M4.32559 2.7926C4.55418 1.89121 4.00876 0.975181 3.10737 0.746592C2.20598 0.518002 1.28995 1.06342 1.06136 1.96481C0.832769 2.8662 1.37818 3.78223 2.27958 4.01082C3.18097 4.23941 4.097 3.694 4.32559 2.7926Z" fill="#FED600"/>
<path d="M14.5765 2.77187C14.7932 1.86756 14.2359 0.958752 13.3316 0.741981C12.4273 0.525209 11.5184 1.08257 11.3017 1.98687C11.0849 2.89118 11.6423 3.8 12.5466 4.01677C13.4509 4.23354 14.3597 3.67618 14.5765 2.77187Z" fill="#144A96"/>
<path d="M9.23862 11.1595C9.2392 11.4457 9.1558 11.7257 8.99876 11.965C8.84171 12.2042 8.61793 12.3921 8.35513 12.5054C7.93254 12.514 7.52004 12.4983 7.13276 12.4686C6.29818 12.406 5.4704 12.2729 4.65828 12.0707C3.25487 11.4313 2.12126 10.3814 1.4531 9.09548L1.43494 9.06119C0.930665 8.0718 1.0174 5.60085 1.0174 5.60085C1.02799 5.19743 1.51865 5.04614 1.51865 5.04614H3.50399C3.88825 5.08901 4.08038 5.55042 4.08038 5.55042L4.16459 6.1616C4.09954 6.46417 4.16207 6.82573 4.25334 7.13788C4.31329 7.37867 4.40254 7.61119 4.5191 7.83025C4.5191 7.83277 4.5191 7.83479 4.52263 7.83731L4.52616 7.84387C5.08943 8.89226 6.24927 9.63153 7.60981 9.70465C7.68343 9.70868 7.75756 9.7107 7.83219 9.7107C7.88195 9.7107 7.93137 9.70969 7.98045 9.70767C8.3301 9.75699 8.65011 9.93115 8.88137 10.198C9.11263 10.4649 9.23952 10.8064 9.23862 11.1595Z" fill="#FED600"/>
</svg>
