<svg width="123" height="40" viewBox="0 0 123 40" fill="none" xmlns="http://www.w3.org/2000/svg">
<path d="M119.109 24.428L122.497 26.6866C121.398 28.3062 118.768 31.085 114.221 31.085C108.574 31.085 104.37 26.7164 104.37 21.1591C104.37 15.2454 108.619 11.2334 113.745 11.2334C118.901 11.2334 121.427 15.3343 122.245 17.5483L122.691 18.6777L109.407 24.1754C110.417 26.1666 111.992 27.177 114.221 27.177C116.45 27.177 117.995 26.0774 119.109 24.428ZM108.694 20.8473L117.564 17.1621C117.074 15.929 115.618 15.0524 113.879 15.0524C111.665 15.0524 108.59 17.0138 108.694 20.8473Z" fill="white"/>
<path d="M97.9654 1.1145H102.244V30.1785H97.9654V1.11426V1.1145Z" fill="white"/>
<path d="M91.2195 12.0059H95.3502V29.6583C95.3502 36.9835 91.0263 39.9999 85.9147 39.9999C81.1006 39.9999 78.2032 36.7608 77.1184 34.1308L80.9074 32.5556C81.5907 34.1752 83.2401 36.0922 85.9147 36.0922C89.1984 36.0922 91.2195 34.0564 91.2195 30.2527V28.8263H91.0709C90.09 30.0148 88.2179 31.0846 85.8405 31.0846C80.8776 31.0846 76.3306 26.7607 76.3306 21.1888C76.3306 15.5868 80.8776 11.2185 85.8405 11.2185C88.2031 11.2185 90.09 12.2735 91.0709 13.4325H91.2195V12.0061V12.0059ZM91.5164 21.1888C91.5164 17.682 89.1837 15.1262 86.2119 15.1262C83.2103 15.1262 80.6844 17.682 80.6844 21.1888C80.6844 24.6507 83.2103 27.1619 86.2119 27.1619C89.1839 27.1769 91.5167 24.6507 91.5167 21.1888H91.5164Z" fill="white"/>
<path d="M52.8389 21.1145C52.8389 26.8353 48.3814 31.0402 42.9132 31.0402C37.4453 31.0402 32.9875 26.8205 32.9875 21.1145C32.9875 15.3642 37.4453 11.1741 42.9132 11.1741C48.3814 11.1741 52.8389 15.3642 52.8389 21.1145ZM48.5001 21.1145C48.5001 17.5486 45.9146 15.0966 42.9132 15.0966C39.9119 15.0966 37.3263 17.5486 37.3263 21.1145C37.3263 24.6509 39.9119 27.1325 42.9132 27.1325C45.9148 27.1325 48.5001 24.6509 48.5001 21.1145Z" fill="white"/>
<path d="M74.5181 21.1591C74.5181 26.8798 70.0603 31.0847 64.5924 31.0847C59.1243 31.0847 54.6667 26.8796 54.6667 21.1591C54.6667 15.4087 59.1243 11.2334 64.5924 11.2334C70.0603 11.2334 74.5181 15.394 74.5181 21.1591ZM70.1643 21.1591C70.1643 17.5931 67.579 15.1411 64.5774 15.1411C61.576 15.1411 58.9905 17.5931 58.9905 21.1591C58.9905 24.6954 61.576 27.177 64.5774 27.177C67.5938 27.177 70.1643 24.6806 70.1643 21.1591Z" fill="white"/>
<path d="M16.6727 26.7313C10.4467 26.7313 5.57322 21.7089 5.57322 15.483C5.57322 9.25732 10.4467 4.23498 16.6727 4.23498C20.0308 4.23498 22.4824 5.55735 24.2951 7.25134L27.2819 4.26479C24.756 1.84283 21.383 0 16.6727 0C8.14378 0.000238523 0.966858 6.95438 0.966858 15.483C0.966858 24.0121 8.14378 30.966 16.6727 30.966C21.279 30.966 24.756 29.4504 27.4751 26.6273C30.2685 23.8337 31.1303 19.911 31.1303 16.7312C31.1303 15.7356 31.0115 14.7104 30.8777 13.9526H16.6727V18.0834H26.7915C26.4943 20.669 25.6772 22.4372 24.4736 23.6405C23.0174 25.1117 20.7144 26.7313 16.6727 26.7313Z" fill="white"/>
</svg>
