<svg width="101" height="40" viewBox="0 0 101 40" fill="none" xmlns="http://www.w3.org/2000/svg">
<path d="M0.13208 0V40H100.132V0H0.13208ZM50.1404 38C22.2487 38 2.13208 29.8333 2.13208 20C2.13208 10.1667 22.2612 2 50.1404 2C78.0154 2 98.1321 10.1667 98.1321 20C98.1321 29.8333 78.0321 38 50.1404 38ZM49.2029 12.7417H66.6029V16.7583C66.1737 16.5625 65.7571 16.5625 65.3279 16.5625H58.0029V18.4792H65.0404V21.5292H58.0029V23.4333H65.3279C65.7571 23.4333 66.1737 23.4333 66.6029 23.225V27.2542H49.2029C49.4196 26.8333 49.4196 26.4292 49.4196 26.0083V14C49.4196 13.5792 49.4196 13.175 49.2029 12.7417ZM19.7196 14V26.0042C19.7196 26.425 19.7196 26.8292 19.9362 27.25H10.1321C10.3487 26.8292 10.3487 26.425 10.3487 26.0042V14C10.3487 13.5792 10.3487 13.175 10.1321 12.7542H19.9362C19.7196 13.175 19.7196 13.5792 19.7196 14ZM46.5821 26.0042C46.8987 26.45 47.2404 26.8708 47.6446 27.25H36.8196C36.8196 26.8292 36.4029 25.975 35.9446 25.3042C35.4862 24.6333 33.0071 20.9542 33.0071 20.9542V26.0042C33.0071 26.425 33.0071 26.8292 33.2237 27.25H24.2071C24.4237 26.8292 24.4237 26.425 24.4237 26.0042V14C24.4237 13.5792 24.4237 13.175 24.2071 12.7542H33.2237C33.0071 13.175 33.0071 13.5792 33.0071 14V19.2458C33.0071 19.2458 35.8862 15.5792 36.5487 14.725C37.0487 14.0833 37.6654 13.1708 37.6654 12.7542H47.0696C46.4237 13.175 45.7071 13.9292 45.1196 14.6292L41.6779 18.7292C41.6779 18.7292 46.0071 25.1792 46.5821 26.0042ZM90.5237 13.4833C90.5238 13.2888 90.4474 13.102 90.311 12.9633C90.1746 12.8245 89.9891 12.7449 89.7946 12.7417H88.9196V15.0375H89.2654V14.225H89.7654L90.2237 15.0375H90.6112L90.1112 14.1542C90.2342 14.0901 90.3376 13.9939 90.4102 13.8758C90.4828 13.7576 90.5221 13.622 90.5237 13.4833ZM89.7362 13.9042H89.2612V13.1083H89.7779C90.0071 13.1083 90.1654 13.3042 90.1654 13.5292C90.1654 13.75 89.9654 13.9167 89.7362 13.9042ZM89.6487 12H89.5196C89.2745 12.0038 89.0326 12.0562 88.8079 12.1543C88.5832 12.2523 88.3803 12.394 88.2109 12.5712C88.0415 12.7484 87.9089 12.9575 87.821 13.1863C87.7331 13.4151 87.6915 13.6591 87.6987 13.9042C87.6987 13.9333 87.6987 13.975 87.6862 14C87.7069 14.5129 87.9297 14.9967 88.306 15.3457C88.6824 15.6947 89.1816 15.8805 89.6946 15.8625C89.9485 15.8592 90.1992 15.806 90.4326 15.7058C90.6659 15.6056 90.8772 15.4605 91.0544 15.2786C91.2316 15.0968 91.3712 14.8818 91.4654 14.646C91.5595 14.4101 91.6062 14.1581 91.6029 13.9042V13.8333C91.5954 13.5845 91.5388 13.3396 91.4364 13.1127C91.3341 12.8858 91.1879 12.6813 91.0064 12.511C90.8249 12.3407 90.6115 12.2079 90.3785 12.1202C90.1455 12.0325 89.8975 11.9917 89.6487 12ZM89.6487 15.4292C89.2398 15.4325 88.8461 15.2741 88.5534 14.9885C88.2607 14.7028 88.0928 14.3131 88.0862 13.9042V13.7917C88.0958 13.5962 88.1439 13.4046 88.2277 13.2278C88.3115 13.051 88.4293 12.8924 88.5744 12.7612C88.7196 12.63 88.8892 12.5287 89.0735 12.4632C89.2579 12.3976 89.4533 12.3691 89.6487 12.3792C90.5071 12.3792 91.2112 13.0667 91.2112 13.9042C91.2112 14.7417 90.5112 15.4292 89.6487 15.4292ZM85.9946 14.0167C85.8362 13.5958 85.6071 13.1917 85.7237 12.7708H73.1529C73.2112 13.1917 73.0529 13.5958 72.8946 14.0167L68.4362 26.0208C68.2972 26.4773 68.0677 26.901 67.7612 27.2667H75.1987C75.1404 26.8458 75.2987 26.4417 75.4404 26.0208C75.5821 25.6 75.7404 25.1958 75.7404 25.1958L75.8279 24.9708H81.2612L81.3487 25.1792C81.5487 25.6708 81.6946 26.0042 81.6946 26.0042C81.8654 26.425 82.0237 26.8292 81.9821 27.25H91.4112C91.0929 26.8879 90.8532 26.4637 90.7071 26.0042C89.1452 22.0048 87.5744 18.009 85.9946 14.0167ZM76.9654 21.9042C77.6113 20.1542 78.1696 18.6875 78.2112 18.5458C78.3279 18.2375 78.4112 17.9167 78.4696 17.5958C78.5404 17.9167 78.6404 18.2375 78.7571 18.5458L80.0737 21.9042H76.9654Z" fill="black" fill-opacity="0.2"/>
</svg>
