<svg width="145" height="40" viewBox="0 0 145 40" fill="none" xmlns="http://www.w3.org/2000/svg">
<path d="M0.690552 9.7455H9.27244L14.254 22.509L19.3088 9.7455H27.6724L15.0904 40H6.69041L10.1451 31.9999L0.690552 9.7455ZM36.363 9.23636C29.9267 9.23636 25.8541 15.0183 25.8541 20.7636C25.8541 27.2363 30.3268 32.3637 36.2541 32.3637C40.6904 32.3637 42.3632 29.6727 42.3632 29.6727V31.7819H49.8538V9.7455H42.3632V11.7455C42.3266 11.7455 40.4722 9.23636 36.363 9.23636ZM37.9631 16.3272C40.945 16.3272 42.4721 18.691 42.4721 20.7999C42.4721 23.0908 40.836 25.3456 37.9631 25.3456C35.5996 25.3456 33.4541 23.4183 33.4541 20.9092C33.4541 18.3635 35.1634 16.3272 37.9631 16.3272ZM52.3995 31.7816V0H60.2177V11.8181C60.2177 11.8181 62.0721 9.23636 65.963 9.23636C70.7266 9.23636 73.5269 12.8001 73.5269 17.8546V31.7819H65.7448V19.7456C65.7448 18.0362 64.945 16.3635 63.0904 16.3635C61.1994 16.3635 60.2177 18.0362 60.2177 19.7456V31.7819L52.3995 31.7816ZM86.8721 9.23664C79.4901 9.23664 75.0904 14.8366 75.0904 20.8731C75.0904 27.7094 80.3994 32.4003 86.9084 32.4003C93.1995 32.4003 98.6902 27.9276 98.6902 20.9821C98.6902 13.3821 92.9083 9.23664 86.8721 9.23664ZM86.9448 16.3641C89.5628 16.3641 91.3448 18.5457 91.3448 20.8365C91.3448 22.8001 89.6721 25.2366 86.9448 25.2366C84.4357 25.2366 82.5813 23.2366 82.5813 20.8002C82.5813 18.5093 84.1084 16.3641 86.9448 16.3641ZM111.708 9.23664C104.326 9.23664 99.9264 14.8366 99.9264 20.8731C99.9264 27.7094 105.236 32.4003 111.745 32.4003C118.036 32.4003 123.527 27.9276 123.527 20.9821C123.527 13.3821 117.781 9.23664 111.708 9.23664ZM111.781 16.3641C114.399 16.3641 116.181 18.5457 116.181 20.8365C116.181 22.8001 114.508 25.2366 111.781 25.2366C109.272 25.2366 107.417 23.2366 107.417 20.8002C107.417 18.5093 108.981 16.3641 111.781 16.3641ZM129.708 21.8548C132.581 21.8548 134.908 24.182 134.908 27.0549C134.908 29.9273 132.581 32.2547 129.708 32.2547C126.836 32.2547 124.508 29.9276 124.508 27.0549C124.508 24.182 126.836 21.8548 129.708 21.8548H129.708ZM136.617 19.9638H127.272L135.563 0H144.872L136.617 19.9638Z" fill="black" fill-opacity="0.2"/>
</svg>
