<svg width="81" height="40" viewBox="0 0 81 40" fill="none" xmlns="http://www.w3.org/2000/svg">
<path d="M48.1033 34.0669C44.8934 34.2136 45.22 32.537 47.0966 29.9537C51.4965 24.0606 59.8295 15.8343 60.1162 10.0145C60.6195 2.40481 52.9731 -0.0717564 45.1134 0.00157404C39.6302 0.0749045 33.9671 1.64151 30.1106 3.02146C16.8011 7.71794 8.43139 15.2543 3.16492 23.5873C-2.42488 31.847 -0.584943 39.7433 11.208 40C20.261 39.6367 26.1407 37.1268 32.2738 33.9936C32.3072 33.9936 15.3211 38.8367 9.08137 35.2702L9.0547 35.2635C8.41139 34.8969 7.70808 34.3836 7.53142 32.9869C7.49143 30.0371 12.3979 26.9805 15.1411 25.9972V20.8874C17.2185 21.696 19.4284 22.1097 21.6576 22.1074C25.8921 22.1129 29.992 20.6192 33.2305 17.8909C33.3538 18.3242 33.4171 18.8175 33.3771 19.3808H34.6138C34.7738 18.0675 34.0404 17.0276 34.0404 17.0276C32.9305 15.2643 30.9906 15.2943 30.9906 15.2943C30.9906 15.2943 32.0405 15.751 32.7538 16.8476C30.631 18.6288 28.0939 19.847 25.3765 20.3899C22.6591 20.9328 19.8487 20.7829 17.2044 19.9541L21.2376 15.9543L20.1176 13.0411C28.234 10.2012 35.0504 8.01793 46.1567 6.09133L43.6701 4.01142L44.9667 3.21145C51.6665 5.10471 56.0496 6.49465 55.8096 10.0478C55.6681 10.7514 55.442 11.4352 55.1363 12.0844C53.1897 15.9443 47.3833 22.384 45.04 25.0773C43.4901 26.8605 41.9735 28.6104 40.8902 30.2837C39.7736 31.9603 39.0903 33.5203 39.0536 35.0169C39.1969 46.6964 73.499 29.5504 80.1321 25.0073C70.3224 29.2271 59.7562 33.3036 48.1033 34.0669Z" fill="black" fill-opacity="0.2"/>
</svg>
