<svg width="123" height="40" viewBox="0 0 123 40" fill="none" xmlns="http://www.w3.org/2000/svg">
<path d="M119.109 24.4279L122.497 26.6865C121.398 28.306 118.768 31.0848 114.221 31.0848C108.574 31.0848 104.37 26.7163 104.37 21.1589C104.37 15.2452 108.619 11.2333 113.745 11.2333C118.901 11.2333 121.427 15.3342 122.245 17.5482L122.691 18.6776L109.407 24.1753C110.417 26.1665 111.992 27.1769 114.221 27.1769C116.45 27.1769 117.995 26.0773 119.109 24.4279ZM108.694 20.8472L117.564 17.162C117.074 15.9288 115.618 15.0523 113.879 15.0523C111.665 15.0523 108.59 17.0136 108.694 20.8472Z" fill="black" fill-opacity="0.2"/>
<path d="M97.9654 1.1145H102.244V30.1785H97.9654V1.11426V1.1145Z" fill="black" fill-opacity="0.2"/>
<path d="M91.2195 12.006H95.3502V29.6584C95.3502 36.9837 91.0263 40 85.9147 40C81.1006 40 78.2032 36.7609 77.1184 34.1309L80.9074 32.5557C81.5907 34.1753 83.2401 36.0923 85.9147 36.0923C89.1984 36.0923 91.2195 34.0565 91.2195 30.2528V28.8264H91.0709C90.09 30.015 88.2179 31.0847 85.8405 31.0847C80.8776 31.0847 76.3306 26.7608 76.3306 21.1889C76.3306 15.5869 80.8776 11.2186 85.8405 11.2186C88.2031 11.2186 90.09 12.2736 91.0709 13.4326H91.2195V12.0062V12.006ZM91.5164 21.1889C91.5164 17.6821 89.1837 15.1264 86.2119 15.1264C83.2103 15.1264 80.6844 17.6821 80.6844 21.1889C80.6844 24.6508 83.2103 27.162 86.2119 27.162C89.1839 27.177 91.5167 24.6508 91.5167 21.1889H91.5164Z" fill="black" fill-opacity="0.2"/>
<path d="M52.8389 21.1145C52.8389 26.8353 48.3814 31.0402 42.9132 31.0402C37.4453 31.0402 32.9875 26.8205 32.9875 21.1145C32.9875 15.3642 37.4453 11.1741 42.9132 11.1741C48.3814 11.1741 52.8389 15.3642 52.8389 21.1145ZM48.5001 21.1145C48.5001 17.5486 45.9146 15.0966 42.9132 15.0966C39.9119 15.0966 37.3263 17.5486 37.3263 21.1145C37.3263 24.6509 39.9119 27.1325 42.9132 27.1325C45.9148 27.1325 48.5001 24.6509 48.5001 21.1145Z" fill="black" fill-opacity="0.2"/>
<path d="M74.5181 21.1589C74.5181 26.8797 70.0603 31.0846 64.5924 31.0846C59.1243 31.0846 54.6667 26.8794 54.6667 21.1589C54.6667 15.4086 59.1243 11.2333 64.5924 11.2333C70.0603 11.2333 74.5181 15.3938 74.5181 21.1589ZM70.1643 21.1589C70.1643 17.593 67.579 15.141 64.5774 15.141C61.576 15.141 58.9905 17.593 58.9905 21.1589C58.9905 24.6953 61.576 27.1769 64.5774 27.1769C67.5938 27.1769 70.1643 24.6805 70.1643 21.1589Z" fill="black" fill-opacity="0.2"/>
<path d="M16.6727 26.7313C10.4467 26.7313 5.57322 21.7089 5.57322 15.483C5.57322 9.25732 10.4467 4.23498 16.6727 4.23498C20.0308 4.23498 22.4824 5.55735 24.2951 7.25134L27.2819 4.26479C24.756 1.84283 21.383 0 16.6727 0C8.14378 0.000238523 0.966858 6.95438 0.966858 15.483C0.966858 24.0121 8.14378 30.966 16.6727 30.966C21.279 30.966 24.756 29.4504 27.4751 26.6273C30.2685 23.8337 31.1303 19.911 31.1303 16.7312C31.1303 15.7356 31.0115 14.7104 30.8777 13.9526H16.6727V18.0834H26.7915C26.4943 20.669 25.6772 22.4372 24.4736 23.6405C23.0174 25.1117 20.7144 26.7313 16.6727 26.7313Z" fill="black" fill-opacity="0.2"/>
</svg>
