<svg width="41" height="40" viewBox="0 0 41 40" fill="none" xmlns="http://www.w3.org/2000/svg">
<path d="M20.0309 3.76491e-06C9.7582 -0.00624942 1.15385 7.77771 0.13208 17.9979H14.0329V14.9951C14.0339 14.7311 14.1392 14.4781 14.3259 14.2914C14.5126 14.1047 14.7656 13.9994 15.0296 13.9984H25.0347C25.5887 13.9984 26.0314 14.4474 26.0314 15.0014V25.0002C26.0314 25.2646 25.9264 25.5181 25.7395 25.7051C25.5526 25.892 25.299 25.997 25.0347 25.997H15.0296C14.7653 25.997 14.5117 25.892 14.3248 25.7051C14.1379 25.5181 14.0329 25.2646 14.0329 25.0002V21.9975H0.13208C1.23889 32.9931 11.0426 41.0046 22.0307 39.8978C33.0262 38.7973 41.0378 28.9873 39.931 17.9992C38.908 7.77897 30.3036 0.0012544 20.0322 0.0012544L20.0309 3.76491e-06Z" fill="white"/>
</svg>
