<svg width="161" height="40" viewBox="0 0 161 40" fill="none" xmlns="http://www.w3.org/2000/svg">
<path d="M64.0146 23.4284L72.8434 34.2856H65.8718L58.0146 24.3144V34.2856H52.3003V5.71437H58.0146V22.5144L65.2718 14.2856H72.5574L64.0146 23.4284ZM41.1575 13.7144C39.9063 13.7331 38.6783 14.0548 37.5787 14.6519C36.479 15.249 35.5405 16.1037 34.8434 17.1428V14.2856H29.4434V34.2856H35.1575V24.9428C35.0824 24.2647 35.1478 23.5784 35.3494 22.9266C35.5511 22.2748 35.8848 21.6715 36.3296 21.1542C36.7745 20.6369 37.3211 20.2168 37.9354 19.9199C38.5497 19.623 39.2185 19.4557 39.9003 19.4284C43.2146 19.4284 43.729 22.6856 43.729 24.9428V34.2856H49.4434V23.6856C49.4434 17.4 47.3575 13.7144 41.2718 13.7144H41.1575ZM92.3003 24.7428C92.3221 25.1616 92.3221 25.5812 92.3003 26H77.3003V26.2C77.5438 27.3915 78.2039 28.4571 79.1621 29.2059C80.1203 29.9546 81.314 30.3375 82.529 30.2856C83.4928 30.3275 84.4552 30.1746 85.3585 29.8359C86.2619 29.4972 87.0876 28.9797 87.7862 28.3144L91.5862 31.1716C90.3818 32.4006 88.9332 33.3636 87.3338 33.9984C85.7344 34.6332 84.0197 34.9258 82.3003 34.8572C80.8763 34.9472 79.4497 34.7305 78.1166 34.2219C76.7836 33.7133 75.5752 32.9245 74.5732 31.9089C73.5711 30.8932 72.7986 29.6744 72.308 28.3346C71.8173 26.9949 71.6199 25.5654 71.729 24.1428C71.6998 22.7385 71.9601 21.3431 72.4937 20.0438C73.0274 18.7445 73.8229 17.569 74.8308 16.5906C75.8387 15.6122 77.0373 14.8519 78.3519 14.357C79.6665 13.8622 81.069 13.6434 82.4718 13.7144C87.8434 13.7144 92.3003 17.5144 92.3003 24.7428ZM86.9862 22.2856C86.9652 21.7197 86.8292 21.164 86.5864 20.6523C86.3437 20.1406 85.9993 19.6838 85.5743 19.3095C85.1492 18.9353 84.6524 18.6515 84.1142 18.4755C83.5759 18.2994 83.0074 18.2348 82.4434 18.2856C79.9309 18.0141 77.6556 19.7838 77.3003 22.2856H86.9862ZM6.5862 5.71437H0.871826V34.2856H18.0146V28.5719H6.5862V5.71437ZM109.443 5.71437H115.157V34.2856H109.757V32.2856C109.072 33.1304 108.198 33.803 107.206 34.2495C106.213 34.6961 105.13 34.9042 104.043 34.8572C102.715 34.8231 101.408 34.5177 100.203 33.9599C98.9968 33.4021 97.9179 32.6036 97.0321 31.6134C96.1464 30.6233 95.4725 29.4625 95.0518 28.2023C94.6312 26.9422 94.4728 25.6093 94.5862 24.2856C94.4513 22.9601 94.5938 21.621 95.0046 20.3535C95.4154 19.0861 96.0856 17.918 96.9724 16.9237C97.8593 15.9293 98.9434 15.1305 100.156 14.578C101.368 14.0254 102.682 13.7313 104.015 13.7144C105.007 13.6709 105.998 13.8253 106.93 14.1687C107.862 14.5121 108.716 15.0375 109.443 15.7144V5.71437ZM109.872 24.2856C109.962 23.6259 109.909 22.9545 109.717 22.3168C109.526 21.6792 109.2 21.09 108.761 20.5891C108.322 20.0881 107.781 19.6871 107.175 19.413C106.568 19.1388 105.909 18.998 105.243 19C102.51 19.1984 100.439 21.5491 100.586 24.2856C100.439 27.0222 102.51 29.3731 105.243 29.5716C105.909 29.5735 106.568 29.4327 107.175 29.1586C107.781 28.8844 108.322 28.4834 108.761 27.9824C109.2 27.4814 109.526 26.8922 109.717 26.2545C109.909 25.6168 109.962 24.9454 109.872 24.2856ZM23.729 5.14281C22.8101 5.15583 21.9304 5.51705 21.2675 6.15351C20.6046 6.78997 20.2079 7.65427 20.1575 8.57187C20.1575 10.5441 21.7565 12.1431 23.729 12.1431C25.7015 12.1431 27.3 10.5437 27.3 8.57187C27.2495 7.65438 26.8528 6.7902 26.1899 6.15381C25.5271 5.51742 24.6475 5.15622 23.7287 5.14313L23.729 5.14281ZM20.8718 34.2856H26.5862V14.2856H20.8718V34.2856ZM160.872 2.85719V37.1428C160.872 37.9006 160.571 38.6273 160.035 39.1631C159.499 39.699 158.772 40 158.015 40H123.729C122.971 40 122.244 39.699 121.709 39.1631C121.173 38.6273 120.872 37.9006 120.872 37.1428V2.85719C120.872 2.09941 121.173 1.37268 121.709 0.836851C122.244 0.301024 122.971 0 123.729 0L158.015 0C158.772 0 159.499 0.301024 160.035 0.836851C160.571 1.37268 160.872 2.09941 160.872 2.85719ZM132.3 14.2856H126.586V34.2856H132.3V14.2856ZM133.015 8.57156C133.015 6.59906 131.416 5 129.443 5C127.471 5 125.872 6.59906 125.872 8.57156C125.872 10.5437 127.471 12.1428 129.443 12.1428C131.416 12.1428 133.015 10.5437 133.015 8.57156ZM155.157 23.6856C155.157 17.4 153.072 13.7144 146.986 13.7144C145.716 13.7145 144.465 14.0273 143.343 14.6252C142.222 15.2231 141.265 16.0877 140.557 17.1428V14.2856H135.157V34.2856H140.872V24.9428C140.797 24.2647 140.862 23.5784 141.064 22.9266C141.265 22.2748 141.599 21.6715 142.044 21.1542C142.489 20.6369 143.036 20.2168 143.65 19.9199C144.264 19.623 144.933 19.4557 145.615 19.4284C148.929 19.4284 149.443 22.6856 149.443 24.9428V34.2856H155.157V23.6856Z" fill="white"/>
</svg>
