<svg width="62" height="40" viewBox="0 0 62 40" fill="none" xmlns="http://www.w3.org/2000/svg">
<path fill-rule="evenodd" clip-rule="evenodd" d="M31.7859 8.43868C35.2772 3.71708 39.1373 0 44.0733 0C53.3923 0 61.0672 11.8623 61.071 25.9857C61.071 34.6012 57.3614 40 50.6985 40C44.8935 40 41.688 36.7419 35.9356 27.1181L33.4262 22.8932L32.9823 22.152C32.3279 21.046 31.6632 19.9461 30.9883 18.8525L26.5564 26.678C20.2623 37.6825 16.7183 40 11.7973 40C4.95759 40 0.871826 34.6764 0.871826 26.234C0.871826 12.7464 8.37744 0 18.1705 0C19.3706 0 20.5219 0.146727 21.6468 0.458992C22.813 0.782543 23.9455 1.28668 25.0817 1.99022C27.2524 3.34086 29.4232 5.43266 31.7859 8.43868ZM37.4894 16.8059C36.5413 15.2634 35.6309 13.845 34.7543 12.5433L34.7317 12.5132C37.9108 7.60346 40.5368 5.16178 43.6557 5.16178C50.138 5.16178 55.3261 14.7065 55.3261 26.4296C55.3261 30.8992 53.8588 33.4913 50.8302 33.4913C47.922 33.4913 46.5338 31.5726 41.0109 22.6938L37.4894 16.8059ZM19.1035 6.60647C21.8311 6.98269 24.3142 8.99172 27.9071 14.1347C25.834 17.3092 23.7835 20.4983 21.7559 23.702C16.6505 31.7005 14.8861 33.4951 12.0456 33.4951C9.12235 33.4951 7.38045 30.9293 7.38045 26.3469C7.38045 16.5576 12.2638 6.54251 18.0877 6.54251C18.4301 6.54251 18.7687 6.56132 19.1035 6.60647Z" fill="white"/>
</svg>
