<svg width="43" height="40" viewBox="0 0 43 40" fill="none" xmlns="http://www.w3.org/2000/svg">
<path d="M42.1315 32.0345C42.1315 33.5637 41.2797 36.5084 39.3677 38.1259C38.9849 38.4204 38.6 38.2542 38.7682 37.8251C39.3256 36.4621 40.6024 33.3091 40.0029 32.5835C39.5822 32.0324 37.8364 32.0724 36.3472 32.2007C35.6658 32.2869 35.0705 32.3269 34.6056 32.4215C34.1787 32.4573 34.0903 32.0787 34.5194 31.7842C35.0705 31.3951 35.6658 31.1006 36.3493 30.8839C38.7682 30.1604 41.5657 30.5958 41.9654 31.0585C42.0411 31.1469 42.1336 31.3951 42.1336 32.0324L42.1315 32.0345ZM38.091 34.7563C37.5355 35.1805 36.9523 35.567 36.3451 35.9131C31.8818 38.5949 26.1017 40 21.0788 40C12.9955 40 5.76623 37.0195 0.280614 32.0324C-0.188439 31.6496 0.200686 31.0943 0.749668 31.3951C6.66016 34.8446 13.9757 36.9312 21.55 36.9312C26.6137 36.9169 31.6308 35.9641 36.3472 34.121C36.688 33.9927 37.0708 33.8182 37.4052 33.6962C38.1772 33.3491 38.8566 34.2073 38.091 34.7563ZM25.1131 11.556C25.1131 9.36636 25.1993 8.07698 24.4737 6.97061C23.83 6.05984 22.7216 5.51296 21.1756 5.5992C19.4971 5.69175 17.6945 6.79182 17.2338 8.80896C17.1455 9.2717 16.8742 9.72603 16.3168 9.82489L11.1929 9.17284C10.827 9.08871 10.2717 8.80896 10.4526 8.07698C11.5526 2.28848 16.4998 0.271336 21.1756 0H22.2756C24.8418 0 28.1378 0.73408 30.2474 2.65867C32.8073 5.04811 32.5359 8.25787 32.5359 11.7453V20.0053C32.5359 22.483 33.5392 23.581 34.551 24.8725C34.8244 25.3331 34.917 25.8758 34.4563 26.2502C33.1316 27.4321 31.7874 28.592 30.4241 29.7292C30.0581 30.0089 29.3977 30.0384 29.1411 29.8238C27.5215 28.4672 27.126 27.7141 26.1227 26.3364C24.3769 28.1685 22.913 29.1802 21.1693 29.7292C19.943 30.0404 18.6819 30.1931 17.4168 30.1835C13.0208 30.1835 9.53758 27.4428 9.53758 22.0224C9.53758 17.7126 11.8303 14.7826 15.2167 13.3964C18.6031 12.0082 23.5251 11.5665 25.111 11.5581L25.1131 11.556ZM24.1077 22.4767C25.2014 20.6426 25.111 19.1408 25.111 15.7775C23.7417 15.7775 22.364 15.8721 21.1756 16.1519C18.9775 16.7892 17.2338 18.1732 17.2338 21.1053C17.2338 23.398 18.4265 24.9587 20.4415 24.9587C20.7191 24.9587 20.9631 24.9251 21.1756 24.8641C22.5848 24.4728 23.4641 23.7661 24.1077 22.4767Z" fill="white"/>
</svg>
