<svg width="409" height="304" viewBox="0 0 409 304" fill="none" xmlns="http://www.w3.org/2000/svg">
<path d="M205 297.874L158.984 194.836H270.491L408 285.542" fill="white"/>
<path d="M205 297.874L158.984 194.836H270.491L408 285.542" stroke="#263238" stroke-width="0.75" stroke-linecap="round" stroke-linejoin="round"/>
<path d="M193.585 293.817L158.984 201.709V194.836L207.935 302.675L193.585 293.817Z" fill="#263238" stroke="#263238" stroke-width="0.75" stroke-linecap="round" stroke-linejoin="round"/>
<path d="M222.737 199.098L270.167 254.695L212.595 268.106L179.882 205.96L222.737 199.098Z" fill="white" stroke="#263238" stroke-width="0.75" stroke-linecap="round" stroke-linejoin="round"/>
<path d="M212.595 268.106V269.746L269.185 258.299L270.167 254.695L212.595 268.106Z" fill="#263238" stroke="#263238" stroke-width="0.75" stroke-linecap="round" stroke-linejoin="round"/>
<path d="M220.946 219.102L223.374 222.684L229.545 221.011L226.978 217.516L220.946 219.102Z" fill="#263238"/>
<path d="M244.305 241.014L241.37 237.044L234.357 238.932L237.098 242.989L244.305 241.014Z" fill="#263238"/>
<path d="M215.908 211.635L217.71 214.311L223.514 212.833L221.691 210.352L215.908 211.635Z" fill="#263238"/>
<path d="M227.085 228.175L230.409 233.095L237.195 231.38L233.527 226.406L227.085 228.175Z" fill="#263238"/>
<path d="M244.661 230.484L238.846 231.963L241.759 235.911L247.682 234.315L244.661 230.484Z" fill="#263238"/>
<path d="M231.002 233.958L233.775 238.08L240.745 236.192L237.821 232.221L231.002 233.958Z" fill="#263238"/>
<path d="M209.337 213.092L211.128 215.983L216.695 214.559L214.872 211.862L209.337 213.092Z" fill="#263238"/>
<path d="M223.946 223.536L226.514 227.323L232.901 225.553L230.171 221.853L223.946 223.536Z" fill="#263238"/>
<path d="M218.292 215.163L220.364 218.238L226.341 216.663L224.14 213.674L218.292 215.163Z" fill="#263238"/>
<path d="M205.734 222.101L203.921 218.832L197.307 220.515L199.152 223.838L205.734 222.101Z" fill="#263238"/>
<path d="M196.228 230.01L200.77 228.79L198.667 224.993L194.2 226.169L196.228 230.01Z" fill="#263238"/>
<path d="M207.373 209.92L208.787 212.207L214.279 210.988L212.8 208.809L207.373 209.92Z" fill="#263238"/>
<path d="M203.425 217.936L201.677 214.786L194.955 216.264L196.811 219.619L203.425 217.936Z" fill="#263238"/>
<path d="M200.846 211.247L202.184 213.664L207.773 212.434L206.338 210.125L200.846 211.247Z" fill="#263238"/>
<path d="M191.449 220.99L195.829 219.868L193.952 216.491L189.582 217.451L191.449 220.99Z" fill="#263238"/>
<path d="M193.056 212.843L194.459 215.368L201.18 213.89L199.832 211.452L193.056 212.843Z" fill="#263238"/>
<path d="M214.171 220.892L216.436 224.55L222.371 222.953L219.943 219.371L214.171 220.892Z" fill="#263238"/>
<path d="M229.405 233.354L226.093 228.456L219.911 230.16L222.91 235.005L229.405 233.354Z" fill="#263238"/>
<path d="M202.68 214.559L204.406 217.688L210.125 216.231L208.323 213.318L202.68 214.559Z" fill="#263238"/>
<path d="M203.975 234.552L199.314 235.836L201.731 240.4L206.532 239.18L203.975 234.552Z" fill="#263238"/>
<path d="M216.976 225.424L219.371 229.287L225.51 227.603L222.953 223.806L216.976 225.424Z" fill="#263238"/>
<path d="M212.639 220.288L210.664 217.105L204.903 218.573L206.715 221.853L212.639 220.288Z" fill="#263238"/>
<path d="M223.46 254.113L216.868 255.796L219.22 260.036L225.834 258.407L223.46 254.113Z" fill="#263238"/>
<path d="M213.254 207.719L218.896 206.564L215.865 202.443L210.308 203.36L213.254 207.719Z" fill="#263238"/>
<path d="M199.335 210.556L196.606 205.625L189.69 206.769L192.56 211.948L199.335 210.556Z" fill="#263238"/>
<path d="M208.312 226.751L206.23 222.986L199.648 224.723L201.752 228.521L208.312 226.751Z" fill="#263238"/>
<path d="M225.111 240.421L222.457 236.138L215.595 237.886L218.055 242.331L225.111 240.421Z" fill="#263238"/>
<path d="M221.917 235.264L218.918 230.43L212.455 232.21L215.099 236.99L221.917 235.264Z" fill="#263238"/>
<path d="M232.771 238.35L229.988 234.217L223.449 235.879L226.104 240.151L232.771 238.35Z" fill="#263238"/>
<path d="M215.444 224.82L213.178 221.151L207.201 222.737L209.283 226.481L215.444 224.82Z" fill="#263238"/>
<path d="M211.668 216.857L213.631 220.019L219.36 218.508L217.278 215.422L211.668 216.857Z" fill="#263238"/>
<path d="M218.379 229.567L215.983 225.694L209.769 227.366L211.97 231.337L218.379 229.567Z" fill="#263238"/>
<path d="M236.105 243.27L233.354 239.213L226.643 241.025L229.2 245.158L236.105 243.27Z" fill="#263238"/>
<path d="M231.671 251.005L228.747 246.291L221.367 248.319L223.957 252.969L231.671 251.005Z" fill="#263238"/>
<path d="M209.553 244.629L207.028 240.065L202.205 241.295L204.665 245.956L209.553 244.629Z" fill="#263238"/>
<path d="M201.267 229.675L196.703 230.905L198.85 234.951L203.479 233.678L201.267 229.675Z" fill="#263238"/>
<path d="M222.964 253.228L220.396 248.578L213.858 250.369L216.372 254.9L222.964 253.228Z" fill="#263238"/>
<path d="M210.988 231.595L208.798 227.636L202.238 229.405L204.46 233.408L210.988 231.595Z" fill="#263238"/>
<path d="M213.847 208.593L215.314 210.762L221.054 209.488L219.533 207.428L213.847 208.593Z" fill="#263238"/>
<path d="M189.107 216.555L193.455 215.595L192.053 213.049L187.715 213.934L189.107 216.555Z" fill="#263238"/>
<path d="M206.812 209.024L212.207 207.924L209.24 203.533L203.953 204.407L206.812 209.024Z" fill="#263238"/>
<path d="M200.35 210.351L205.798 209.24L202.907 204.579L197.631 205.453L200.35 210.351Z" fill="#263238"/>
<path d="M198.181 224.108L196.325 220.763L191.923 221.885L193.725 225.273L198.181 224.108Z" fill="#263238"/>
<path d="M219.954 206.348L224.831 205.345L221.766 201.472L216.944 202.259L219.954 206.348Z" fill="#263238"/>
<path d="M191.546 212.153L188.654 206.931L184.382 207.643L187.241 213.027L191.546 212.153Z" fill="#263238"/>
<path d="M215.886 256.044L210.707 257.36L212.952 261.59L218.238 260.284L215.886 256.044Z" fill="#263238"/>
<path d="M240.497 249.765L233.203 251.62L235.868 255.925L243.399 254.059L240.497 249.765Z" fill="#263238"/>
<path d="M232.21 251.879L224.442 253.854L226.827 258.159L234.865 256.174L232.21 251.879Z" fill="#263238"/>
<path d="M249.128 247.563L241.511 249.506L244.413 253.81L252.3 251.858L249.128 247.563Z" fill="#263238"/>
<path d="M256.627 245.654L250.153 247.305L253.336 251.609L260.025 249.948L256.627 245.654Z" fill="#263238"/>
<path d="M212.887 250.639L207.87 252.009L210.233 256.476L215.39 255.159L212.887 250.639Z" fill="#263238"/>
<path d="M228.208 245.427L225.65 241.295L218.551 243.215L220.882 247.434L228.208 245.427Z" fill="#263238"/>
<path d="M239.914 248.901L236.677 244.122L229.74 246.021L232.664 250.746L239.914 248.901Z" fill="#263238"/>
<path d="M219.911 247.693L217.569 243.475L211.02 245.255L213.372 249.484L219.911 247.693Z" fill="#263238"/>
<path d="M207.406 251.124L212.401 249.754L210.049 245.514L205.14 246.841L207.406 251.124Z" fill="#263238"/>
<path d="M214.117 237.249L211.484 232.48L204.946 234.282L207.514 238.922L214.117 237.249Z" fill="#263238"/>
<path d="M248.502 246.711L244.931 241.867L237.681 243.852L240.928 248.642L248.502 246.711Z" fill="#263238"/>
<path d="M217.084 242.59L214.613 238.134L208.01 239.817L210.535 244.37L217.084 242.59Z" fill="#263238"/>
<path d="M234.541 226.125L238.22 231.11L243.992 229.643L240.022 224.615L234.541 226.125Z" fill="#263238"/>
<path d="M227.366 216.394L232.48 215.045L230.182 212.143L225.176 213.416L227.366 216.394Z" fill="#263238"/>
<path d="M222.748 210.125L224.539 212.563L229.524 211.301L227.722 209.024L222.748 210.125Z" fill="#263238"/>
<path d="M255.958 244.812L252.095 239.903L245.945 241.586L249.527 246.452L255.958 244.812Z" fill="#263238"/>
<path d="M227.992 217.246L230.57 220.731L235.836 219.306L233.138 215.886L227.992 217.246Z" fill="#263238"/>
<path d="M242.385 236.763L245.319 240.745L251.437 239.072L248.34 235.156L242.385 236.763Z" fill="#263238"/>
<path d="M222.101 209.262L227.053 208.172L225.51 206.208L220.601 207.212L222.101 209.262Z" fill="#263238"/>
<path d="M233.915 225.284L239.364 223.773L236.505 220.148L231.196 221.583L233.915 225.284Z" fill="#263238"/>
<path d="M277.687 205.313V214.139C276.791 215.005 275.803 215.772 274.742 216.426C273.112 217.408 259.701 219.663 259.701 219.663L276.705 238.317C276.705 238.317 292.296 236.613 296.665 235.372C301.24 234.056 300.258 217.375 300.258 217.375L277.687 205.313Z" fill="white" stroke="#263238" stroke-width="0.75" stroke-linecap="round" stroke-linejoin="round"/>
<path d="M277.687 205.313V214.139C277.687 214.139 277.45 214.376 277.061 214.721L296.946 235.286C301.197 233.376 300.258 217.408 300.258 217.408L277.687 205.313Z" fill="#263238" stroke="#263238" stroke-width="0.75" stroke-linecap="round" stroke-linejoin="round"/>
<path d="M247.596 92.457V186.011L318.902 242.266V97.6898L247.596 92.457Z" fill="white" stroke="#263238" stroke-width="0.75" stroke-linecap="round" stroke-linejoin="round"/>
<path d="M252.505 97.3662V176.193L312.364 213.157V102.599L252.505 97.3662Z" fill="#FF9344" stroke="#263238" stroke-width="0.75" stroke-linecap="round" stroke-linejoin="round"/>
<path d="M326.099 97.6899H318.902V242.299H326.099V97.6899Z" fill="#263238" stroke="#263238" stroke-width="0.75" stroke-linecap="round" stroke-linejoin="round"/>
<path d="M256.432 102.275L256.756 172.6L306.797 201.051V113.971L272.454 108.771L270.167 103.905L256.432 102.275Z" fill="white" stroke="#263238" stroke-width="0.75" stroke-linecap="round" stroke-linejoin="round"/>
<path d="M259.701 110.777V170.636L303.862 194.189V118.632L259.701 110.777Z" fill="#FF9344" stroke="#263238" stroke-width="0.75" stroke-linecap="round" stroke-linejoin="round"/>
<path d="M285.529 169.203C291.759 167.111 294.473 158.455 291.59 149.868C288.708 141.282 281.319 136.018 275.089 138.11C268.858 140.202 266.144 148.858 269.027 157.444C271.91 166.03 279.298 171.295 285.529 169.203Z" fill="#263238"/>
<path d="M281.614 154.636L285.811 149.986C286.095 149.571 286.24 149.078 286.226 148.576C286.213 148.074 286.041 147.59 285.736 147.191C285.11 146.296 284.128 146.112 283.578 146.749L279.543 151.226L275.497 144.753C274.914 143.814 273.933 143.523 273.339 144.105C273.026 144.492 272.849 144.97 272.833 145.467C272.817 145.963 272.965 146.452 273.253 146.857L277.45 153.6L273.177 158.229C272.894 158.644 272.75 159.138 272.765 159.64C272.781 160.142 272.955 160.626 273.264 161.023C273.51 161.413 273.896 161.695 274.342 161.811C274.537 161.859 274.74 161.852 274.931 161.791C275.121 161.73 275.291 161.617 275.421 161.465L279.467 156.988L283.503 163.461C283.751 163.901 284.161 164.227 284.646 164.368C284.833 164.426 285.032 164.433 285.222 164.388C285.412 164.342 285.586 164.246 285.725 164.109C286.035 163.721 286.209 163.242 286.223 162.746C286.237 162.249 286.088 161.762 285.801 161.358L281.614 154.636Z" fill="white"/>
<path d="M267.545 131.061L292.274 138.322" stroke="#263238" stroke-width="0.75" stroke-linecap="round" stroke-linejoin="round"/>
<path d="M266.563 124.188L298.618 133.133" stroke="#263238" stroke-width="0.75" stroke-linecap="round" stroke-linejoin="round"/>
<path d="M288.66 278.324C288.66 278.324 273.026 279.77 267.243 284.398C261.46 289.027 265.797 291.347 271.289 292.792C276.781 294.238 301.391 291.918 304.574 288.736C307.757 285.553 304.574 277.741 288.66 278.324Z" fill="white" stroke="#263238" stroke-width="0.75" stroke-linecap="round" stroke-linejoin="round"/>
<path d="M304.574 288.779C305.189 288.165 305.57 287.356 305.653 286.491C298.651 286.146 289.469 288.175 281.129 290.807C278.313 291.703 275.454 292.456 272.562 293.062C279.834 293.936 301.596 291.714 304.574 288.779Z" fill="#263238" stroke="#263238" stroke-width="0.75" stroke-linecap="round" stroke-linejoin="round"/>
<path d="M233.235 106.613L244.661 112.558" stroke="#263238" stroke-linecap="round" stroke-linejoin="round"/>
<path d="M226.675 103.203L230.074 104.973" stroke="#263238" stroke-linecap="round" stroke-linejoin="round"/>
<path d="M235.749 136.563L239.623 137.006" stroke="#263238" stroke-linecap="round" stroke-linejoin="round"/>
<path d="M220.925 134.848L231.369 136.057" stroke="#263238" stroke-linecap="round" stroke-linejoin="round"/>
<path d="M238.188 164.346L225.241 167.939" stroke="#263238" stroke-linecap="round" stroke-linejoin="round"/>
<path d="M221.475 6.1001C215.351 6.1001 209.364 7.91618 204.272 11.3187C199.18 14.7212 195.211 19.5573 192.867 25.2154C190.523 30.8736 189.91 37.0997 191.105 43.1063C192.3 49.113 195.249 54.6305 199.579 58.961C203.91 63.2916 209.427 66.2407 215.434 67.4355C221.441 68.6303 227.667 68.0171 233.325 65.6734C238.983 63.3298 243.819 59.3609 247.222 54.2687C250.624 49.1765 252.44 43.1896 252.44 37.0653C252.44 28.8528 249.178 20.9767 243.371 15.1696C237.564 9.3625 229.688 6.1001 221.475 6.1001V6.1001ZM221.475 61.9454C216.555 61.9432 211.745 60.4822 207.655 57.7471C203.565 55.0119 200.378 51.1254 198.497 46.579C196.615 42.0326 196.124 37.0304 197.085 32.2048C198.046 27.3793 200.417 22.9471 203.897 19.4686C207.377 15.9902 211.81 13.6216 216.636 12.6625C221.462 11.7034 226.464 12.1967 231.01 14.0802C235.555 15.9636 239.44 19.1525 242.174 23.2438C244.907 27.3351 246.366 32.145 246.366 37.0653C246.372 40.3366 245.732 43.5769 244.483 46.6006C243.235 49.6243 241.402 52.3719 239.09 54.6861C236.777 57.0003 234.031 58.8355 231.009 60.0868C227.986 61.338 224.746 61.9806 221.475 61.9777V61.9454Z" fill="#263238"/>
<path d="M223.687 37.0978C223.698 37.5374 223.577 37.9702 223.341 38.341C223.104 38.7117 222.763 39.0036 222.36 39.1793C221.956 39.355 221.51 39.4066 221.078 39.3274C220.645 39.2483 220.246 39.042 219.931 38.7349C219.616 38.4279 219.4 38.0339 219.311 37.6035C219.221 37.173 219.261 36.7256 219.427 36.3183C219.593 35.911 219.876 35.5623 220.241 35.3168C220.606 35.0713 221.035 34.9401 221.475 34.9399C222.052 34.9398 222.607 35.1654 223.02 35.5686C223.434 35.9718 223.673 36.5206 223.687 37.0978V37.0978Z" fill="#263238"/>
<path d="M214.063 48.3293L221.475 37.0977L234.001 47.4661" stroke="#263238" stroke-linecap="round" stroke-linejoin="round"/>
<path d="M57.1544 60.8341L53.4321 50.6598L55.4174 52.8932V49.419L59.636 55.871L55.9137 32.7928L60.8767 45.4486L61.373 34.2817L62.1175 38.004L63.1101 25.3481L64.8472 44.7041L67.3287 38.004L66.8324 46.6893L73.5325 26.8371L70.3066 51.6524L75.0215 48.1782L72.2918 52.645L75.7659 50.1635L71.8063 61.5785L57.4026 61.8267" fill="#FF9344"/>
<path d="M73.0794 85.8976H57.5644L53.3782 59.0107H77.2548L73.0794 85.8976Z" fill="#263238" stroke="#263238" stroke-linecap="round" stroke-linejoin="round"/>
<path d="M115.557 85.7144H37.2374V294.066H115.557V85.7144Z" fill="white" stroke="#263238" stroke-linecap="round" stroke-linejoin="round"/>
<path d="M110.227 92.5547H41.7905V142.736H110.227V92.5547Z" stroke="#263238" stroke-linecap="round" stroke-linejoin="round"/>
<path d="M89.6949 113.086H62.3225V122.214H89.6949V113.086Z" fill="#263238"/>
<path d="M110.227 151.108H41.7905V201.289H110.227V151.108Z" stroke="#263238" stroke-linecap="round" stroke-linejoin="round"/>
<path d="M89.6949 171.64H62.3225V180.767H89.6949V171.64Z" fill="#263238"/>
<path d="M110.227 209.65H41.7905V259.831H110.227V209.65Z" stroke="#263238" stroke-linecap="round" stroke-linejoin="round"/>
<path d="M89.6949 230.183H62.3225V239.31H89.6949V230.183Z" fill="#263238"/>
<path d="M123.951 282.176C123.951 282.176 163.202 264.837 184.306 263.532L199.702 297.55H83.4155L123.951 282.176Z" fill="#263238" stroke="#263238" stroke-width="0.75" stroke-linecap="round" stroke-linejoin="round"/>
<path d="M171.726 77.2012C171.726 77.2012 199.357 110.022 205.172 116.043C210.988 122.063 211.204 126.433 209.326 129.13C207.449 131.827 193.337 136.823 178.793 146.166C164.249 155.51 122.904 179.613 122.494 180.455C122.084 181.296 118.125 151.323 118.125 151.323L187.305 122.861L187.1 120.779L164.659 79.2296L171.726 77.2012Z" fill="white"/>
<path d="M198.321 125.645L166.256 78.8193L164.713 79.2725L187.154 120.822L187.359 122.904L118.179 151.366C118.179 151.366 118.254 151.884 118.362 152.758L122.872 163.105L198.321 125.645Z" fill="#FF9344"/>
<path opacity="0.5" d="M198.321 125.645L166.256 78.8193L164.713 79.2725L187.154 120.822L187.359 122.904L118.179 151.366C118.179 151.366 118.254 151.884 118.362 152.758L122.872 163.105L198.321 125.645Z" fill="white"/>
<path d="M171.726 77.2012C171.726 77.2012 199.357 110.022 205.172 116.043C210.988 122.063 211.204 126.433 209.326 129.13C207.449 131.827 193.337 136.823 178.793 146.166C164.249 155.51 122.904 179.613 122.494 180.455C122.084 181.296 118.125 151.323 118.125 151.323L187.305 122.861L187.1 120.779L164.659 79.2296L171.726 77.2012Z" stroke="#263238" stroke-width="0.75" stroke-linecap="round" stroke-linejoin="round"/>
<path d="M149.705 62.8621C149.705 62.8621 146.382 59.949 144.72 62.8621C143.059 65.7752 142.854 70.5441 143.889 70.9648C144.925 71.3856 149.079 70.7598 149.705 69.5083C150.331 68.2567 149.705 62.8621 149.705 62.8621Z" fill="white" stroke="#263238" stroke-width="0.75" stroke-linecap="round" stroke-linejoin="round"/>
<path d="M155.52 61.4058C155.52 61.4058 151.992 57.6727 149.705 59.1184C147.417 60.5642 148.043 68.4727 148.874 69.0985C149.705 69.7243 154.689 68.0196 155.348 67.0162C156.006 66.0128 155.52 61.4058 155.52 61.4058Z" fill="white" stroke="#263238" stroke-width="0.75" stroke-linecap="round" stroke-linejoin="round"/>
<path d="M163.418 61.6106C163.418 61.6106 160.3 57.2949 157.398 57.2949C154.495 57.2949 152.402 67.685 153.449 68.5158C154.495 69.3465 161.336 68.3108 161.756 67.685C162.423 65.6926 162.977 63.6647 163.418 61.6106V61.6106Z" fill="white" stroke="#263238" stroke-width="0.75" stroke-linecap="round" stroke-linejoin="round"/>
<path d="M169.492 68.6775C169.492 67.4368 168.877 56.6259 165.177 57.2517C161.476 57.8775 157.495 66.606 157.7 68.041C157.905 69.476 169.492 68.6775 169.492 68.6775Z" fill="white" stroke="#263238" stroke-width="0.75" stroke-linecap="round" stroke-linejoin="round"/>
<path d="M187.305 122.904C187.305 122.904 197.9 126.853 201.849 126.637Z" fill="white"/>
<path d="M187.305 122.904C187.305 122.904 197.9 126.853 201.849 126.637" stroke="#263238" stroke-width="0.75" stroke-linecap="round" stroke-linejoin="round"/>
<path d="M100.182 297.831C111.468 295.932 125.925 288.174 130.23 278.41C126.993 261.482 122.904 237.637 122.904 223.05C122.904 198.537 129.378 184.619 126.432 168.025C123.487 151.431 117.294 140.609 110.648 136.24C110.648 136.24 100.473 138.937 90.0833 148.701C79.6932 158.466 70.5547 175.254 66.9943 191.254C63.4338 207.255 58.6865 256.486 58.6865 269.369C58.6865 282.251 57.7586 298.241 57.7586 298.241C70.1987 298.241 82.6387 298.241 95.0787 298.241C96.7887 298.257 98.4967 298.12 100.182 297.831V297.831Z" fill="white"/>
<path d="M130.23 278.399C123.908 283.794 95.4348 294.27 91.2809 295.198C87.127 296.126 89.4359 287.344 95.8987 278.572C102.361 269.8 88.0441 281.809 85.7352 282.726C83.4263 283.643 86.6631 265.636 86.6631 256.832C86.6631 248.028 94.9816 173.236 94.9816 173.236L110.68 144.591L116.075 141.354C114.568 139.351 112.746 137.606 110.68 136.186C110.68 136.186 100.506 138.883 90.1157 148.648C79.7256 158.412 70.5547 175.254 66.9943 191.254C63.4338 207.255 58.6865 256.486 58.6865 269.369C58.6865 282.251 57.7586 298.241 57.7586 298.241C70.1987 298.241 82.6387 298.241 95.0787 298.241C96.7828 298.242 98.4835 298.09 100.16 297.788C111.468 295.932 125.925 288.175 130.23 278.399Z" fill="#FF9344"/>
<path opacity="0.5" d="M130.23 278.399C123.908 283.794 95.4348 294.27 91.2809 295.198C87.127 296.126 89.4359 287.344 95.8987 278.572C102.361 269.8 88.0441 281.809 85.7352 282.726C83.4263 283.643 86.6631 265.636 86.6631 256.832C86.6631 248.028 94.9816 173.236 94.9816 173.236L110.68 144.591L116.075 141.354C114.568 139.351 112.746 137.606 110.68 136.186C110.68 136.186 100.506 138.883 90.1157 148.648C79.7256 158.412 70.5547 175.254 66.9943 191.254C63.4338 207.255 58.6865 256.486 58.6865 269.369C58.6865 282.251 57.7586 298.241 57.7586 298.241C70.1987 298.241 82.6387 298.241 95.0787 298.241C96.7828 298.242 98.4835 298.09 100.16 297.788C111.468 295.932 125.925 288.175 130.23 278.399Z" fill="white"/>
<path d="M100.182 297.831C111.468 295.932 125.925 288.174 130.23 278.41C126.993 261.482 122.904 237.637 122.904 223.05C122.904 198.537 129.378 184.619 126.432 168.025C123.487 151.431 117.294 140.609 110.648 136.24C110.648 136.24 100.473 138.937 90.0833 148.701C79.6932 158.466 70.5547 175.254 66.9943 191.254C63.4338 207.255 58.6865 256.486 58.6865 269.369C58.6865 282.251 57.7586 298.241 57.7586 298.241C70.1987 298.241 82.6387 298.241 95.0787 298.241C96.7887 298.257 98.4967 298.12 100.182 297.831V297.831Z" stroke="#263238" stroke-width="0.75" stroke-linecap="round" stroke-linejoin="round"/>
<path d="M110.043 140.06L127.889 172.557L128.849 190.381C128.849 190.381 133.823 177.671 131.611 169.374C129.399 161.077 110.043 140.06 110.043 140.06Z" fill="#263238" stroke="#263238" stroke-width="0.75" stroke-linecap="round" stroke-linejoin="round"/>
<path d="M128.838 190.392L123.865 265.604L129.399 281.086L133.273 250.11L129.95 188.169L128.838 190.392Z" fill="#263238" stroke="#263238" stroke-width="0.75" stroke-linecap="round" stroke-linejoin="round"/>
<path d="M123.94 109.601C123.94 109.601 124.566 117.704 125.192 121.653C125.817 125.602 116.053 136.65 116.053 136.65L130.176 158.045L146.177 145.584C146.177 145.584 168.834 143.922 170.895 142.045C172.956 140.167 172.977 119.614 172.977 119.614L178.372 116.496C178.372 116.496 173.387 94.9172 172.147 90.1052L170.895 85.3363C170.895 85.3363 178.167 82.8332 176.505 75.626C174.844 68.4187 164.249 64.8367 153.654 66.4767C143.059 68.1166 140.361 72.0871 140.361 72.0871C140.361 72.0871 125.397 71.8821 116.884 78.9491C108.371 86.016 113.561 97.2261 116.258 101.175C118.553 104.215 121.125 107.036 123.94 109.601V109.601Z" fill="white"/>
<path d="M148.993 138.624C144.839 133.543 148.993 114.143 152.23 104.444C155.466 94.7443 147.612 90.5904 147.612 90.5904L171.197 86.5229L170.873 85.3037C172.468 84.6803 173.887 83.6766 175.006 82.3798L176.279 74.8812C174.121 68.0624 163.903 64.7825 153.621 66.3901C143.026 68.0516 140.329 72.0005 140.329 72.0005C140.329 72.0005 125.364 71.7955 116.851 78.8625C108.339 85.9295 113.528 97.1395 116.226 101.088C118.517 104.158 121.089 107.008 123.908 109.601C123.908 109.601 124.533 117.704 125.159 121.653C125.785 125.602 116.053 136.65 116.053 136.65L130.176 158.045L146.177 145.583C146.177 145.583 163.44 144.31 169.223 142.746L170.895 142.044C170.895 142.044 153.168 143.706 148.993 138.624Z" fill="#FF9344"/>
<path opacity="0.5" d="M148.993 138.624C144.839 133.543 148.993 114.143 152.23 104.444C155.466 94.7443 147.612 90.5904 147.612 90.5904L171.197 86.5229L170.873 85.3037C172.468 84.6803 173.887 83.6766 175.006 82.3798L176.279 74.8812C174.121 68.0624 163.903 64.7825 153.621 66.3901C143.026 68.0516 140.329 72.0005 140.329 72.0005C140.329 72.0005 125.364 71.7955 116.851 78.8625C108.339 85.9295 113.528 97.1395 116.226 101.088C118.517 104.158 121.089 107.008 123.908 109.601C123.908 109.601 124.533 117.704 125.159 121.653C125.785 125.602 116.053 136.65 116.053 136.65L130.176 158.045L146.177 145.583C146.177 145.583 163.44 144.31 169.223 142.746L170.895 142.044C170.895 142.044 153.168 143.706 148.993 138.624Z" fill="white"/>
<path d="M161.131 100.053C161.131 100.053 161.131 99.7288 161.131 99.2217C161.131 97.6141 161.4 94.14 164.087 93.1905C167.615 91.9498 170.56 95.2728 170.56 95.2728L170.765 98.5959C170.258 97.9614 169.591 97.4732 168.832 97.1813C168.074 96.8893 167.252 96.8041 166.45 96.9344C164.385 97.3683 162.518 98.4629 161.131 100.053V100.053Z" fill="#263238"/>
<path d="M167.162 106.699C167.162 108.414 166.687 109.817 166.083 109.817C165.479 109.817 165.004 108.414 165.004 106.699C165.004 104.983 165.468 103.581 166.083 103.581C166.698 103.581 167.162 104.972 167.162 106.699Z" fill="#263238"/>
<path d="M160.613 128.461C159.458 129.658 157.915 130.047 157.171 129.335C156.427 128.622 156.761 127.058 157.915 125.86C159.07 124.663 160.602 124.274 161.346 124.987C162.091 125.699 161.767 127.263 160.613 128.461Z" fill="#263238"/>
<path d="M123.94 109.601C123.94 109.601 124.566 117.704 125.192 121.653C125.817 125.602 116.053 136.65 116.053 136.65L130.176 158.045L146.177 145.584C146.177 145.584 168.834 143.922 170.895 142.045C172.956 140.167 172.977 119.614 172.977 119.614L178.372 116.496C178.372 116.496 173.387 94.9172 172.147 90.1052L170.895 85.3363C170.895 85.3363 178.167 82.8332 176.505 75.626C174.844 68.4187 164.249 64.8367 153.654 66.4767C143.059 68.1166 140.361 72.0871 140.361 72.0871C140.361 72.0871 125.397 71.8821 116.884 78.9491C108.371 86.016 113.561 97.2261 116.258 101.175C118.553 104.215 121.125 107.036 123.94 109.601V109.601Z" stroke="#263238" stroke-width="0.75" stroke-linecap="round" stroke-linejoin="round"/>
<path d="M143.889 89.2417C147.633 86.7494 170.863 85.3036 170.863 85.3036C170.863 85.3036 178.135 82.8005 176.473 75.5933C174.811 68.386 164.216 64.804 153.621 66.444C143.026 68.0839 140.329 72.0544 140.329 72.0544C140.329 72.0544 125.364 71.8494 116.851 78.9164C108.339 85.9833 113.528 97.1934 116.226 101.142C118.517 104.212 121.089 107.062 123.908 109.655C123.908 109.655 124.253 114.1 124.684 118.017L131.158 119.84L138.225 116.096L145.292 114.435C145.292 114.435 140.092 110.486 143.005 106.753C145.918 103.02 151.312 101.768 151.517 98.8549C151.722 95.9418 140.146 91.734 143.889 89.2417Z" fill="#263238" stroke="#263238" stroke-width="0.75" stroke-linecap="round" stroke-linejoin="round"/>
<path d="M166.568 77.1687C166.568 77.1687 164.13 72.7019 168.597 73.5111C173.064 74.3203 173.064 82.0454 169.406 83.6638C165.748 85.2822 145.853 81.6354 134.88 84.883C123.908 88.1306 116.204 97.0641 116.204 97.0641" stroke="white" stroke-miterlimit="10" stroke-linecap="round"/>
<path d="M122.3 103.969C122.3 103.969 130.834 96.6648 137.729 95.4456C144.623 94.2264 148.291 94.2264 140.577 98.6824C132.863 103.138 138.139 102.329 143.015 100.711" stroke="white" stroke-miterlimit="10" stroke-linecap="round"/>
<path d="M140.146 119.991C140.146 119.991 138.905 106.904 132.464 106.494C126.022 106.084 126.227 115.428 128.148 121.869C130.068 128.31 134.621 130.381 138.322 127.058" fill="#FF9344"/>
<g opacity="0.5">
<path d="M140.146 119.991C140.146 119.991 138.905 106.904 132.464 106.494C126.022 106.084 126.227 115.428 128.148 121.869C130.068 128.31 134.621 130.381 138.322 127.058" fill="white"/>
<path d="M140.146 119.991C140.146 119.991 138.905 106.904 132.464 106.494C126.022 106.084 126.227 115.428 128.148 121.869C130.068 128.31 134.621 130.381 138.322 127.058" stroke="#263238" stroke-width="0.75" stroke-linecap="round" stroke-linejoin="round"/>
</g>
<path d="M140.146 119.991C140.146 119.991 138.905 106.904 132.464 106.494C126.022 106.084 126.227 115.428 128.148 121.869C130.068 128.31 134.621 130.381 138.322 127.058" stroke="#263238" stroke-width="0.75" stroke-linecap="round" stroke-linejoin="round"/>
<path d="M116.625 128.72L137.405 160.3L127.846 172.557C123.541 164.251 118.757 156.203 113.518 148.453C106.451 138.484 105.62 136.822 105.62 136.822L116.625 128.72Z" fill="white"/>
<path d="M116.625 128.72L105.62 136.822C105.62 136.822 106.235 138.042 110.766 144.548L122.397 137.491L116.625 128.72Z" fill="#FF9344"/>
<path opacity="0.5" d="M116.625 128.72L105.62 136.822C105.62 136.822 106.235 138.042 110.766 144.548L122.397 137.491L116.625 128.72Z" fill="white"/>
<path d="M116.625 128.72L137.405 160.3L127.846 172.557C123.541 164.251 118.757 156.203 113.518 148.453C106.451 138.484 105.62 136.822 105.62 136.822L116.625 128.72Z" stroke="#263238" stroke-width="0.75" stroke-linecap="round" stroke-linejoin="round"/>
<path d="M170.064 207.255C170.064 207.255 173.387 200.393 174.013 196.034C174.639 191.675 174.844 189.172 177.336 187.101C179.828 185.029 187.931 176.711 189.204 173.593C190.477 170.474 191.276 173.388 191.902 175.88C192.527 178.372 192.312 180.66 190.24 182.116C188.78 183.199 187.455 184.452 186.291 185.849L188.158 187.306C188.158 187.306 214.128 177.541 216.836 176.516C219.544 175.491 222.025 176.301 222.23 178.383C222.435 180.465 221.615 180.67 220.364 181.296C219.112 181.922 205.41 186.691 203.533 187.521L201.666 188.352L203.123 189.809C203.123 189.809 210.599 189.604 214.343 189.399C218.087 189.194 223.687 188.568 224.518 189.809C224.888 190.364 225.03 191.041 224.914 191.699C224.797 192.356 224.431 192.943 223.892 193.337C223.455 193.756 222.929 194.07 222.354 194.257C221.778 194.444 221.168 194.498 220.569 194.416C218.702 194.416 202.702 195.657 202.702 195.657L203.123 197.944C203.123 197.944 220.159 200.641 220.774 201.472C221.389 202.303 221.4 202.724 220.774 203.964C220.148 205.205 219.695 205.216 218.076 205.216C216.458 205.216 202.971 203.134 202.971 203.134C202.971 203.134 209.618 206.877 210.448 207.503C211.279 208.129 214.182 208.582 213.351 209.996C212.52 211.409 212.11 211.862 210.858 211.657C209.607 211.452 200.684 207.503 200.684 207.503C200.684 207.503 191.751 208.744 188.816 208.96C186.656 209.06 184.491 208.988 182.342 208.744L174.035 214.139L170.064 207.255Z" fill="white" stroke="#263238" stroke-width="0.75" stroke-linecap="round" stroke-linejoin="round"/>
<path d="M111.068 197.901C111.068 197.901 105.037 172.762 102.545 167.151C100.053 161.541 85.9294 156.362 79.0675 168.608C72.2055 180.853 78.4417 194.782 80.9448 204.752C83.4479 214.721 99.2218 259.777 101.509 265.42C103.796 271.063 107.983 269.736 110.238 269.164C112.493 268.592 175.675 217.634 175.675 217.634L170.69 206.424L121.664 231.595L111.068 197.901Z" fill="white"/>
<path d="M109.299 253.174C110.9 248.311 112.747 243.532 114.834 238.857C117.143 234.239 103.753 249.484 100.98 241.166C98.2076 232.847 80.6643 191.287 83.8903 177.433C85.2896 170.997 89.0556 165.321 94.4422 161.53C89.2957 160.311 82.9947 161.605 79.0674 168.619C72.2163 180.875 78.4417 194.793 80.9448 204.763C83.4479 214.732 99.2218 259.788 101.509 265.431C103.796 271.073 107.983 269.746 110.238 269.175C111.899 268.721 145.842 241.608 164.184 226.902L109.299 253.174Z" fill="#FF9344"/>
<path opacity="0.5" d="M109.299 253.174C110.9 248.311 112.747 243.532 114.834 238.857C117.143 234.239 103.753 249.484 100.98 241.166C98.2076 232.847 80.6643 191.287 83.8903 177.433C85.2896 170.997 89.0556 165.321 94.4422 161.53C89.2957 160.311 82.9947 161.605 79.0674 168.619C72.2163 180.875 78.4417 194.793 80.9448 204.763C83.4479 214.732 99.2218 259.788 101.509 265.431C103.796 271.073 107.983 269.746 110.238 269.175C111.899 268.721 145.842 241.608 164.184 226.902L109.299 253.174Z" fill="white"/>
<path d="M111.068 197.901C111.068 197.901 105.037 172.762 102.545 167.151C100.053 161.541 85.9294 156.362 79.0675 168.608C72.2055 180.853 78.4417 194.782 80.9448 204.752C83.4479 214.721 99.2218 259.777 101.509 265.42C103.796 271.063 107.983 269.736 110.238 269.164C112.493 268.592 175.675 217.634 175.675 217.634L170.69 206.424L121.664 231.595L111.068 197.901Z" stroke="#263238" stroke-width="0.75" stroke-linecap="round" stroke-linejoin="round"/>
<path d="M163.418 210.578L169.028 222.004" stroke="#263238" stroke-width="0.75" stroke-linecap="round" stroke-linejoin="round"/>
<path d="M31.627 153.255L2.92755 173.161C2.92755 173.161 17.0723 188.115 15.6157 227.345C14.5368 257.307 18.4965 291.325 24.2471 298.241H54.8024C54.8024 298.241 44.2397 239.979 44.9949 206.597C45.5883 181.231 37.9711 163.623 31.627 153.255Z" fill="white" stroke="#263238" stroke-width="0.75" stroke-linecap="round" stroke-linejoin="round"/>
<path d="M35.0796 153.255L6.38013 173.161C6.38013 173.161 20.5249 188.115 19.0575 227.345C17.9786 257.307 21.9383 291.325 27.6889 298.241H58.255C58.255 298.241 47.703 239.979 48.4583 206.597C49.0301 181.231 41.4129 163.623 35.0796 153.255Z" fill="#263238" stroke="#263238" stroke-width="0.75" stroke-linecap="round" stroke-linejoin="round"/>
<path d="M31.627 153.255H35.0796L6.38014 173.161H2.93835L31.627 153.255Z" fill="white" stroke="#263238" stroke-width="0.75" stroke-linecap="round" stroke-linejoin="round"/>
</svg>
