<svg width="168" height="205" viewBox="0 0 168 205" fill="none" xmlns="http://www.w3.org/2000/svg">
<path d="M85.317 17.5679L14.2608 102.026" stroke="#FF54D9" stroke-width="11.0371" stroke-linecap="round"/>
<path d="M165.389 128.226L115.626 187.375" stroke="#FF54D9" stroke-width="11.0371" stroke-linecap="round" stroke-linejoin="round"/>
<path d="M116.435 14.8862L158.684 50.4313" stroke="#FF54D9" stroke-width="11.0371" stroke-linecap="round" stroke-linejoin="round"/>
<path d="M16.9086 133.185L84.5077 190.057" stroke="#FF54D9" stroke-width="11.0371" stroke-linecap="round"/>
<path d="M115.625 187.375C108.571 195.854 92.9576 197.166 84.5077 190.057" stroke="#FF54D9" stroke-width="11.0371" stroke-linecap="round" stroke-linejoin="round"/>
<path d="M14.2268 102.067C7.1178 110.517 8.45867 126.075 16.9086 133.184" stroke="#FF54D9" stroke-width="11.0371" stroke-linecap="round" stroke-linejoin="round"/>
<path d="M85.3272 17.5559C92.4259 9.11827 107.826 7.96558 116.435 14.8864" stroke="#FF54D9" stroke-width="11.0371" stroke-linecap="round" stroke-linejoin="round"/>
<path d="M165.31 128.225L158.684 50.4312" stroke="#FF54D9" stroke-width="11.0371" stroke-linecap="round" stroke-linejoin="round"/>
<path d="M137.357 75.781C130.313 84.2068 131.623 99.8184 140.039 106.899" stroke="#FF54D9" stroke-width="11.0371" stroke-linecap="round" stroke-linejoin="round"/>
<path d="M137.357 75.7808L158.684 50.4312" stroke="#FF54D9" stroke-width="11.0371" stroke-linecap="round" stroke-linejoin="round"/>
<path d="M140.039 106.899L165.389 128.226" stroke="#FF54D9" stroke-width="11.0371" stroke-linecap="round" stroke-linejoin="round"/>
<path d="M31.1266 116.285L56.4763 137.612" stroke="#FF54D9" stroke-width="11.0426" stroke-linecap="round" stroke-linejoin="round"/>
<path d="M45.3446 99.3848L87.594 134.93" stroke="#FF54D9" stroke-width="11.0426" stroke-linecap="round" stroke-linejoin="round"/>
<path d="M59.5627 82.4849L84.9123 103.812" stroke="#FF54D9" stroke-width="11.0426" stroke-linecap="round" stroke-linejoin="round"/>
</svg>
