<svg width="32" height="36" viewBox="0 0 32 36" fill="none" xmlns="http://www.w3.org/2000/svg">
<path d="M28.4687 15.4649C28.4812 12.1675 27.1854 8.99973 24.8655 6.65642C22.5456 4.31311 19.391 2.98553 16.0937 2.96487H15.9999C14.3605 2.96692 12.7375 3.29187 11.2236 3.92116C9.70967 4.55046 8.33456 5.47177 7.17673 6.6325C6.0189 7.79324 5.10103 9.17065 4.47553 10.6861C3.85002 12.2016 3.52914 13.8254 3.53119 15.4649C3.53119 20.8242 2.42182 23.8555 1.49994 25.4492C1.27828 25.8308 1.16023 26.2637 1.15749 26.705C1.15475 27.1462 1.26742 27.5806 1.48432 27.9649C1.70308 28.347 2.01948 28.6641 2.40111 28.8838C2.78273 29.1034 3.21588 29.2177 3.65619 29.2149H9.74994C9.74994 30.8725 10.4084 32.4622 11.5805 33.6343C12.7526 34.8064 14.3423 35.4649 15.9999 35.4649C17.6575 35.4649 19.2473 34.8064 20.4194 33.6343C21.5915 32.4622 22.2499 30.8725 22.2499 29.2149H28.3437C28.784 29.2177 29.2171 29.1034 29.5988 28.8838C29.9804 28.6641 30.2968 28.347 30.5156 27.9649C30.7325 27.5806 30.8451 27.1462 30.8424 26.705C30.8396 26.2637 30.7216 25.8308 30.4999 25.4492C29.5781 23.8555 28.4687 20.8242 28.4687 15.4649ZM15.9999 32.9649C15.0066 32.9608 14.0552 32.5643 13.3528 31.862C12.6505 31.1596 12.2541 30.2082 12.2499 29.2149H19.7499C19.7458 30.2082 19.3494 31.1596 18.647 31.862C17.9447 32.5643 16.9932 32.9608 15.9999 32.9649ZM3.65619 26.7149C4.73432 24.8555 6.03119 21.3867 6.03119 15.4649C6.02708 14.1531 6.28189 12.8535 6.78103 11.6404C7.28016 10.4273 8.0138 9.32469 8.9399 8.39569C9.86599 7.46669 10.9663 6.7296 12.1778 6.22667C13.3893 5.72374 14.6882 5.46486 15.9999 5.46487H16.0781C17.3824 5.46796 18.6732 5.73067 19.875 6.23768C21.0768 6.7447 22.1656 7.48587 23.0781 8.41799C23.9996 9.3448 24.7293 10.4443 25.2253 11.6535C25.7213 12.8627 25.9739 14.1579 25.9687 15.4649C25.9687 21.3867 27.2656 24.8555 28.3437 26.7149H3.65619ZM31.1406 9.41799C30.9681 9.49479 30.7824 9.53724 30.5937 9.54299C30.3587 9.54504 30.128 9.47997 29.9287 9.35541C29.7294 9.23086 29.5698 9.052 29.4687 8.83987C28.2346 6.35684 26.3431 4.25991 23.9999 2.77737C23.8604 2.69016 23.7394 2.57633 23.6439 2.44237C23.5483 2.3084 23.4801 2.15693 23.4431 1.99661C23.4061 1.83628 23.4011 1.67024 23.4283 1.50796C23.4554 1.34568 23.5143 1.19034 23.6015 1.05081C23.6887 0.911277 23.8025 0.79029 23.9365 0.694754C24.0705 0.599218 24.2219 0.531003 24.3823 0.494005C24.5426 0.457007 24.7086 0.451949 24.8709 0.479121C25.0332 0.506294 25.1885 0.565163 25.3281 0.652369C28.0705 2.37922 30.2779 4.83552 31.7031 7.74612C31.8494 8.04254 31.8724 8.38487 31.767 8.6982C31.6616 9.01153 31.4363 9.27034 31.1406 9.41799ZM1.40619 9.54299C1.21751 9.53724 1.03176 9.49479 0.859316 9.41799C0.563531 9.27034 0.338281 9.01153 0.232861 8.6982C0.127441 8.38487 0.150437 8.04254 0.296816 7.74612C1.722 4.83552 3.92943 2.37922 6.67182 0.652369C6.95361 0.476249 7.29382 0.419283 7.61762 0.494005C7.77794 0.531003 7.92941 0.599218 8.06337 0.694754C8.19734 0.79029 8.31117 0.911277 8.39838 1.05081C8.48558 1.19034 8.54445 1.34568 8.57163 1.50796C8.5988 1.67024 8.59374 1.83628 8.55674 1.99661C8.51974 2.15693 8.45153 2.3084 8.35599 2.44237C8.26046 2.57633 8.13947 2.69016 7.99994 2.77737C5.65679 4.25991 3.76523 6.35684 2.53119 8.83987C2.43006 9.052 2.27047 9.23086 2.07118 9.35541C1.87189 9.47997 1.64119 9.54504 1.40619 9.54299Z" fill="#FF9344"/>
</svg>
