<svg width="265" height="107" viewBox="0 0 265 107" fill="none" xmlns="http://www.w3.org/2000/svg">
<path d="M11.9615 243.451L19.7266 251.292C26.7939 258.418 36.4015 262.447 46.4379 262.492C56.4743 262.538 66.1181 258.597 73.2498 251.535L231.596 94.6126L263.208 13.0654C266.918 3.41337 262.045 -1.47821 252.39 2.16172L170.546 33.0015L12.2047 189.928C-2.65412 204.631 -2.74548 228.592 11.9615 243.451ZM111.151 202.4L100.228 191.382L209.062 83.5245L219.985 94.5511L111.151 202.4ZM94.4536 185.55L78.3616 169.307L187.191 61.4536L203.283 77.6925L94.4536 185.55ZM224.898 21.2783L243.808 40.3781L225.211 88.161L176.961 39.4794L224.898 21.2783ZM170.493 44.5995L181.407 55.626L72.5824 163.48L61.6599 152.453L170.493 44.5995ZM55.3093 158.746L104.805 208.685L92.3806 221.001L42.8851 171.062L55.3093 158.746Z" fill="#FF9344"/>
</svg>
