<svg width="138" height="126" viewBox="0 0 138 126" fill="none" xmlns="http://www.w3.org/2000/svg">
<path d="M80.7998 9.8317L153.722 87.0234C160.449 94.1443 164.072 103.646 163.793 113.438C163.515 123.23 159.358 132.51 152.237 139.237C145.116 145.964 135.615 149.587 125.823 149.308C116.031 149.03 106.751 144.873 100.024 137.752L20.7601 53.8479C16.5557 49.3974 14.2915 43.4589 14.4656 37.339C14.6396 31.219 17.2377 25.4188 21.6882 21.2145C26.1388 17.0101 32.0772 14.7458 38.1972 14.9199C44.3172 15.094 50.1173 17.692 54.3217 22.1426L120.903 92.622C122.585 94.4022 123.49 96.7776 123.421 99.2256C123.351 101.674 122.312 103.994 120.532 105.675C118.752 107.357 116.376 108.263 113.928 108.193C111.48 108.124 109.16 107.084 107.478 105.304L47.2382 41.5371L37.1697 51.0487L97.4098 114.816C101.614 119.266 107.414 121.864 113.534 122.038C119.654 122.212 125.593 119.948 130.043 115.744C134.494 111.539 137.092 105.739 137.266 99.6194C137.44 93.4994 135.176 87.5609 130.971 83.1104L64.3902 12.631C57.6632 5.5101 48.3829 1.35317 38.591 1.07468C28.799 0.796191 19.2975 4.41894 12.1766 11.146C5.05575 17.873 0.898828 27.1533 0.620335 36.9452C0.341841 46.7372 3.96459 56.2387 10.6916 63.3596L89.955 147.264C99.2047 157.055 111.965 162.771 125.429 163.154C138.893 163.536 151.957 158.555 161.749 149.305C171.54 140.056 177.256 127.295 177.639 113.832C178.022 100.368 173.04 87.303 163.791 77.5118L90.8683 0.320088L80.7998 9.8317Z" fill="#1A1A40"/>
</svg>
